{"glyphs":{"0":{"ha":833,"x_min":0,"x_max":0,"o":"m 356 -17 b 47 336 172 -17 47 119 b 483 897 47 642 211 897 b 792 544 667 897 792 761 b 356 -17 792 239 628 -17 m 375 153 b 586 531 503 153 586 328 b 464 728 586 658 544 728 b 253 350 336 728 253 553 b 375 153 253 222 294 153 m 406 342 b 328 431 356 342 328 375 b 436 561 328 500 372 561 b 514 472 486 561 514 528 b 406 342 514 403 469 342 "},"1":{"ha":833,"x_min":0,"x_max":0,"o":"m 61 178 l 281 178 l 378 658 l 197 658 l 225 797 b 481 881 328 814 411 839 l 644 881 l 503 178 l 697 178 l 661 0 l 25 0 "},"2":{"ha":833,"x_min":0,"x_max":0,"o":"m 39 125 b 497 631 300 336 497 483 b 406 722 497 686 464 722 b 247 631 358 722 308 692 l 142 758 b 433 897 225 842 317 897 b 714 653 606 897 714 800 b 381 181 714 481 561 350 b 553 186 435 186 504 186 l 714 186 l 678 0 l 14 0 "},"3":{"ha":833,"x_min":0,"x_max":0,"o":"m 336 -17 b 17 144 228 -17 103 25 l 156 258 b 336 161 203 194 275 161 b 469 261 419 161 469 197 b 256 369 469 331 428 369 l 286 525 b 514 644 467 525 514 575 b 414 722 514 692 478 722 b 278 672 375 722 333 708 l 181 808 b 456 897 275 875 361 897 b 742 681 625 897 742 811 b 547 447 742 569 693 499 l 547 442 b 692 258 649 400 692 333 b 336 -17 692 78 539 -17 "},"4":{"ha":833,"x_min":0,"x_max":0,"o":"m 431 203 l 3 203 l 33 358 l 494 881 l 767 881 l 665 372 l 767 372 l 733 203 l 632 203 l 592 0 l 392 0 m 464 372 l 489 500 b 533 706 503 569 519 650 l 528 706 b 406 544 489 653 447 594 l 258 372 "},"5":{"ha":833,"x_min":0,"x_max":0,"o":"m 319 -17 b 0 144 206 -17 86 22 l 139 258 b 322 161 189 192 254 161 b 481 300 406 161 481 211 b 353 406 481 369 433 406 b 200 367 300 406 272 403 l 119 433 l 228 881 l 758 881 l 722 694 l 383 694 l 344 556 b 447 569 381 567 411 569 b 706 336 592 569 706 489 b 319 -17 706 117 514 -17 "},"6":{"ha":833,"x_min":0,"x_max":0,"o":"m 383 -17 b 69 303 192 -17 69 113 b 550 897 69 664 269 897 b 806 772 681 897 764 828 l 667 656 b 536 719 636 697 597 719 b 297 482 433 719 339 646 b 483 556 350 531 433 556 b 731 325 619 556 731 486 b 383 -17 731 153 588 -17 m 394 147 b 528 307 489 147 528 242 b 422 406 528 369 492 406 b 276 328 381 406 328 390 b 275 281 275 313 275 297 b 394 147 275 192 325 147 "},"7":{"ha":833,"x_min":0,"x_max":0,"o":"m 164 0 b 526 694 231 306 333 510 l 131 694 l 167 881 l 822 881 l 794 742 b 392 0 519 500 475 342 l 164 0 "},"8":{"ha":833,"x_min":0,"x_max":0,"o":"m 347 -17 b 50 194 156 -17 50 67 b 247 447 50 308 103 386 l 247 453 b 156 639 194 506 156 564 b 475 897 156 797 289 897 b 747 697 625 897 747 829 b 586 467 747 589 686 514 l 586 461 b 697 261 647 419 697 361 b 347 -17 697 97 564 -17 m 478 521 b 558 658 535 560 558 608 b 458 742 558 710 522 742 b 350 653 397 742 350 706 b 478 521 350 599 407 557 m 364 139 b 494 236 431 139 494 169 b 339 381 494 294 442 325 b 247 239 283 342 247 292 b 364 139 247 172 300 139 "},"9":{"ha":833,"x_min":0,"x_max":0,"o":"m 411 475 b 557 553 453 475 506 490 b 558 600 558 568 558 583 b 439 733 558 689 508 733 b 306 574 344 733 306 639 b 411 475 306 511 342 475 m 283 -17 b 28 108 153 -17 69 53 l 167 225 b 297 161 197 183 236 161 b 536 399 400 161 494 235 b 350 325 483 350 400 325 b 103 556 214 325 103 394 b 450 897 103 728 246 897 b 764 578 642 897 764 768 b 283 -17 764 217 564 -17 "}," ":{"ha":833,"x_min":0,"x_max":0,"o":""},"A":{"ha":833,"x_min":0,"x_max":0,"o":"m 331 372 l 492 372 l 489 478 b 483 736 486 564 485 646 l 478 736 b 375 478 444 651 411 565 m 383 903 l 650 903 l 736 0 l 503 0 l 497 206 l 261 206 l 175 0 l -69 0 "},"B":{"ha":833,"x_min":0,"x_max":0,"o":"m 208 903 l 481 903 b 794 694 664 903 794 842 b 600 469 794 597 725 508 l 597 464 b 750 300 700 439 750 383 b 353 0 750 83 564 0 l 28 0 m 417 542 b 567 656 525 542 567 586 b 444 733 567 706 528 733 l 397 733 l 358 542 m 369 169 b 536 292 481 169 536 217 b 414 392 536 358 497 392 l 328 392 l 283 169 "},"C":{"ha":833,"x_min":0,"x_max":0,"o":"m 444 -17 b 92 367 233 -17 92 122 b 578 919 92 689 311 919 b 825 772 683 919 772 867 l 675 656 b 567 728 642 706 608 728 b 319 381 436 728 319 575 b 492 175 319 250 369 175 b 631 239 539 175 589 203 l 722 97 b 444 -17 672 50 572 -17 "},"D":{"ha":833,"x_min":0,"x_max":0,"o":"m 192 903 l 403 903 b 789 547 642 903 789 792 b 308 0 789 181 578 0 l 11 0 m 303 178 b 561 533 439 178 561 272 b 397 725 561 675 489 725 l 378 725 l 269 178 "},"E":{"ha":833,"x_min":0,"x_max":0,"o":"m 222 903 l 825 903 l 789 717 l 406 717 l 375 558 l 694 558 l 658 372 l 339 372 l 300 186 l 694 186 l 658 0 l 42 0 "},"F":{"ha":833,"x_min":0,"x_max":0,"o":"m 244 903 l 842 903 l 806 717 l 428 717 l 392 531 l 706 531 l 669 344 l 356 344 l 286 0 l 64 0 "},"G":{"ha":833,"x_min":0,"x_max":0,"o":"m 406 -17 b 56 367 190 -17 56 122 b 539 919 56 689 268 919 b 800 772 658 919 747 867 l 650 656 b 528 728 617 706 581 728 b 283 381 393 728 283 575 b 444 172 283 250 329 172 b 522 194 471 172 501 181 l 556 344 l 422 344 l 456 525 l 783 525 l 697 78 b 406 -17 628 25 522 -17 "},"H":{"ha":833,"x_min":0,"x_max":0,"o":"m 178 903 l 400 903 l 331 564 l 553 564 l 619 903 l 842 903 l 661 0 l 439 0 l 514 369 l 292 369 l 219 0 l -3 0 "},"I":{"ha":833,"x_min":0,"x_max":0,"o":"m 50 186 l 256 186 l 364 717 l 156 717 l 194 903 l 831 903 l 792 717 l 586 717 l 478 186 l 686 186 l 647 0 l 11 0 "},"J":{"ha":833,"x_min":0,"x_max":0,"o":"m 317 -17 b 3 144 158 -17 67 56 l 144 278 b 317 175 186 222 239 175 b 478 344 411 175 453 222 l 553 717 l 206 717 l 242 903 l 808 903 l 686 294 b 317 -17 650 114 533 -17 "},"K":{"ha":833,"x_min":0,"x_max":0,"o":"m 550 531 l 747 0 l 494 0 l 385 356 l 272 236 l 225 0 l 6 0 l 186 903 l 407 903 l 331 531 l 336 531 l 658 903 l 900 903 "},"L":{"ha":833,"x_min":0,"x_max":0,"o":"m 253 903 l 475 903 l 331 186 l 719 186 l 683 0 l 72 0 "},"M":{"ha":833,"x_min":0,"x_max":0,"o":"m 172 903 l 400 903 l 417 608 l 419 469 l 425 469 l 475 603 l 622 903 l 850 903 l 669 0 l 481 0 l 533 261 b 650 689 553 358 621 588 l 644 689 l 529 433 l 439 242 l 317 242 l 303 411 l 290 689 l 285 689 b 236 294 272 564 253 378 l 175 0 l -8 0 "},"N":{"ha":833,"x_min":0,"x_max":0,"o":"m 189 903 l 411 903 l 490 472 l 519 272 l 525 272 b 563 608 533 369 550 543 l 621 903 l 831 903 l 650 0 l 433 0 l 346 431 l 317 631 l 311 631 b 272 281 303 529 289 368 l 218 0 l 8 0 "},"O":{"ha":833,"x_min":0,"x_max":0,"o":"m 347 -17 b 36 356 158 -17 36 122 b 497 919 36 675 229 919 b 806 547 685 919 806 781 b 347 -17 806 228 614 -17 m 369 175 b 578 569 489 175 578 342 b 475 728 578 681 546 728 b 264 333 356 728 264 561 b 369 175 264 222 297 175 "},"P":{"ha":833,"x_min":0,"x_max":0,"o":"m 208 903 l 500 903 b 824 656 679 903 824 836 b 401 294 824 392 625 294 l 310 294 l 250 0 l 28 0 m 417 469 b 600 622 533 469 600 522 b 465 728 600 694 553 728 l 394 728 l 344 469 "},"Q":{"ha":833,"x_min":0,"x_max":0,"o":"m 372 164 b 578 569 489 164 578 328 b 475 728 578 681 546 728 b 264 333 356 728 264 561 b 372 164 264 211 297 164 m 569 -261 b 236 1 415 -261 297 -178 b 36 356 113 47 36 172 b 497 919 36 675 229 919 b 806 547 685 919 806 781 b 460 -1 806 275 665 57 b 596 -83 486 -58 535 -83 b 704 -65 644 -83 678 -74 l 738 -233 b 569 -261 708 -247 646 -261 "},"R":{"ha":833,"x_min":0,"x_max":0,"o":"m 192 903 l 481 903 b 807 654 661 903 807 839 b 586 344 807 492 710 393 l 728 0 l 482 0 l 374 311 l 294 311 l 233 0 l 11 0 m 396 486 b 582 631 515 486 582 544 b 454 728 582 697 538 728 l 378 728 l 331 486 "},"S":{"ha":833,"x_min":0,"x_max":0,"o":"m 374 -17 b 26 165 204 -17 90 63 l 169 292 b 367 174 219 215 288 174 b 483 247 438 174 483 199 b 382 354 483 293 444 317 l 306 400 b 153 649 222 450 153 528 b 472 919 153 817 294 919 b 785 763 604 919 721 853 l 644 642 b 472 732 603 690 546 732 b 382 664 424 732 382 713 b 460 572 382 626 414 601 l 553 511 b 711 264 642 453 711 390 b 374 -17 711 79 560 -17 "},"T":{"ha":833,"x_min":0,"x_max":0,"o":"m 361 717 l 97 717 l 133 903 l 883 903 l 847 717 l 583 717 l 442 0 l 219 0 "},"U":{"ha":833,"x_min":0,"x_max":0,"o":"m 343 -17 b 67 272 156 -17 67 103 b 83 428 67 328 72 375 l 178 903 l 400 903 l 300 400 b 283 289 293 363 283 325 b 372 175 283 214 314 175 b 522 383 450 175 489 217 l 625 903 l 842 903 l 736 372 b 343 -17 678 81 556 -17 "},"V":{"ha":833,"x_min":0,"x_max":0,"o":"m 104 903 l 338 903 l 354 481 b 360 194 357 386 360 290 l 365 194 b 485 481 401 283 456 414 l 668 903 l 913 903 l 449 0 l 179 0 "},"W":{"ha":833,"x_min":0,"x_max":0,"o":"m 100 904 l 311 904 l 239 438 b 201 206 231 379 214 275 l 208 206 b 294 438 235 282 265 368 l 396 675 l 529 675 l 538 438 b 536 206 539 393 538 285 l 543 206 b 597 439 558 276 579 364 l 710 904 l 921 904 l 646 0 l 404 0 l 413 268 b 421 443 414 326 417 392 l 417 443 b 360 268 401 389 381 326 l 267 0 l 19 0 "},"X":{"ha":833,"x_min":0,"x_max":0,"o":"m 288 478 l 126 904 l 369 904 l 417 746 b 458 592 428 710 443 644 l 464 592 b 549 746 493 642 526 711 l 649 904 l 889 904 l 556 442 l 731 0 l 489 0 l 432 175 b 390 315 421 208 404 269 l 385 315 b 300 172 357 267 324 208 l 185 0 l -57 0 "},"Y":{"ha":833,"x_min":0,"x_max":0,"o":"m 274 278 l 111 904 l 342 904 l 382 682 b 421 463 394 613 408 535 l 426 463 b 547 682 467 535 507 611 l 674 904 l 907 904 l 492 256 l 438 0 l 218 0 "},"Z":{"ha":833,"x_min":0,"x_max":0,"o":"m 6 0 l 32 132 l 510 721 l 149 721 l 186 904 l 836 904 l 810 772 l 332 183 l 719 183 l 682 0 "},"a":{"ha":833,"x_min":0,"x_max":0,"o":"m 263 -17 b 39 253 125 -17 39 81 b 408 711 39 508 217 711 b 592 625 497 711 561 678 l 597 625 l 628 694 l 806 694 l 667 0 l 486 0 l 486 92 l 481 92 b 263 -17 417 22 336 -17 m 347 164 b 497 261 392 164 450 192 l 543 478 b 450 531 524 514 479 531 b 269 281 356 531 269 428 b 347 164 269 199 300 164 "},"b":{"ha":833,"x_min":0,"x_max":0,"o":"m 408 -17 b 228 69 333 -17 261 17 l 225 69 l 194 0 l 11 0 l 206 967 l 428 967 l 386 764 l 344 617 l 347 617 b 553 711 407 678 486 711 b 778 442 697 711 778 614 b 408 -17 778 186 600 -17 m 375 164 b 547 414 463 164 547 267 b 464 531 547 497 511 531 b 319 425 419 531 367 503 l 278 217 b 375 164 297 181 336 164 "},"c":{"ha":833,"x_min":0,"x_max":0,"o":"m 417 -17 b 81 286 236 -17 81 83 b 506 711 81 542 278 711 b 775 583 631 711 725 647 l 642 461 b 492 531 597 508 544 531 b 306 306 397 531 306 433 b 450 164 306 208 375 164 b 608 236 515 164 558 196 l 685 86 b 417 -17 617 22 528 -17 "},"d":{"ha":833,"x_min":0,"x_max":0,"o":"m 261 -17 b 39 253 125 -17 39 81 b 408 711 39 508 217 711 b 583 633 497 711 550 681 l 586 633 l 600 764 l 639 967 l 861 967 l 667 0 l 486 0 l 486 92 l 481 92 b 261 -17 417 22 336 -17 m 347 164 b 497 261 392 164 450 192 l 542 478 b 450 531 522 514 479 531 b 269 281 356 531 269 428 b 347 164 269 200 300 164 "},"e":{"ha":833,"x_min":0,"x_max":0,"o":"m 369 -17 b 56 294 192 -17 56 78 b 461 711 56 544 247 711 b 750 436 644 711 750 600 b 725 283 750 375 733 308 l 279 283 b 422 153 286 179 351 153 b 619 219 497 153 556 181 l 692 72 b 369 -17 606 14 494 -17 m 456 542 b 300 422 404 542 335 506 l 546 422 b 547 440 547 428 547 435 b 456 542 547 508 511 542 "},"f":{"ha":833,"x_min":0,"x_max":0,"o":"m 290 522 l 108 522 l 142 686 l 325 694 l 328 706 b 664 983 364 886 475 983 b 894 911 775 983 850 944 l 797 772 b 675 808 760 797 728 808 b 547 706 610 808 563 781 l 544 694 l 769 694 l 736 522 l 511 522 l 408 0 l 186 0 "},"g":{"ha":833,"x_min":0,"x_max":0,"o":"m 290 -261 b -3 -168 160 -261 68 -222 l 92 -14 b 285 -86 143 -58 215 -86 b 461 19 354 -86 431 -78 l 489 108 l 483 108 b 283 28 433 61 356 28 b 50 286 138 28 50 131 b 408 711 50 536 228 711 b 592 625 497 711 561 678 l 597 625 l 631 694 l 806 694 l 672 31 b 290 -261 626 -196 465 -261 m 364 208 b 500 278 411 208 458 232 l 542 475 b 446 531 517 511 485 531 b 281 319 375 531 281 456 b 364 208 281 242 308 208 "},"h":{"ha":833,"x_min":0,"x_max":0,"o":"m 206 967 l 428 967 l 375 711 l 339 589 l 344 589 b 583 711 408 658 499 711 b 764 531 697 711 764 650 b 753 431 764 500 760 464 l 667 0 l 444 0 l 525 403 b 535 465 531 428 535 449 b 478 522 535 504 514 522 b 314 414 432 522 368 486 l 233 0 l 11 0 "},"i":{"ha":833,"x_min":0,"x_max":0,"o":"m 472 -17 b 239 192 331 -17 239 64 b 253 278 239 219 244 247 l 317 522 l 97 522 l 133 694 l 575 694 l 472 269 b 467 236 469 258 467 247 b 542 164 467 185 497 164 b 642 189 572 164 600 172 l 686 22 b 472 -17 625 -3 561 -17 m 478 792 b 342 913 408 792 342 831 b 497 1058 342 990 410 1058 b 635 938 576 1058 635 1017 b 478 792 635 854 565 792 "},"j":{"ha":833,"x_min":0,"x_max":0,"o":"m 201 -261 b -36 -194 92 -261 14 -228 l 53 -39 b 186 -86 93 -67 133 -86 b 336 78 267 -86 311 -44 l 425 522 l 153 522 l 189 694 l 681 694 l 553 58 b 201 -261 511 -147 403 -261 m 586 792 b 450 913 517 792 450 831 b 606 1058 450 990 518 1058 b 743 938 685 1058 743 1017 b 586 792 743 854 674 792 "},"k":{"ha":833,"x_min":0,"x_max":0,"o":"m 208 967 l 431 967 l 322 439 l 328 439 l 603 694 l 858 694 l 549 406 l 736 0 l 511 0 l 397 271 l 267 158 l 236 0 l 14 0 "},"l":{"ha":833,"x_min":0,"x_max":0,"o":"m 453 -17 b 231 214 322 -17 231 69 b 242 306 231 242 233 272 l 356 794 l 169 794 l 206 967 l 611 967 l 456 275 b 450 228 453 264 450 250 b 522 164 450 183 483 164 b 631 192 563 164 586 172 l 675 28 b 453 -17 600 -6 533 -17 "},"m":{"ha":833,"x_min":0,"x_max":0,"o":"m 97 694 l 256 694 l 256 606 l 261 606 b 444 711 299 660 361 711 b 539 617 500 711 531 681 b 717 711 583 678 644 711 b 825 586 783 711 825 667 b 817 517 825 561 822 543 l 711 0 l 508 0 l 606 472 b 608 497 608 486 608 492 b 586 522 608 517 600 522 b 519 465 561 522 542 506 l 424 0 l 251 0 l 350 472 b 353 497 353 486 353 492 b 328 522 353 517 343 522 b 256 464 303 522 279 507 l 167 0 l -39 0 "},"n":{"ha":833,"x_min":0,"x_max":0,"o":"m 147 694 l 326 694 l 322 583 l 328 583 b 583 711 392 647 494 711 b 764 531 697 711 764 650 b 753 431 764 500 760 464 l 667 0 l 444 0 l 525 403 b 535 465 531 428 535 449 b 478 522 535 504 514 522 b 314 414 432 522 368 486 l 233 0 l 11 0 "},"o":{"ha":833,"x_min":0,"x_max":0,"o":"m 356 -17 b 42 294 161 -17 42 106 b 447 711 42 547 239 711 b 761 400 642 711 761 589 b 356 -17 761 147 564 -17 m 372 164 b 536 394 456 164 536 256 b 431 531 536 483 494 531 b 267 300 347 531 267 439 b 372 164 267 211 308 164 "},"p":{"ha":833,"x_min":0,"x_max":0,"o":"m 150 694 l 331 694 l 332 600 l 336 600 b 556 711 403 669 472 711 b 778 442 694 711 778 614 b 408 -17 778 186 631 -17 b 236 58 339 -17 272 11 l 233 58 l 217 -72 l 183 -244 l -39 -244 m 383 164 b 547 414 471 164 547 267 b 464 531 547 496 511 531 b 322 425 419 531 369 503 l 278 217 b 383 164 297 181 344 164 "},"q":{"ha":833,"x_min":0,"x_max":0,"o":"m 435 -67 b 486 92 442 -36 456 19 l 481 92 b 261 -17 417 22 333 -17 b 39 253 125 -17 39 81 b 408 711 39 508 217 711 b 592 625 497 711 561 678 l 597 625 l 631 694 l 806 694 l 617 -244 l 397 -244 m 347 164 b 497 261 392 164 450 192 l 542 478 b 450 531 522 514 479 531 b 269 281 356 531 269 428 b 347 164 269 200 300 164 "},"r":{"ha":833,"x_min":0,"x_max":0,"o":"m 225 696 l 406 694 l 389 514 l 394 514 b 672 711 467 639 572 711 b 808 683 733 711 783 700 l 731 492 b 628 514 700 507 667 514 b 369 286 542 514 444 428 l 311 0 l 89 0 "},"s":{"ha":833,"x_min":0,"x_max":0,"o":"m 367 -17 b 44 111 233 -17 122 33 l 165 250 b 403 147 239 178 322 147 b 483 186 456 147 483 161 b 364 261 483 217 461 231 b 144 478 225 306 144 369 b 450 711 144 631 289 711 b 744 597 586 711 678 663 l 624 468 b 425 547 568 513 494 547 b 353 506 382 547 353 535 b 489 428 353 478 383 464 b 692 217 611 386 692 331 b 367 -17 692 57 550 -17 "},"t":{"ha":833,"x_min":0,"x_max":0,"o":"m 431 -17 b 186 197 258 -17 186 67 b 197 289 186 225 189 250 l 244 522 l 69 522 l 103 686 l 289 694 l 364 903 l 544 903 l 500 694 l 778 694 l 744 522 l 464 522 l 417 300 b 411 250 411 275 411 264 b 500 164 411 186 449 164 b 644 214 553 164 606 189 l 711 60 b 431 -17 649 17 542 -17 "},"u":{"ha":833,"x_min":0,"x_max":0,"o":"m 225 -17 b 44 164 111 -17 44 44 b 56 264 44 194 49 231 l 142 694 l 364 694 l 283 292 b 272 231 278 267 272 247 b 331 172 272 192 294 172 b 489 281 376 172 435 208 l 569 694 l 792 694 l 656 0 l 475 0 l 481 111 l 475 111 b 225 -17 411 47 314 -17 "},"v":{"ha":833,"x_min":0,"x_max":0,"o":"m 89 694 l 308 694 l 344 375 b 363 161 353 306 357 235 l 368 161 b 469 375 399 232 435 306 l 628 694 l 847 694 l 464 0 l 206 0 "},"w":{"ha":833,"x_min":0,"x_max":0,"o":"m 67 694 l 278 694 l 243 385 b 221 175 235 315 226 246 l 226 175 b 299 385 247 246 271 318 l 376 592 l 526 592 l 525 385 b 518 175 524 315 522 246 l 524 175 b 582 385 546 246 563 315 l 667 694 l 869 694 l 636 0 l 390 0 l 400 214 b 418 415 403 278 411 339 l 413 415 b 354 211 393 340 382 296 l 285 0 l 29 0 "},"x":{"ha":833,"x_min":0,"x_max":0,"o":"m 275 360 l 118 694 l 340 694 l 388 586 b 431 471 401 554 419 503 l 436 471 b 504 586 453 500 486 560 l 579 694 l 825 694 l 528 343 l 699 0 l 471 0 l 422 108 b 376 215 408 140 393 178 l 368 215 b 290 107 340 176 314 139 l 214 0 l -32 0 "},"y":{"ha":833,"x_min":0,"x_max":0,"o":"m 67 -261 b -69 -225 14 -261 -42 -244 l -8 -75 b 81 -97 14 -86 53 -97 b 222 -25 150 -97 194 -72 l 240 6 l 89 694 l 303 694 l 347 425 b 375 203 358 356 369 261 l 381 203 b 486 425 406 261 450 356 l 625 694 l 850 694 l 456 0 b 67 -261 353 -181 236 -261 "},"z":{"ha":833,"x_min":0,"x_max":0,"o":"m 50 131 l 458 525 l 131 525 l 167 694 l 778 694 l 753 564 l 347 172 l 689 172 l 656 0 l 25 0 "},"À":{"ha":833,"x_min":0,"x_max":0,"o":"m 331 372 l 492 372 l 489 478 b 483 736 486 564 485 646 l 478 736 b 375 478 444 651 411 565 m 383 903 l 650 903 l 736 0 l 503 0 l 497 206 l 261 206 l 175 0 l -69 0 m 310 1119 l 461 1260 l 678 1039 l 553 931 "},"Á":{"ha":833,"x_min":0,"x_max":0,"o":"m 331 372 l 492 372 l 489 478 b 483 736 486 564 485 646 l 478 736 b 375 478 444 651 411 565 m 383 903 l 650 903 l 736 0 l 503 0 l 497 206 l 261 206 l 175 0 l -69 0 m 376 1072 l 664 1249 l 761 1086 l 461 944 "},"Â":{"ha":833,"x_min":0,"x_max":0,"o":"m 331 372 l 492 372 l 489 478 b 483 736 486 564 485 646 l 478 736 b 375 478 444 651 411 565 m 383 903 l 650 903 l 736 0 l 503 0 l 497 206 l 261 206 l 175 0 l -69 0 m 258 1014 l 425 1189 l 686 1189 l 792 1006 l 683 944 l 547 1069 l 542 1069 l 350 944 "},"Ã":{"ha":833,"x_min":0,"x_max":0,"o":"m 331 372 l 492 372 l 489 478 b 483 736 486 564 485 646 l 478 736 b 375 478 444 651 411 565 m 383 903 l 650 903 l 736 0 l 503 0 l 497 206 l 261 206 l 175 0 l -69 0 m 622 953 b 447 1025 525 953 486 1025 b 392 967 425 1025 406 1014 l 242 978 b 467 1189 278 1131 365 1189 b 642 1117 564 1189 603 1117 b 697 1175 664 1117 683 1128 l 847 1164 b 622 953 811 1011 724 953 "},"Ä":{"ha":833,"x_min":0,"x_max":0,"o":"m 331 372 l 492 372 l 489 478 b 483 736 486 564 485 646 l 478 736 b 375 478 444 651 411 565 m 383 903 l 650 903 l 736 0 l 503 0 l 497 206 l 261 206 l 175 0 l -69 0 m 381 967 b 292 1056 331 967 292 1000 b 406 1172 292 1111 339 1172 b 494 1083 453 1172 494 1139 b 381 967 494 1028 447 967 m 686 967 b 597 1056 636 967 597 1000 b 711 1172 597 1111 644 1172 b 800 1083 758 1172 800 1139 b 686 967 800 1028 753 967 "},"Ā":{"ha":833,"x_min":0,"x_max":0,"o":"m 331 372 l 492 372 l 489 478 b 483 736 486 564 485 646 l 478 736 b 375 478 444 651 411 565 m 383 903 l 650 903 l 736 0 l 503 0 l 497 206 l 261 206 l 175 0 l -69 0 m 350 1136 l 767 1136 l 739 994 l 322 994 "},"Ă":{"ha":833,"x_min":0,"x_max":0,"o":"m 331 372 l 492 372 l 489 478 b 483 736 486 564 485 646 l 478 736 b 375 478 444 651 411 565 m 383 903 l 650 903 l 736 0 l 503 0 l 497 206 l 261 206 l 175 0 l -69 0 m 522 964 b 314 1172 376 964 306 1029 l 447 1194 b 547 1100 449 1131 489 1100 b 675 1194 606 1100 649 1132 l 797 1172 b 522 964 758 1031 667 964 "},"Å":{"ha":833,"x_min":0,"x_max":0,"o":"m 331 372 l 492 372 l 489 478 b 483 736 486 564 485 646 l 478 736 b 375 478 444 651 411 565 m 383 903 l 650 903 l 736 0 l 503 0 l 497 206 l 261 206 l 175 0 l -69 0 m 542 967 b 383 1089 457 967 383 1003 b 564 1247 383 1175 465 1247 b 722 1125 646 1247 722 1208 b 542 967 722 1036 642 967 m 544 1050 b 606 1117 576 1050 606 1081 b 561 1164 606 1142 590 1164 b 500 1097 526 1164 500 1131 b 544 1050 500 1072 515 1050 "},"Ǻ":{"ha":833,"x_min":0,"x_max":0,"o":"m 331 372 l 492 372 l 489 478 b 483 736 486 564 485 646 l 478 736 b 375 478 444 651 411 565 m 383 903 l 650 903 l 736 0 l 503 0 l 497 206 l 261 206 l 175 0 l -69 0 m 542 967 b 383 1089 457 967 383 1003 b 450 1211 383 1138 410 1182 l 683 1422 l 783 1306 l 653 1229 b 722 1125 693 1211 722 1176 b 542 967 722 1036 642 967 m 544 1050 b 606 1117 576 1050 606 1081 b 561 1164 606 1142 590 1164 b 500 1097 526 1164 500 1131 b 544 1050 500 1072 515 1050 "},"Ǎ":{"ha":833,"x_min":0,"x_max":0,"o":"m 331 372 l 492 372 l 489 478 b 483 736 486 564 485 646 l 478 736 b 375 478 444 651 411 565 m 383 903 l 650 903 l 736 0 l 503 0 l 497 206 l 261 206 l 175 0 l -69 0 m 300 1156 l 408 1217 l 544 1092 l 550 1092 l 742 1217 l 833 1147 l 667 972 l 406 972 "},"Ą":{"ha":833,"x_min":0,"x_max":0,"o":"m 556 -317 b 411 -203 469 -317 411 -275 b 561 0 411 -106 506 -28 l 503 0 l 497 206 l 261 206 l 175 0 l -69 0 l 383 903 l 650 903 l 736 0 b 583 -131 656 -6 583 -75 b 639 -175 583 -158 608 -175 b 681 -164 653 -175 664 -172 l 722 -269 b 556 -317 678 -300 608 -317 m 331 372 l 492 372 l 489 478 b 483 736 486 564 483 644 l 478 736 b 375 478 443 647 413 565 "},"Ạ":{"ha":833,"x_min":0,"x_max":0,"o":"m 331 372 l 492 372 l 489 478 b 483 736 486 564 485 646 l 478 736 b 375 478 444 651 411 565 m 383 903 l 650 903 l 736 0 l 503 0 l 497 206 l 261 206 l 175 0 l -69 0 m 297 -356 b 161 -235 228 -356 161 -317 b 317 -89 161 -157 229 -89 b 454 -210 396 -89 454 -131 b 297 -356 454 -293 385 -356 "},"Ả":{"ha":833,"x_min":0,"x_max":0,"o":"m 331 372 l 492 372 l 489 478 b 483 736 486 564 485 646 l 478 736 b 375 478 444 651 411 565 m 383 903 l 650 903 l 736 0 l 503 0 l 497 206 l 261 206 l 175 0 l -69 0 m 435 1047 b 497 1081 467 1051 493 1058 b 396 1122 501 1103 476 1117 l 447 1239 b 671 1106 638 1233 686 1181 b 433 956 651 1006 549 961 "},"Ấ":{"ha":833,"x_min":0,"x_max":0,"o":"m 331 372 l 492 372 l 489 478 b 483 736 486 564 485 646 l 478 736 b 375 478 444 651 411 565 m 383 903 l 650 903 l 736 0 l 503 0 l 497 206 l 261 206 l 175 0 l -69 0 m 308 1006 l 456 1150 l 661 1150 l 758 1006 l 656 944 l 544 1044 l 539 1044 l 394 944 m 697 1140 l 858 1243 l 917 1143 l 753 1057 "},"Ầ":{"ha":833,"x_min":0,"x_max":0,"o":"m 331 372 l 492 372 l 489 478 b 483 736 486 564 485 646 l 478 736 b 375 478 444 651 411 565 m 383 903 l 650 903 l 736 0 l 503 0 l 497 206 l 261 206 l 175 0 l -69 0 m 308 1006 l 456 1150 l 661 1150 l 758 1006 l 656 944 l 544 1044 l 539 1044 l 394 944 m 167 1163 l 258 1249 l 379 1121 l 297 1050 "},"Ẩ":{"ha":833,"x_min":0,"x_max":0,"o":"m 331 372 l 492 372 l 489 478 b 483 736 486 564 485 646 l 478 736 b 375 478 444 651 411 565 m 383 903 l 650 903 l 736 0 l 503 0 l 497 206 l 261 206 l 175 0 l -69 0 m 308 1006 l 456 1150 l 661 1150 l 758 1006 l 656 944 l 544 1044 l 539 1044 l 394 944 m 736 1111 b 781 1144 758 1115 776 1122 b 700 1186 786 1167 771 1181 l 742 1281 b 935 1164 910 1275 947 1225 b 739 1039 918 1078 838 1044 "},"Ẫ":{"ha":833,"x_min":0,"x_max":0,"o":"m 331 372 l 492 372 l 489 478 b 483 736 486 564 485 646 l 478 736 b 375 478 444 651 411 565 m 383 903 l 650 903 l 736 0 l 503 0 l 497 206 l 261 206 l 175 0 l -69 0 m 308 1006 l 453 1136 l 658 1136 l 758 1006 l 653 944 l 542 1031 l 536 1031 l 392 944 m 642 1164 b 508 1222 569 1164 539 1222 b 458 1172 486 1222 469 1208 l 347 1186 b 514 1350 375 1304 436 1350 b 647 1292 586 1350 617 1292 b 697 1342 669 1292 686 1306 l 806 1328 b 642 1164 781 1210 719 1164 "},"Ậ":{"ha":833,"x_min":0,"x_max":0,"o":"m 331 372 l 492 372 l 489 478 b 483 736 486 564 485 646 l 478 736 b 375 478 444 651 411 565 m 383 903 l 650 903 l 736 0 l 503 0 l 497 206 l 261 206 l 175 0 l -69 0 m 258 1014 l 425 1189 l 686 1189 l 792 1006 l 683 944 l 547 1069 l 542 1069 l 350 944 m 297 -356 b 161 -235 228 -356 161 -317 b 317 -89 161 -157 229 -89 b 454 -210 396 -89 454 -131 b 297 -356 454 -293 385 -356 "},"Ắ":{"ha":833,"x_min":0,"x_max":0,"o":"m 331 372 l 492 372 l 489 478 b 483 736 486 564 485 646 l 478 736 b 375 478 444 651 411 565 m 383 903 l 650 903 l 736 0 l 503 0 l 497 206 l 261 206 l 175 0 l -69 0 m 522 964 b 319 1158 381 964 311 1025 l 439 1181 b 544 1086 443 1117 482 1086 b 683 1181 607 1086 657 1117 l 792 1158 b 522 964 756 1025 664 964 m 458 1207 l 628 1393 l 758 1293 l 561 1124 "},"Ằ":{"ha":833,"x_min":0,"x_max":0,"o":"m 331 372 l 492 372 l 489 478 b 483 736 486 564 485 646 l 478 736 b 375 478 444 651 411 565 m 383 903 l 650 903 l 736 0 l 503 0 l 497 206 l 261 206 l 175 0 l -69 0 m 522 964 b 319 1158 381 964 311 1025 l 439 1181 b 544 1086 443 1117 482 1086 b 683 1181 607 1086 657 1117 l 792 1158 b 522 964 756 1025 664 964 m 397 1317 l 561 1392 l 658 1183 l 528 1119 "},"Ẳ":{"ha":833,"x_min":0,"x_max":0,"o":"m 331 372 l 492 372 l 489 478 b 483 736 486 564 485 646 l 478 736 b 375 478 444 651 411 565 m 383 903 l 650 903 l 736 0 l 503 0 l 497 206 l 261 206 l 175 0 l -69 0 m 522 964 b 324 1158 381 964 313 1025 l 442 1181 b 546 1086 444 1117 483 1086 b 686 1181 608 1086 660 1117 l 796 1158 b 522 964 757 1025 664 964 m 500 1194 b 546 1228 524 1199 542 1206 b 465 1269 550 1250 535 1264 l 506 1364 b 700 1247 674 1358 711 1308 b 503 1122 683 1161 603 1128 "},"Ẵ":{"ha":833,"x_min":0,"x_max":0,"o":"m 331 372 l 492 372 l 489 478 b 483 736 486 564 485 646 l 478 736 b 375 478 444 651 411 565 m 383 903 l 650 903 l 736 0 l 503 0 l 497 206 l 261 206 l 175 0 l -69 0 m 522 972 b 325 1131 379 972 317 1031 l 439 1150 b 542 1083 446 1114 469 1083 b 667 1150 613 1083 647 1114 l 775 1131 b 522 972 744 1031 664 972 m 639 1178 b 503 1236 567 1178 533 1236 b 453 1186 481 1236 464 1222 l 344 1200 b 508 1364 369 1318 431 1364 b 644 1306 581 1364 614 1306 b 694 1356 667 1306 683 1319 l 803 1342 b 639 1178 776 1224 717 1178 "},"Ặ":{"ha":833,"x_min":0,"x_max":0,"o":"m 331 372 l 492 372 l 489 478 b 483 736 486 564 485 646 l 478 736 b 375 478 444 651 411 565 m 383 903 l 650 903 l 736 0 l 503 0 l 497 206 l 261 206 l 175 0 l -69 0 m 522 964 b 314 1172 376 964 306 1029 l 447 1194 b 547 1100 449 1131 489 1100 b 675 1194 606 1100 649 1132 l 797 1172 b 522 964 758 1031 667 964 m 297 -356 b 161 -235 228 -356 161 -317 b 317 -89 161 -157 229 -89 b 454 -210 396 -89 454 -131 b 297 -356 454 -293 385 -356 "},"Æ":{"ha":833,"x_min":0,"x_max":0,"o":"m 307 367 l 413 367 l 488 740 l 482 740 b 365 490 442 651 401 567 m 372 903 l 897 903 l 861 717 l 676 717 l 644 558 l 794 558 l 758 372 l 607 372 l 569 186 l 767 186 l 731 0 l 339 0 l 379 200 l 228 200 l 133 0 l -92 0 "},"Ǽ":{"ha":833,"x_min":0,"x_max":0,"o":"m 307 367 l 413 367 l 488 740 l 482 740 b 365 490 442 651 401 567 m 372 903 l 897 903 l 861 717 l 676 717 l 644 558 l 794 558 l 758 372 l 607 372 l 569 186 l 767 186 l 731 0 l 339 0 l 379 200 l 228 200 l 133 0 l -92 0 m 501 1072 l 789 1249 l 886 1086 l 586 944 "},"Ǣ":{"ha":833,"x_min":0,"x_max":0,"o":"m 307 367 l 413 367 l 488 740 l 482 740 b 365 490 442 651 401 567 m 372 903 l 897 903 l 861 717 l 676 717 l 644 558 l 794 558 l 758 372 l 607 372 l 569 186 l 767 186 l 731 0 l 339 0 l 379 200 l 228 200 l 133 0 l -92 0 m 475 1136 l 892 1136 l 864 994 l 447 994 "},"Ƀ":{"ha":833,"x_min":0,"x_max":0,"o":"m 81 242 l -24 242 l -4 338 l 101 346 l 213 904 l 514 904 b 794 726 683 904 794 860 b 606 510 794 632 735 540 l 604 504 b 750 317 694 485 750 424 b 340 0 750 104 563 0 l 32 0 m 354 157 b 543 326 478 157 543 222 b 418 426 543 396 507 426 l 336 426 l 319 346 l 458 346 l 438 242 l 299 242 l 282 157 m 426 556 b 576 678 532 556 576 604 b 463 747 576 726 539 747 l 400 747 l 363 556 "},"Ḇ":{"ha":833,"x_min":0,"x_max":0,"o":"m 208 903 l 481 903 b 794 694 664 903 794 842 b 600 469 794 597 725 508 l 597 464 b 750 300 700 439 750 383 b 353 0 750 83 564 0 l 28 0 m 417 542 b 567 656 525 542 567 586 b 444 733 567 706 528 733 l 397 733 l 358 542 m 369 169 b 536 292 481 169 536 217 b 414 392 536 358 497 392 l 328 392 l 283 169 m 122 -131 l 531 -131 l 503 -269 l 94 -269 "},"Ç":{"ha":833,"x_min":0,"x_max":0,"o":"m 206 -247 b 356 -189 311 -242 347 -228 b 258 -133 358 -164 342 -144 l 346 -6 b 92 367 190 32 92 163 b 578 919 92 689 311 919 b 825 772 683 919 772 867 l 675 656 b 567 728 642 706 608 728 b 319 381 436 728 319 575 b 492 175 319 250 369 175 b 631 239 539 175 589 203 l 722 97 b 476 -15 676 54 589 -6 l 433 -83 b 525 -189 503 -100 533 -131 b 206 -339 506 -289 392 -333 "},"Ć":{"ha":833,"x_min":0,"x_max":0,"o":"m 444 -17 b 92 367 233 -17 92 122 b 578 919 92 689 311 919 b 825 772 683 919 772 867 l 675 656 b 567 728 642 706 608 728 b 319 381 436 728 319 575 b 492 175 319 250 369 175 b 631 239 539 175 589 203 l 722 97 b 444 -17 672 50 572 -17 m 446 1072 l 733 1249 l 831 1086 l 531 944 "},"Ĉ":{"ha":833,"x_min":0,"x_max":0,"o":"m 444 -17 b 92 367 233 -17 92 122 b 578 919 92 689 311 919 b 825 772 683 919 772 867 l 675 656 b 567 728 642 706 608 728 b 319 381 436 728 319 575 b 492 175 319 250 369 175 b 631 239 539 175 589 203 l 722 97 b 444 -17 672 50 572 -17 m 328 1014 l 494 1189 l 756 1189 l 861 1006 l 753 944 l 617 1069 l 611 1069 l 419 944 "},"Č":{"ha":833,"x_min":0,"x_max":0,"o":"m 444 -17 b 92 367 233 -17 92 122 b 578 919 92 689 311 919 b 825 772 683 919 772 867 l 675 656 b 567 728 642 706 608 728 b 319 381 436 728 319 575 b 492 175 319 250 369 175 b 631 239 539 175 589 203 l 722 97 b 444 -17 672 50 572 -17 m 369 1156 l 478 1217 l 614 1092 l 619 1092 l 811 1217 l 903 1147 l 736 972 l 475 972 "},"Ċ":{"ha":833,"x_min":0,"x_max":0,"o":"m 444 -17 b 92 367 233 -17 92 122 b 578 919 92 689 311 919 b 825 772 683 919 772 867 l 675 656 b 567 728 642 706 608 728 b 319 381 436 728 319 575 b 492 175 319 250 369 175 b 631 239 539 175 589 203 l 722 97 b 444 -17 672 50 572 -17 m 608 969 b 492 1072 550 969 492 1003 b 625 1197 492 1139 550 1197 b 742 1094 683 1197 742 1161 b 608 969 742 1022 683 969 "},"Ď":{"ha":833,"x_min":0,"x_max":0,"o":"m 192 903 l 403 903 b 789 547 642 903 789 792 b 308 0 789 181 578 0 l 11 0 m 303 178 b 561 533 439 178 561 272 b 397 725 561 675 489 725 l 378 725 l 269 178 m 300 1156 l 408 1217 l 544 1092 l 550 1092 l 742 1217 l 833 1147 l 667 972 l 406 972 "},"Ḍ":{"ha":833,"x_min":0,"x_max":0,"o":"m 192 903 l 403 903 b 789 547 642 903 789 792 b 308 0 789 181 578 0 l 11 0 m 303 178 b 561 533 439 178 561 272 b 397 725 561 675 489 725 l 378 725 l 269 178 m 269 -356 b 133 -235 200 -356 133 -317 b 289 -89 133 -157 201 -89 b 426 -210 368 -89 426 -131 b 269 -356 426 -293 357 -356 "},"Ḏ":{"ha":833,"x_min":0,"x_max":0,"o":"m 192 903 l 403 903 b 789 547 642 903 789 792 b 308 0 789 181 578 0 l 11 0 m 303 178 b 561 533 439 178 561 272 b 397 725 561 675 489 725 l 378 725 l 269 178 m 94 -131 l 503 -131 l 475 -269 l 67 -269 "},"Ḑ":{"ha":833,"x_min":0,"x_max":0,"o":"m 303 178 b 561 533 439 178 561 272 b 397 725 561 675 489 725 l 378 725 l 269 178 m 111 -247 b 261 -189 217 -242 253 -228 b 164 -133 264 -164 247 -144 l 256 0 l 11 0 l 192 903 l 403 903 b 789 547 642 903 789 792 b 396 7 789 222 622 43 l 339 -83 b 431 -189 408 -100 439 -131 b 111 -339 411 -289 297 -333 "},"Đ":{"ha":833,"x_min":0,"x_max":0,"o":"m 94 414 l -3 414 l 17 511 l 115 519 l 192 903 l 403 903 b 789 547 642 903 789 792 b 308 0 789 181 578 0 l 11 0 m 303 178 b 561 533 439 178 561 272 b 397 725 561 675 489 725 l 378 725 l 338 519 l 481 519 l 458 414 l 317 414 l 269 178 "},"Ɗ":{"ha":833,"x_min":0,"x_max":0,"o":"m 288 732 b 169 575 204 708 169 647 b 217 486 169 536 186 508 l 108 353 b 0 542 39 392 0 450 b 461 921 0 736 150 921 b 842 603 694 921 842 824 b 303 0 842 225 606 0 l 144 0 m 381 178 b 614 589 451 178 614 314 b 488 742 614 696 581 739 l 375 178 "},"È":{"ha":833,"x_min":0,"x_max":0,"o":"m 222 903 l 825 903 l 789 717 l 406 717 l 375 558 l 694 558 l 658 372 l 339 372 l 300 186 l 694 186 l 658 0 l 42 0 m 332 1119 l 483 1260 l 700 1039 l 575 931 "},"É":{"ha":833,"x_min":0,"x_max":0,"o":"m 222 903 l 825 903 l 789 717 l 406 717 l 375 558 l 694 558 l 658 372 l 339 372 l 300 186 l 694 186 l 658 0 l 42 0 m 399 1072 l 686 1249 l 783 1086 l 483 944 "},"Ê":{"ha":833,"x_min":0,"x_max":0,"o":"m 222 903 l 825 903 l 789 717 l 406 717 l 375 558 l 694 558 l 658 372 l 339 372 l 300 186 l 694 186 l 658 0 l 42 0 m 281 1014 l 447 1189 l 708 1189 l 814 1006 l 706 944 l 569 1069 l 564 1069 l 372 944 "},"Ě":{"ha":833,"x_min":0,"x_max":0,"o":"m 222 903 l 825 903 l 789 717 l 406 717 l 375 558 l 694 558 l 658 372 l 339 372 l 300 186 l 694 186 l 658 0 l 42 0 m 322 1156 l 431 1217 l 567 1092 l 572 1092 l 764 1217 l 856 1147 l 689 972 l 428 972 "},"Ë":{"ha":833,"x_min":0,"x_max":0,"o":"m 222 903 l 825 903 l 789 717 l 406 717 l 375 558 l 694 558 l 658 372 l 339 372 l 300 186 l 694 186 l 658 0 l 42 0 m 403 967 b 314 1056 353 967 314 1000 b 428 1172 314 1111 361 1172 b 517 1083 475 1172 517 1139 b 403 967 517 1028 469 967 m 708 967 b 619 1056 658 967 619 1000 b 733 1172 619 1111 667 1172 b 822 1083 781 1172 822 1139 b 708 967 822 1028 775 967 "},"Ē":{"ha":833,"x_min":0,"x_max":0,"o":"m 222 903 l 825 903 l 789 717 l 406 717 l 375 558 l 694 558 l 658 372 l 339 372 l 300 186 l 694 186 l 658 0 l 42 0 m 372 1136 l 789 1136 l 761 994 l 344 994 "},"Ĕ":{"ha":833,"x_min":0,"x_max":0,"o":"m 222 903 l 825 903 l 789 717 l 406 717 l 375 558 l 694 558 l 658 372 l 339 372 l 300 186 l 694 186 l 658 0 l 42 0 m 544 964 b 336 1172 399 964 328 1029 l 469 1194 b 569 1100 471 1131 511 1100 b 697 1194 628 1100 671 1132 l 819 1172 b 544 964 781 1031 689 964 "},"Ė":{"ha":833,"x_min":0,"x_max":0,"o":"m 222 903 l 825 903 l 789 717 l 406 717 l 375 558 l 694 558 l 658 372 l 339 372 l 300 186 l 694 186 l 658 0 l 42 0 m 561 969 b 444 1072 503 969 444 1003 b 578 1197 444 1139 503 1197 b 694 1094 636 1197 694 1161 b 561 969 694 1022 636 969 "},"Ę":{"ha":833,"x_min":0,"x_max":0,"o":"m 475 -317 b 331 -203 389 -317 331 -275 b 489 0 331 -106 422 -33 l 42 0 l 222 903 l 825 903 l 789 717 l 406 717 l 375 558 l 694 558 l 658 372 l 339 372 l 300 186 l 694 186 l 658 0 l 656 0 b 503 -131 592 0 503 -67 b 558 -175 503 -158 528 -175 b 600 -164 572 -175 583 -172 l 642 -269 b 475 -317 597 -300 528 -317 "},"Ẹ":{"ha":833,"x_min":0,"x_max":0,"o":"m 222 903 l 825 903 l 789 717 l 406 717 l 375 558 l 694 558 l 658 372 l 339 372 l 300 186 l 694 186 l 658 0 l 42 0 m 311 -356 b 175 -235 242 -356 175 -317 b 331 -89 175 -157 243 -89 b 468 -210 410 -89 468 -131 b 311 -356 468 -293 399 -356 "},"Ẻ":{"ha":833,"x_min":0,"x_max":0,"o":"m 222 903 l 825 903 l 789 717 l 406 717 l 375 558 l 694 558 l 658 372 l 339 372 l 300 186 l 694 186 l 658 0 l 42 0 m 457 1047 b 519 1081 489 1051 515 1058 b 418 1122 524 1103 499 1117 l 469 1239 b 693 1106 660 1233 708 1181 b 456 956 674 1006 571 961 "},"Ẽ":{"ha":833,"x_min":0,"x_max":0,"o":"m 222 903 l 825 903 l 789 717 l 406 717 l 375 558 l 694 558 l 658 372 l 339 372 l 300 186 l 694 186 l 658 0 l 42 0 m 644 953 b 469 1025 547 953 508 1025 b 414 967 447 1025 428 1014 l 264 978 b 489 1189 300 1131 388 1189 b 664 1117 586 1189 625 1117 b 719 1175 686 1117 706 1128 l 869 1164 b 644 953 833 1011 746 953 "},"Ế":{"ha":833,"x_min":0,"x_max":0,"o":"m 222 903 l 825 903 l 789 717 l 406 717 l 375 558 l 694 558 l 658 372 l 339 372 l 300 186 l 694 186 l 658 0 l 42 0 m 331 1006 l 478 1150 l 683 1150 l 781 1006 l 678 944 l 567 1044 l 561 1044 l 417 944 m 719 1140 l 881 1243 l 939 1143 l 775 1057 "},"Ề":{"ha":833,"x_min":0,"x_max":0,"o":"m 222 903 l 825 903 l 789 717 l 406 717 l 375 558 l 694 558 l 658 372 l 339 372 l 300 186 l 694 186 l 658 0 l 42 0 m 331 1006 l 478 1150 l 683 1150 l 781 1006 l 678 944 l 567 1044 l 561 1044 l 417 944 m 189 1163 l 281 1249 l 401 1121 l 319 1050 "},"Ể":{"ha":833,"x_min":0,"x_max":0,"o":"m 222 903 l 825 903 l 789 717 l 406 717 l 375 558 l 694 558 l 658 372 l 339 372 l 300 186 l 694 186 l 658 0 l 42 0 m 331 1006 l 478 1150 l 683 1150 l 781 1006 l 678 944 l 567 1044 l 561 1044 l 417 944 m 758 1111 b 803 1144 781 1115 799 1122 b 722 1186 808 1167 793 1181 l 764 1281 b 957 1164 932 1275 969 1225 b 761 1039 940 1078 860 1044 "},"Ễ":{"ha":833,"x_min":0,"x_max":0,"o":"m 222 903 l 825 903 l 789 717 l 406 717 l 375 558 l 694 558 l 658 372 l 339 372 l 300 186 l 694 186 l 658 0 l 42 0 m 331 1006 l 475 1136 l 681 1136 l 781 1006 l 675 944 l 564 1031 l 558 1031 l 414 944 m 664 1164 b 531 1222 592 1164 561 1222 b 481 1172 508 1222 492 1208 l 369 1186 b 536 1350 397 1304 458 1350 b 669 1292 608 1350 639 1292 b 719 1342 692 1292 708 1306 l 828 1328 b 664 1164 803 1210 742 1164 "},"Ệ":{"ha":833,"x_min":0,"x_max":0,"o":"m 222 903 l 825 903 l 789 717 l 406 717 l 375 558 l 694 558 l 658 372 l 339 372 l 300 186 l 694 186 l 658 0 l 42 0 m 281 1014 l 447 1189 l 708 1189 l 814 1006 l 706 944 l 569 1069 l 564 1069 l 372 944 m 311 -356 b 175 -235 242 -356 175 -317 b 331 -89 175 -157 243 -89 b 468 -210 410 -89 468 -131 b 311 -356 468 -293 399 -356 "},"Ḗ":{"ha":833,"x_min":0,"x_max":0,"o":"m 222 903 l 825 903 l 789 717 l 406 717 l 375 558 l 694 558 l 658 372 l 339 372 l 300 186 l 694 186 l 658 0 l 42 0 m 372 1136 l 789 1136 l 761 994 l 344 994 m 519 1221 l 690 1421 l 821 1321 l 611 1151 "},"Ǵ":{"ha":833,"x_min":0,"x_max":0,"o":"m 406 -17 b 56 367 190 -17 56 122 b 539 919 56 689 268 919 b 800 772 658 919 747 867 l 650 656 b 528 728 617 706 581 728 b 283 381 393 728 283 575 b 444 172 283 250 329 172 b 522 194 471 172 501 181 l 556 344 l 422 344 l 456 525 l 783 525 l 697 78 b 406 -17 628 25 522 -17 m 401 1072 l 689 1249 l 786 1086 l 486 944 "},"Ĝ":{"ha":833,"x_min":0,"x_max":0,"o":"m 406 -17 b 56 367 190 -17 56 122 b 539 919 56 689 268 919 b 800 772 658 919 747 867 l 650 656 b 528 728 617 706 581 728 b 283 381 393 728 283 575 b 444 172 283 250 329 172 b 522 194 471 172 501 181 l 556 344 l 422 344 l 456 525 l 783 525 l 697 78 b 406 -17 628 25 522 -17 m 283 1014 l 450 1189 l 711 1189 l 817 1006 l 708 944 l 572 1069 l 567 1069 l 375 944 "},"Ğ":{"ha":833,"x_min":0,"x_max":0,"o":"m 406 -17 b 56 367 190 -17 56 122 b 539 919 56 689 268 919 b 800 772 658 919 747 867 l 650 656 b 528 728 617 706 581 728 b 283 381 393 728 283 575 b 444 172 283 250 329 172 b 522 194 471 172 501 181 l 556 344 l 422 344 l 456 525 l 783 525 l 697 78 b 406 -17 628 25 522 -17 m 547 964 b 339 1172 401 964 331 1029 l 472 1194 b 572 1100 474 1131 514 1100 b 700 1194 631 1100 674 1132 l 822 1172 b 547 964 783 1031 692 964 "},"Ġ":{"ha":833,"x_min":0,"x_max":0,"o":"m 406 -17 b 56 367 190 -17 56 122 b 539 919 56 689 268 919 b 800 772 658 919 747 867 l 650 656 b 528 728 617 706 581 728 b 283 381 393 728 283 575 b 444 172 283 250 329 172 b 522 194 471 172 501 181 l 556 344 l 422 344 l 456 525 l 783 525 l 697 78 b 406 -17 628 25 522 -17 m 564 969 b 447 1072 506 969 447 1003 b 581 1197 447 1139 506 1197 b 697 1094 639 1197 697 1161 b 564 969 697 1022 639 969 "},"Ģ":{"ha":833,"x_min":0,"x_max":0,"o":"m 406 -17 b 56 367 190 -17 56 122 b 539 919 56 689 268 919 b 800 772 658 919 747 867 l 650 656 b 528 728 617 706 581 728 b 283 381 393 728 283 575 b 444 172 283 250 329 172 b 522 194 471 172 501 181 l 556 344 l 422 344 l 456 525 l 783 525 l 697 78 b 406 -17 628 25 522 -17 m 211 -247 b 357 -192 318 -242 357 -222 b 282 -153 357 -175 342 -153 l 343 -69 b 531 -172 497 -75 531 -118 b 207 -339 531 -286 392 -333 "},"Ǧ":{"ha":833,"x_min":0,"x_max":0,"o":"m 406 -17 b 56 367 190 -17 56 122 b 539 919 56 689 268 919 b 800 772 658 919 747 867 l 650 656 b 528 728 617 706 581 728 b 283 381 393 728 283 575 b 444 172 283 250 329 172 b 522 194 471 172 501 181 l 556 344 l 422 344 l 456 525 l 783 525 l 697 78 b 406 -17 628 25 522 -17 m 325 1156 l 433 1217 l 569 1092 l 575 1092 l 767 1217 l 858 1147 l 692 972 l 431 972 "},"Ḡ":{"ha":833,"x_min":0,"x_max":0,"o":"m 406 -17 b 56 367 190 -17 56 122 b 539 919 56 689 268 919 b 800 772 658 919 747 867 l 650 656 b 528 728 617 706 581 728 b 283 381 393 728 283 575 b 444 172 283 250 329 172 b 522 194 471 172 501 181 l 556 344 l 422 344 l 456 525 l 783 525 l 697 78 b 406 -17 628 25 522 -17 m 375 1136 l 792 1136 l 764 994 l 347 994 "},"Ɠ":{"ha":833,"x_min":0,"x_max":0,"o":"m 650 656 b 528 728 617 706 581 728 b 283 381 393 728 283 575 b 444 172 283 250 329 172 b 522 194 471 172 501 181 l 556 344 l 422 344 l 456 525 l 783 525 l 697 78 b 406 -17 628 25 522 -17 b 56 367 190 -17 56 122 b 539 919 56 689 268 919 b 589 917 557 919 574 918 b 589 928 589 919 589 924 b 808 1139 589 1036 672 1139 b 950 1106 867 1139 917 1122 l 881 953 b 839 967 864 964 853 967 b 767 892 800 967 767 943 b 800 772 767 842 783 808 "},"Ĥ":{"ha":833,"x_min":0,"x_max":0,"o":"m 178 903 l 400 903 l 331 564 l 553 564 l 619 903 l 842 903 l 661 0 l 439 0 l 514 369 l 292 369 l 219 0 l -3 0 m 258 1014 l 425 1189 l 686 1189 l 792 1006 l 683 944 l 547 1069 l 542 1069 l 350 944 "},"Ḧ":{"ha":833,"x_min":0,"x_max":0,"o":"m 178 903 l 400 903 l 331 564 l 553 564 l 619 903 l 842 903 l 661 0 l 439 0 l 514 369 l 292 369 l 219 0 l -3 0 m 381 967 b 292 1056 331 967 292 1000 b 406 1172 292 1111 339 1172 b 494 1083 453 1172 494 1139 b 381 967 494 1028 447 967 m 686 967 b 597 1056 636 967 597 1000 b 711 1172 597 1111 644 1172 b 800 1083 758 1172 800 1139 b 686 967 800 1028 753 967 "},"Ḥ":{"ha":833,"x_min":0,"x_max":0,"o":"m 178 903 l 400 903 l 331 564 l 553 564 l 619 903 l 842 903 l 661 0 l 439 0 l 514 369 l 292 369 l 219 0 l -3 0 m 275 -356 b 139 -235 206 -356 139 -317 b 294 -89 139 -157 207 -89 b 432 -210 374 -89 432 -131 b 275 -356 432 -293 363 -356 "},"Ḩ":{"ha":833,"x_min":0,"x_max":0,"o":"m 178 903 l 400 903 l 331 564 l 553 564 l 619 903 l 842 903 l 661 0 l 439 0 l 514 369 l 292 369 l 219 0 l 189 0 l 136 -83 b 228 -189 206 -100 236 -131 b -92 -339 208 -289 94 -333 l -92 -247 b 58 -189 14 -242 50 -228 b -39 -133 61 -164 44 -144 l 53 0 l -3 0 "},"Ḫ":{"ha":833,"x_min":0,"x_max":0,"o":"m 178 903 l 400 903 l 331 564 l 553 564 l 619 903 l 842 903 l 661 0 l 439 0 l 514 369 l 292 369 l 219 0 l -3 0 m 267 -325 b 64 -103 104 -325 44 -233 l 203 -81 b 294 -178 200 -136 228 -178 b 419 -81 361 -178 400 -136 l 547 -103 b 267 -325 522 -233 431 -325 "},"Ħ":{"ha":833,"x_min":0,"x_max":0,"o":"m 69 769 l 153 778 l 178 903 l 400 903 l 375 778 l 594 778 l 619 903 l 842 903 l 817 778 l 900 778 l 878 672 l 796 672 l 661 0 l 439 0 l 514 369 l 292 369 l 219 0 l -3 0 l 132 672 l 50 672 m 553 564 l 574 672 l 353 672 l 331 564 "},"Ì":{"ha":833,"x_min":0,"x_max":0,"o":"m 50 186 l 256 186 l 364 717 l 156 717 l 194 903 l 831 903 l 792 717 l 586 717 l 478 186 l 686 186 l 647 0 l 11 0 m 310 1119 l 461 1260 l 678 1039 l 553 931 "},"Í":{"ha":833,"x_min":0,"x_max":0,"o":"m 50 186 l 256 186 l 364 717 l 156 717 l 194 903 l 831 903 l 792 717 l 586 717 l 478 186 l 686 186 l 647 0 l 11 0 m 376 1072 l 664 1249 l 761 1086 l 461 944 "},"Î":{"ha":833,"x_min":0,"x_max":0,"o":"m 50 186 l 256 186 l 364 717 l 156 717 l 194 903 l 831 903 l 792 717 l 586 717 l 478 186 l 686 186 l 647 0 l 11 0 m 258 1014 l 425 1189 l 686 1189 l 792 1006 l 683 944 l 547 1069 l 542 1069 l 350 944 "},"Ĩ":{"ha":833,"x_min":0,"x_max":0,"o":"m 50 186 l 256 186 l 364 717 l 156 717 l 194 903 l 831 903 l 792 717 l 586 717 l 478 186 l 686 186 l 647 0 l 11 0 m 622 953 b 447 1025 525 953 486 1025 b 392 967 425 1025 406 1014 l 242 978 b 467 1189 278 1131 365 1189 b 642 1117 564 1189 603 1117 b 697 1175 664 1117 683 1128 l 847 1164 b 622 953 811 1011 724 953 "},"Ï":{"ha":833,"x_min":0,"x_max":0,"o":"m 50 186 l 256 186 l 364 717 l 156 717 l 194 903 l 831 903 l 792 717 l 586 717 l 478 186 l 686 186 l 647 0 l 11 0 m 381 967 b 292 1056 331 967 292 1000 b 406 1172 292 1111 339 1172 b 494 1083 453 1172 494 1139 b 381 967 494 1028 447 967 m 686 967 b 597 1056 636 967 597 1000 b 711 1172 597 1111 644 1172 b 800 1083 758 1172 800 1139 b 686 967 800 1028 753 967 "},"Ī":{"ha":833,"x_min":0,"x_max":0,"o":"m 50 186 l 256 186 l 364 717 l 156 717 l 194 903 l 831 903 l 792 717 l 586 717 l 478 186 l 686 186 l 647 0 l 11 0 m 350 1136 l 767 1136 l 739 994 l 322 994 "},"İ":{"ha":833,"x_min":0,"x_max":0,"o":"m 50 186 l 256 186 l 364 717 l 156 717 l 194 903 l 831 903 l 792 717 l 586 717 l 478 186 l 686 186 l 647 0 l 11 0 m 539 969 b 422 1072 481 969 422 1003 b 556 1197 422 1139 481 1197 b 672 1094 614 1197 672 1161 b 539 969 672 1022 614 969 "},"Ǐ":{"ha":833,"x_min":0,"x_max":0,"o":"m 50 186 l 256 186 l 364 717 l 156 717 l 194 903 l 831 903 l 792 717 l 586 717 l 478 186 l 686 186 l 647 0 l 11 0 m 300 1156 l 408 1217 l 544 1092 l 550 1092 l 742 1217 l 833 1147 l 667 972 l 406 972 "},"Į":{"ha":833,"x_min":0,"x_max":0,"o":"m 300 -317 b 156 -203 214 -317 156 -275 b 300 0 156 -110 247 -31 l 11 0 l 50 186 l 256 186 l 364 717 l 156 717 l 194 903 l 831 903 l 792 717 l 586 717 l 478 186 l 686 186 l 647 0 l 458 0 b 328 -131 367 -33 328 -94 b 383 -175 328 -158 353 -175 b 425 -164 397 -175 408 -172 l 467 -269 b 300 -317 422 -300 353 -317 "},"Ỉ":{"ha":833,"x_min":0,"x_max":0,"o":"m 50 186 l 256 186 l 364 717 l 156 717 l 194 903 l 831 903 l 792 717 l 586 717 l 478 186 l 686 186 l 647 0 l 11 0 m 435 1047 b 497 1081 467 1051 493 1058 b 396 1122 501 1103 476 1117 l 447 1239 b 671 1106 638 1233 686 1181 b 433 956 651 1006 549 961 "},"Ị":{"ha":833,"x_min":0,"x_max":0,"o":"m 50 186 l 256 186 l 364 717 l 156 717 l 194 903 l 831 903 l 792 717 l 586 717 l 478 186 l 686 186 l 647 0 l 11 0 m 275 -356 b 139 -235 206 -356 139 -317 b 294 -89 139 -157 207 -89 b 432 -210 374 -89 432 -131 b 275 -356 432 -293 363 -356 "},"Ĭ":{"ha":833,"x_min":0,"x_max":0,"o":"m 50 186 l 256 186 l 364 717 l 156 717 l 194 903 l 831 903 l 792 717 l 586 717 l 478 186 l 686 186 l 647 0 l 11 0 m 522 964 b 314 1172 376 964 306 1029 l 447 1194 b 547 1100 449 1131 489 1100 b 675 1194 606 1100 649 1132 l 797 1172 b 522 964 758 1031 667 964 "},"Ĵ":{"ha":833,"x_min":0,"x_max":0,"o":"m 317 -17 b 3 144 158 -17 67 56 l 144 278 b 317 175 186 222 239 175 b 478 344 411 175 453 222 l 553 717 l 206 717 l 242 903 l 808 903 l 686 294 b 317 -17 650 114 533 -17 m 286 1014 l 453 1189 l 714 1189 l 819 1006 l 711 944 l 575 1069 l 569 1069 l 378 944 "},"Ķ":{"ha":833,"x_min":0,"x_max":0,"o":"m 550 531 l 747 0 l 494 0 l 385 356 l 272 236 l 225 0 l 6 0 l 186 903 l 407 903 l 331 531 l 336 531 l 658 903 l 900 903 m 169 -247 b 315 -192 276 -242 315 -222 b 240 -153 315 -175 300 -153 l 301 -69 b 489 -172 456 -75 489 -118 b 165 -339 489 -286 350 -333 "},"Ḳ":{"ha":833,"x_min":0,"x_max":0,"o":"m 550 531 l 747 0 l 494 0 l 385 356 l 272 236 l 225 0 l 6 0 l 186 903 l 407 903 l 331 531 l 336 531 l 658 903 l 900 903 m 317 -356 b 181 -235 247 -356 181 -317 b 336 -89 181 -157 249 -89 b 474 -210 415 -89 474 -131 b 317 -356 474 -293 404 -356 "},"Ḵ":{"ha":833,"x_min":0,"x_max":0,"o":"m 550 531 l 747 0 l 494 0 l 385 356 l 272 236 l 225 0 l 6 0 l 186 903 l 407 903 l 331 531 l 336 531 l 658 903 l 900 903 m 142 -131 l 550 -131 l 522 -269 l 114 -269 "},"Ĺ":{"ha":833,"x_min":0,"x_max":0,"o":"m 253 903 l 475 903 l 331 186 l 719 186 l 683 0 l 72 0 m 232 1072 l 519 1249 l 617 1086 l 317 944 "},"Ľ":{"ha":833,"x_min":0,"x_max":0,"o":"m 253 903 l 475 903 l 331 186 l 719 186 l 683 0 l 72 0 m 644 1089 l 850 1089 l 817 944 l 722 706 l 581 706 "},"Ļ":{"ha":833,"x_min":0,"x_max":0,"o":"m 253 903 l 475 903 l 331 186 l 719 186 l 683 0 l 72 0 m 192 -247 b 338 -192 299 -242 338 -222 b 263 -153 338 -175 322 -153 l 324 -69 b 511 -172 478 -75 511 -118 b 188 -339 511 -286 372 -333 "},"Ḷ":{"ha":833,"x_min":0,"x_max":0,"o":"m 253 903 l 475 903 l 331 186 l 719 186 l 683 0 l 72 0 m 339 -356 b 203 -235 269 -356 203 -317 b 358 -89 203 -157 271 -89 b 496 -210 438 -89 496 -131 b 339 -356 496 -293 426 -356 "},"Ḹ":{"ha":833,"x_min":0,"x_max":0,"o":"m 253 903 l 475 903 l 331 186 l 719 186 l 683 0 l 72 0 m 206 1136 l 622 1136 l 594 994 l 178 994 m 339 -356 b 203 -235 269 -356 203 -317 b 358 -89 203 -157 271 -89 b 496 -210 438 -89 496 -131 b 339 -356 496 -293 426 -356 "},"Ḻ":{"ha":833,"x_min":0,"x_max":0,"o":"m 253 903 l 475 903 l 331 186 l 719 186 l 683 0 l 72 0 m 164 -131 l 572 -131 l 544 -269 l 136 -269 "},"Ł":{"ha":833,"x_min":0,"x_max":0,"o":"m -7 369 l 163 453 l 253 903 l 475 903 l 407 568 l 663 697 l 715 556 l 371 383 l 331 186 l 719 186 l 683 0 l 72 0 l 126 268 l 46 228 "},"Ŀ":{"ha":833,"x_min":0,"x_max":0,"o":"m 253 903 l 475 903 l 331 186 l 719 186 l 683 0 l 72 0 m 672 367 b 536 488 603 367 536 406 b 692 633 536 565 604 633 b 829 513 771 633 829 592 b 672 367 829 429 760 367 "},"Ḿ":{"ha":833,"x_min":0,"x_max":0,"o":"m 172 903 l 400 903 l 417 608 l 419 469 l 425 469 l 475 603 l 622 903 l 850 903 l 669 0 l 481 0 l 533 261 b 650 689 553 358 621 588 l 644 689 l 529 433 l 439 242 l 317 242 l 303 411 l 290 689 l 285 689 b 236 294 272 564 253 378 l 175 0 l -8 0 m 376 1072 l 664 1249 l 761 1086 l 461 944 "},"Ṁ":{"ha":833,"x_min":0,"x_max":0,"o":"m 172 903 l 400 903 l 417 608 l 419 469 l 425 469 l 475 603 l 622 903 l 850 903 l 669 0 l 481 0 l 533 261 b 650 689 553 358 621 588 l 644 689 l 529 433 l 439 242 l 317 242 l 303 411 l 290 689 l 285 689 b 236 294 272 564 253 378 l 175 0 l -8 0 m 539 969 b 422 1072 481 969 422 1003 b 556 1197 422 1139 481 1197 b 672 1094 614 1197 672 1161 b 539 969 672 1022 614 969 "},"Ṃ":{"ha":833,"x_min":0,"x_max":0,"o":"m 172 903 l 400 903 l 417 608 l 419 469 l 425 469 l 475 603 l 622 903 l 850 903 l 669 0 l 481 0 l 533 261 b 650 689 553 358 621 588 l 644 689 l 529 433 l 439 242 l 317 242 l 303 411 l 290 689 l 285 689 b 236 294 272 564 253 378 l 175 0 l -8 0 m 275 -356 b 139 -235 206 -356 139 -317 b 294 -89 139 -157 207 -89 b 432 -210 374 -89 432 -131 b 275 -356 432 -293 363 -356 "},"Ń":{"ha":833,"x_min":0,"x_max":0,"o":"m 189 903 l 411 903 l 490 472 l 519 272 l 525 272 b 563 608 533 369 550 543 l 621 903 l 831 903 l 650 0 l 433 0 l 346 431 l 317 631 l 311 631 b 272 281 303 529 289 368 l 218 0 l 8 0 m 363 1072 l 650 1249 l 747 1086 l 447 944 "},"Ǹ":{"ha":833,"x_min":0,"x_max":0,"o":"m 189 903 l 411 903 l 490 472 l 519 272 l 525 272 b 563 608 533 369 550 543 l 621 903 l 831 903 l 650 0 l 433 0 l 346 431 l 317 631 l 311 631 b 272 281 303 529 289 368 l 218 0 l 8 0 m 296 1119 l 447 1260 l 664 1039 l 539 931 "},"Ň":{"ha":833,"x_min":0,"x_max":0,"o":"m 189 903 l 411 903 l 490 472 l 519 272 l 525 272 b 563 608 533 369 550 543 l 621 903 l 831 903 l 650 0 l 433 0 l 346 431 l 317 631 l 311 631 b 272 281 303 529 289 368 l 218 0 l 8 0 m 286 1156 l 394 1217 l 531 1092 l 536 1092 l 728 1217 l 819 1147 l 653 972 l 392 972 "},"Ñ":{"ha":833,"x_min":0,"x_max":0,"o":"m 189 903 l 411 903 l 490 472 l 519 272 l 525 272 b 563 608 533 369 550 543 l 621 903 l 831 903 l 650 0 l 433 0 l 346 431 l 317 631 l 311 631 b 272 281 303 529 289 368 l 218 0 l 8 0 m 608 953 b 433 1025 511 953 472 1025 b 378 967 411 1025 392 1014 l 228 978 b 453 1189 264 1131 351 1189 b 628 1117 550 1189 589 1117 b 683 1175 650 1117 669 1128 l 833 1164 b 608 953 797 1011 710 953 "},"Ņ":{"ha":833,"x_min":0,"x_max":0,"o":"m 189 903 l 411 903 l 490 472 l 519 272 l 525 272 b 563 608 533 369 550 543 l 621 903 l 831 903 l 650 0 l 433 0 l 346 431 l 317 631 l 311 631 b 272 281 303 529 289 368 l 218 0 l 8 0 m 147 -247 b 293 -192 254 -242 293 -222 b 218 -153 293 -175 278 -153 l 279 -69 b 467 -172 433 -75 467 -118 b 143 -339 467 -286 328 -333 "},"Ṅ":{"ha":833,"x_min":0,"x_max":0,"o":"m 189 903 l 411 903 l 490 472 l 519 272 l 525 272 b 563 608 533 369 550 543 l 621 903 l 831 903 l 650 0 l 433 0 l 346 431 l 317 631 l 311 631 b 272 281 303 529 289 368 l 218 0 l 8 0 m 525 969 b 408 1072 467 969 408 1003 b 542 1197 408 1139 467 1197 b 658 1094 600 1197 658 1161 b 525 969 658 1022 600 969 "},"Ṇ":{"ha":833,"x_min":0,"x_max":0,"o":"m 189 903 l 411 903 l 490 472 l 519 272 l 525 272 b 563 608 533 369 550 543 l 621 903 l 831 903 l 650 0 l 433 0 l 346 431 l 317 631 l 311 631 b 272 281 303 529 289 368 l 218 0 l 8 0 m 294 -356 b 158 -235 225 -356 158 -317 b 314 -89 158 -157 226 -89 b 451 -210 393 -89 451 -131 b 294 -356 451 -293 382 -356 "},"Ṉ":{"ha":833,"x_min":0,"x_max":0,"o":"m 189 903 l 411 903 l 490 472 l 519 272 l 525 272 b 563 608 533 369 550 543 l 621 903 l 831 903 l 650 0 l 433 0 l 346 431 l 317 631 l 311 631 b 272 281 303 529 289 368 l 218 0 l 8 0 m 119 -131 l 528 -131 l 500 -269 l 92 -269 "},"Ò":{"ha":833,"x_min":0,"x_max":0,"o":"m 347 -17 b 36 356 158 -17 36 122 b 497 919 36 675 229 919 b 806 547 685 919 806 781 b 347 -17 806 228 614 -17 m 369 175 b 578 569 489 175 578 342 b 475 728 578 681 546 728 b 264 333 356 728 264 561 b 369 175 264 222 297 175 m 310 1119 l 461 1260 l 678 1039 l 553 931 "},"Ó":{"ha":833,"x_min":0,"x_max":0,"o":"m 347 -17 b 36 356 158 -17 36 122 b 497 919 36 675 229 919 b 806 547 685 919 806 781 b 347 -17 806 228 614 -17 m 369 175 b 578 569 489 175 578 342 b 475 728 578 681 546 728 b 264 333 356 728 264 561 b 369 175 264 222 297 175 m 376 1072 l 664 1249 l 761 1086 l 461 944 "},"Ô":{"ha":833,"x_min":0,"x_max":0,"o":"m 347 -17 b 36 356 158 -17 36 122 b 497 919 36 675 229 919 b 806 547 685 919 806 781 b 347 -17 806 228 614 -17 m 369 175 b 578 569 489 175 578 342 b 475 728 578 681 546 728 b 264 333 356 728 264 561 b 369 175 264 222 297 175 m 258 1014 l 425 1189 l 686 1189 l 792 1006 l 683 944 l 547 1069 l 542 1069 l 350 944 "},"Õ":{"ha":833,"x_min":0,"x_max":0,"o":"m 347 -17 b 36 356 158 -17 36 122 b 497 919 36 675 229 919 b 806 547 685 919 806 781 b 347 -17 806 228 614 -17 m 369 175 b 578 569 489 175 578 342 b 475 728 578 681 546 728 b 264 333 356 728 264 561 b 369 175 264 222 297 175 m 622 953 b 447 1025 525 953 486 1025 b 392 967 425 1025 406 1014 l 242 978 b 467 1189 278 1131 365 1189 b 642 1117 564 1189 603 1117 b 697 1175 664 1117 683 1128 l 847 1164 b 622 953 811 1011 724 953 "},"Ö":{"ha":833,"x_min":0,"x_max":0,"o":"m 347 -17 b 36 356 158 -17 36 122 b 497 919 36 675 229 919 b 806 547 685 919 806 781 b 347 -17 806 228 614 -17 m 369 175 b 578 569 489 175 578 342 b 475 728 578 681 546 728 b 264 333 356 728 264 561 b 369 175 264 222 297 175 m 381 967 b 292 1056 331 967 292 1000 b 406 1172 292 1111 339 1172 b 494 1083 453 1172 494 1139 b 381 967 494 1028 447 967 m 686 967 b 597 1056 636 967 597 1000 b 711 1172 597 1111 644 1172 b 800 1083 758 1172 800 1139 b 686 967 800 1028 753 967 "},"Ō":{"ha":833,"x_min":0,"x_max":0,"o":"m 347 -17 b 36 356 158 -17 36 122 b 497 919 36 675 229 919 b 806 547 685 919 806 781 b 347 -17 806 228 614 -17 m 369 175 b 578 569 489 175 578 342 b 475 728 578 681 546 728 b 264 333 356 728 264 561 b 369 175 264 222 297 175 m 350 1136 l 767 1136 l 739 994 l 322 994 "},"Ő":{"ha":833,"x_min":0,"x_max":0,"o":"m 347 -17 b 36 356 158 -17 36 122 b 497 919 36 675 229 919 b 806 547 685 919 806 781 b 347 -17 806 228 614 -17 m 369 175 b 578 569 489 175 578 342 b 475 728 578 681 546 728 b 264 333 356 728 264 561 b 369 175 264 222 297 175 m 322 1028 l 506 1240 l 640 1144 l 428 963 m 597 1028 l 781 1240 l 915 1144 l 703 963 "},"Ŏ":{"ha":833,"x_min":0,"x_max":0,"o":"m 347 -17 b 36 356 158 -17 36 122 b 497 919 36 675 229 919 b 806 547 685 919 806 781 b 347 -17 806 228 614 -17 m 369 175 b 578 569 489 175 578 342 b 475 728 578 681 546 728 b 264 333 356 728 264 561 b 369 175 264 222 297 175 m 522 964 b 314 1172 376 964 306 1029 l 447 1194 b 547 1100 449 1131 489 1100 b 675 1194 606 1100 649 1132 l 797 1172 b 522 964 758 1031 667 964 "},"Ǒ":{"ha":833,"x_min":0,"x_max":0,"o":"m 347 -17 b 36 356 158 -17 36 122 b 497 919 36 675 229 919 b 806 547 685 919 806 781 b 347 -17 806 228 614 -17 m 369 175 b 578 569 489 175 578 342 b 475 728 578 681 546 728 b 264 333 356 728 264 561 b 369 175 264 222 297 175 m 300 1156 l 408 1217 l 544 1092 l 550 1092 l 742 1217 l 833 1147 l 667 972 l 406 972 "},"Ǫ":{"ha":833,"x_min":0,"x_max":0,"o":"m 300 -317 b 156 -203 214 -317 156 -275 b 281 -14 156 -122 225 -53 b 36 356 128 25 36 147 b 497 919 36 675 229 919 b 806 547 685 919 806 781 b 436 -11 806 294 675 47 b 328 -131 358 -31 328 -97 b 383 -175 328 -158 353 -175 b 425 -164 397 -175 408 -172 l 467 -269 b 300 -317 422 -300 353 -317 m 369 169 b 578 569 489 169 578 333 b 475 728 578 681 546 728 b 264 333 356 728 264 561 b 369 169 264 217 297 169 "},"Ọ":{"ha":833,"x_min":0,"x_max":0,"o":"m 347 -17 b 36 356 158 -17 36 122 b 497 919 36 675 229 919 b 806 547 685 919 806 781 b 347 -17 806 228 614 -17 m 369 175 b 578 569 489 175 578 342 b 475 728 578 681 546 728 b 264 333 356 728 264 561 b 369 175 264 222 297 175 m 269 -356 b 133 -235 200 -356 133 -317 b 289 -89 133 -157 201 -89 b 426 -210 368 -89 426 -131 b 269 -356 426 -293 357 -356 "},"Ỏ":{"ha":833,"x_min":0,"x_max":0,"o":"m 347 -17 b 36 356 158 -17 36 122 b 497 919 36 675 229 919 b 806 547 685 919 806 781 b 347 -17 806 228 614 -17 m 369 175 b 578 569 489 175 578 342 b 475 728 578 681 546 728 b 264 333 356 728 264 561 b 369 175 264 222 297 175 m 435 1047 b 497 1081 467 1051 493 1058 b 396 1122 501 1103 476 1117 l 447 1239 b 671 1106 638 1233 686 1181 b 433 956 651 1006 549 961 "},"Ố":{"ha":833,"x_min":0,"x_max":0,"o":"m 347 -17 b 36 356 158 -17 36 122 b 497 919 36 675 229 919 b 806 547 685 919 806 781 b 347 -17 806 228 614 -17 m 369 175 b 578 569 489 175 578 342 b 475 728 578 681 546 728 b 264 333 356 728 264 561 b 369 175 264 222 297 175 m 308 1006 l 456 1150 l 661 1150 l 758 1006 l 656 944 l 544 1044 l 539 1044 l 394 944 m 697 1140 l 858 1243 l 917 1143 l 753 1057 "},"Ồ":{"ha":833,"x_min":0,"x_max":0,"o":"m 347 -17 b 36 356 158 -17 36 122 b 497 919 36 675 229 919 b 806 547 685 919 806 781 b 347 -17 806 228 614 -17 m 369 175 b 578 569 489 175 578 342 b 475 728 578 681 546 728 b 264 333 356 728 264 561 b 369 175 264 222 297 175 m 308 1006 l 456 1150 l 661 1150 l 758 1006 l 656 944 l 544 1044 l 539 1044 l 394 944 m 167 1163 l 258 1249 l 379 1121 l 297 1050 "},"Ổ":{"ha":833,"x_min":0,"x_max":0,"o":"m 347 -17 b 36 356 158 -17 36 122 b 497 919 36 675 229 919 b 806 547 685 919 806 781 b 347 -17 806 228 614 -17 m 369 175 b 578 569 489 175 578 342 b 475 728 578 681 546 728 b 264 333 356 728 264 561 b 369 175 264 222 297 175 m 308 1006 l 456 1150 l 661 1150 l 758 1006 l 656 944 l 544 1044 l 539 1044 l 394 944 m 736 1111 b 781 1144 758 1115 776 1122 b 700 1186 786 1167 771 1181 l 742 1281 b 935 1164 910 1275 947 1225 b 739 1039 918 1078 838 1044 "},"Ỗ":{"ha":833,"x_min":0,"x_max":0,"o":"m 347 -17 b 36 356 158 -17 36 122 b 497 919 36 675 229 919 b 806 547 685 919 806 781 b 347 -17 806 228 614 -17 m 369 175 b 578 569 489 175 578 342 b 475 728 578 681 546 728 b 264 333 356 728 264 561 b 369 175 264 222 297 175 m 308 1006 l 453 1136 l 658 1136 l 758 1006 l 653 944 l 542 1031 l 536 1031 l 392 944 m 642 1164 b 508 1222 569 1164 539 1222 b 458 1172 486 1222 469 1208 l 347 1186 b 514 1350 375 1304 436 1350 b 647 1292 586 1350 617 1292 b 697 1342 669 1292 686 1306 l 806 1328 b 642 1164 781 1210 719 1164 "},"Ộ":{"ha":833,"x_min":0,"x_max":0,"o":"m 347 -17 b 36 356 158 -17 36 122 b 497 919 36 675 229 919 b 806 547 685 919 806 781 b 347 -17 806 228 614 -17 m 369 175 b 578 569 489 175 578 342 b 475 728 578 681 546 728 b 264 333 356 728 264 561 b 369 175 264 222 297 175 m 258 1014 l 425 1189 l 686 1189 l 792 1006 l 683 944 l 547 1069 l 542 1069 l 350 944 m 269 -356 b 133 -235 200 -356 133 -317 b 289 -89 133 -157 201 -89 b 426 -210 368 -89 426 -131 b 269 -356 426 -293 357 -356 "},"Ơ":{"ha":833,"x_min":0,"x_max":0,"o":"m 347 -17 b 36 356 158 -17 36 122 b 497 919 36 675 229 919 b 651 881 556 919 608 906 b 778 1017 738 892 778 938 b 761 1100 778 1039 771 1076 l 925 1150 b 950 1033 942 1113 950 1069 b 735 803 950 906 883 831 b 806 547 781 740 806 654 b 347 -17 806 228 614 -17 m 369 175 b 578 569 489 175 578 342 b 475 728 578 681 546 728 b 264 333 356 728 264 561 b 369 175 264 222 297 175 "},"Ớ":{"ha":833,"x_min":0,"x_max":0,"o":"m 347 -17 b 36 356 158 -17 36 122 b 497 919 36 675 229 919 b 651 881 556 919 608 906 b 778 1017 738 892 778 938 b 761 1100 778 1039 771 1076 l 925 1150 b 950 1033 942 1113 950 1069 b 735 803 950 906 883 831 b 806 547 781 740 806 654 b 347 -17 806 228 614 -17 m 369 175 b 578 569 489 175 578 342 b 475 728 578 681 546 728 b 264 333 356 728 264 561 b 369 175 264 222 297 175 m 376 1072 l 664 1249 l 761 1086 l 461 944 "},"Ờ":{"ha":833,"x_min":0,"x_max":0,"o":"m 347 -17 b 36 356 158 -17 36 122 b 497 919 36 675 229 919 b 651 881 556 919 608 906 b 778 1017 738 892 778 938 b 761 1100 778 1039 771 1076 l 925 1150 b 950 1033 942 1113 950 1069 b 735 803 950 906 883 831 b 806 547 781 740 806 654 b 347 -17 806 228 614 -17 m 369 175 b 578 569 489 175 578 342 b 475 728 578 681 546 728 b 264 333 356 728 264 561 b 369 175 264 222 297 175 m 310 1119 l 461 1260 l 678 1039 l 553 931 "},"Ở":{"ha":833,"x_min":0,"x_max":0,"o":"m 347 -17 b 36 356 158 -17 36 122 b 497 919 36 675 229 919 b 651 881 556 919 608 906 b 778 1017 738 892 778 938 b 761 1100 778 1039 771 1076 l 925 1150 b 950 1033 942 1113 950 1069 b 735 803 950 906 883 831 b 806 547 781 740 806 654 b 347 -17 806 228 614 -17 m 369 175 b 578 569 489 175 578 342 b 475 728 578 681 546 728 b 264 333 356 728 264 561 b 369 175 264 222 297 175 m 435 1047 b 497 1081 467 1051 493 1058 b 396 1122 501 1103 476 1117 l 447 1239 b 671 1106 638 1233 686 1181 b 433 956 651 1006 549 961 "},"Ỡ":{"ha":833,"x_min":0,"x_max":0,"o":"m 347 -17 b 36 356 158 -17 36 122 b 497 919 36 675 229 919 b 651 881 556 919 608 906 b 778 1017 738 892 778 938 b 761 1100 778 1039 771 1076 l 925 1150 b 950 1033 942 1113 950 1069 b 735 803 950 906 883 831 b 806 547 781 740 806 654 b 347 -17 806 228 614 -17 m 369 175 b 578 569 489 175 578 342 b 475 728 578 681 546 728 b 264 333 356 728 264 561 b 369 175 264 222 297 175 m 539 953 b 364 1025 442 953 403 1025 b 308 967 342 1025 322 1014 l 158 978 b 383 1189 194 1131 282 1189 b 558 1117 481 1189 519 1117 b 614 1175 581 1117 600 1128 l 764 1164 b 539 953 728 1011 640 953 "},"Ợ":{"ha":833,"x_min":0,"x_max":0,"o":"m 347 -17 b 36 356 158 -17 36 122 b 497 919 36 675 229 919 b 651 881 556 919 608 906 b 778 1017 738 892 778 938 b 761 1100 778 1039 771 1076 l 925 1150 b 950 1033 942 1113 950 1069 b 735 803 950 906 883 831 b 806 547 781 740 806 654 b 347 -17 806 228 614 -17 m 369 175 b 578 569 489 175 578 342 b 475 728 578 681 546 728 b 264 333 356 728 264 561 b 369 175 264 222 297 175 m 269 -356 b 133 -235 200 -356 133 -317 b 289 -89 133 -157 201 -89 b 426 -210 368 -89 426 -131 b 269 -356 426 -293 357 -356 "},"Ṓ":{"ha":833,"x_min":0,"x_max":0,"o":"m 347 -17 b 36 356 158 -17 36 122 b 497 919 36 675 229 919 b 806 547 685 919 806 781 b 347 -17 806 228 614 -17 m 369 175 b 578 569 489 175 578 342 b 475 728 578 681 546 728 b 264 333 356 728 264 561 b 369 175 264 222 297 175 m 350 1136 l 767 1136 l 739 994 l 322 994 m 497 1221 l 668 1421 l 799 1321 l 589 1151 "},"Ø":{"ha":833,"x_min":0,"x_max":0,"o":"m 347 -17 b 156 47 271 -17 206 6 l 61 -61 l -39 14 l 78 149 b 36 356 51 206 36 275 b 497 919 36 675 229 919 b 688 854 572 919 638 897 l 782 964 l 883 889 l 765 753 b 806 547 792 696 806 628 b 347 -17 806 228 614 -17 m 256 375 b 256 356 256 368 256 361 l 550 696 b 475 728 532 718 506 728 b 256 375 356 728 256 556 m 369 175 b 586 528 489 175 586 347 b 586 546 586 535 586 540 l 293 207 b 369 175 313 183 338 175 "},"Ǿ":{"ha":833,"x_min":0,"x_max":0,"o":"m 347 -17 b 156 47 271 -17 206 6 l 61 -61 l -39 14 l 78 149 b 36 356 51 206 36 275 b 497 919 36 675 229 919 b 688 854 572 919 638 897 l 782 964 l 883 889 l 765 753 b 806 547 792 696 806 628 b 347 -17 806 228 614 -17 m 256 375 b 256 356 256 368 256 361 l 550 696 b 475 728 532 718 506 728 b 256 375 356 728 256 556 m 369 175 b 586 528 489 175 586 347 b 586 546 586 535 586 540 l 293 207 b 369 175 313 183 338 175 m 376 1072 l 664 1249 l 761 1086 l 461 944 "},"Œ":{"ha":833,"x_min":0,"x_max":0,"o":"m 349 0 b 13 342 138 0 13 107 b 485 903 13 706 243 903 l 913 903 l 876 717 l 660 717 l 629 558 l 790 558 l 754 372 l 593 372 l 554 186 l 782 186 l 746 0 l 349 0 m 360 178 l 468 725 l 449 725 b 240 356 349 725 240 586 b 354 178 240 224 290 178 "},"Ŕ":{"ha":833,"x_min":0,"x_max":0,"o":"m 192 903 l 481 903 b 807 654 661 903 807 839 b 586 344 807 492 710 393 l 728 0 l 482 0 l 374 311 l 294 311 l 233 0 l 11 0 m 396 486 b 582 631 515 486 582 544 b 454 728 582 697 538 728 l 378 728 l 331 486 m 376 1072 l 664 1249 l 761 1086 l 461 944 "},"Ř":{"ha":833,"x_min":0,"x_max":0,"o":"m 192 903 l 481 903 b 807 654 661 903 807 839 b 586 344 807 492 710 393 l 728 0 l 482 0 l 374 311 l 294 311 l 233 0 l 11 0 m 396 486 b 582 631 515 486 582 544 b 454 728 582 697 538 728 l 378 728 l 331 486 m 300 1156 l 408 1217 l 544 1092 l 550 1092 l 742 1217 l 833 1147 l 667 972 l 406 972 "},"Ṙ":{"ha":833,"x_min":0,"x_max":0,"o":"m 192 903 l 481 903 b 807 654 661 903 807 839 b 586 344 807 492 710 393 l 728 0 l 482 0 l 374 311 l 294 311 l 233 0 l 11 0 m 396 486 b 582 631 515 486 582 544 b 454 728 582 697 538 728 l 378 728 l 331 486 m 539 969 b 422 1072 481 969 422 1003 b 556 1197 422 1139 481 1197 b 672 1094 614 1197 672 1161 b 539 969 672 1022 614 969 "},"Ŗ":{"ha":833,"x_min":0,"x_max":0,"o":"m 192 903 l 481 903 b 807 654 661 903 807 839 b 586 344 807 492 710 393 l 728 0 l 482 0 l 374 311 l 294 311 l 233 0 l 11 0 m 396 486 b 582 631 515 486 582 544 b 454 728 582 697 538 728 l 378 728 l 331 486 m 164 -247 b 310 -192 271 -242 310 -222 b 235 -153 310 -175 294 -153 l 296 -69 b 483 -172 450 -75 483 -118 b 160 -339 483 -286 344 -333 "},"Ṛ":{"ha":833,"x_min":0,"x_max":0,"o":"m 192 903 l 481 903 b 807 654 661 903 807 839 b 586 344 807 492 710 393 l 728 0 l 482 0 l 374 311 l 294 311 l 233 0 l 11 0 m 396 486 b 582 631 515 486 582 544 b 454 728 582 697 538 728 l 378 728 l 331 486 m 311 -356 b 175 -235 242 -356 175 -317 b 331 -89 175 -157 243 -89 b 468 -210 410 -89 468 -131 b 311 -356 468 -293 399 -356 "},"Ṝ":{"ha":833,"x_min":0,"x_max":0,"o":"m 192 903 l 481 903 b 807 654 661 903 807 839 b 586 344 807 492 710 393 l 728 0 l 482 0 l 374 311 l 294 311 l 233 0 l 11 0 m 396 486 b 582 631 515 486 582 544 b 454 728 582 697 538 728 l 378 728 l 331 486 m 350 1136 l 767 1136 l 739 994 l 322 994 m 311 -356 b 175 -235 242 -356 175 -317 b 331 -89 175 -157 243 -89 b 468 -210 410 -89 468 -131 b 311 -356 468 -293 399 -356 "},"Ṟ":{"ha":833,"x_min":0,"x_max":0,"o":"m 192 903 l 481 903 b 807 654 661 903 807 839 b 586 344 807 492 710 393 l 728 0 l 482 0 l 374 311 l 294 311 l 233 0 l 11 0 m 396 486 b 582 631 515 486 582 544 b 454 728 582 697 538 728 l 378 728 l 331 486 m 136 -131 l 544 -131 l 517 -269 l 108 -269 "},"Ś":{"ha":833,"x_min":0,"x_max":0,"o":"m 374 -17 b 26 165 204 -17 90 63 l 169 292 b 367 174 219 215 288 174 b 483 247 438 174 483 199 b 382 354 483 293 444 317 l 306 400 b 153 649 222 450 153 528 b 472 919 153 817 294 919 b 785 763 604 919 721 853 l 644 642 b 472 732 603 690 546 732 b 382 664 424 732 382 713 b 460 572 382 626 414 601 l 553 511 b 711 264 642 453 711 390 b 374 -17 711 79 560 -17 m 354 1072 l 642 1249 l 739 1086 l 439 944 "},"Ŝ":{"ha":833,"x_min":0,"x_max":0,"o":"m 374 -17 b 26 165 204 -17 90 63 l 169 292 b 367 174 219 215 288 174 b 483 247 438 174 483 199 b 382 354 483 293 444 317 l 306 400 b 153 649 222 450 153 528 b 472 919 153 817 294 919 b 785 763 604 919 721 853 l 644 642 b 472 732 603 690 546 732 b 382 664 424 732 382 713 b 460 572 382 626 414 601 l 553 511 b 711 264 642 453 711 390 b 374 -17 711 79 560 -17 m 236 1014 l 403 1189 l 664 1189 l 769 1006 l 661 944 l 525 1069 l 519 1069 l 328 944 "},"Š":{"ha":833,"x_min":0,"x_max":0,"o":"m 374 -17 b 26 165 204 -17 90 63 l 169 292 b 367 174 219 215 288 174 b 483 247 438 174 483 199 b 382 354 483 293 444 317 l 306 400 b 153 649 222 450 153 528 b 472 919 153 817 294 919 b 785 763 604 919 721 853 l 644 642 b 472 732 603 690 546 732 b 382 664 424 732 382 713 b 460 572 382 626 414 601 l 553 511 b 711 264 642 453 711 390 b 374 -17 711 79 560 -17 m 278 1156 l 386 1217 l 522 1092 l 528 1092 l 719 1217 l 811 1147 l 644 972 l 383 972 "},"Ş":{"ha":833,"x_min":0,"x_max":0,"o":"m 153 -247 b 303 -189 258 -242 294 -228 b 206 -133 306 -164 289 -144 l 290 -10 b 26 165 167 11 79 81 l 169 292 b 367 174 219 215 288 174 b 483 247 438 174 483 199 b 382 354 483 293 444 317 l 306 400 b 153 649 222 450 153 528 b 472 919 153 817 294 919 b 785 763 604 919 721 853 l 644 642 b 472 732 603 690 546 732 b 382 664 424 732 382 713 b 460 572 382 626 414 601 l 553 511 b 711 264 642 453 711 390 b 425 -14 711 96 586 1 l 381 -83 b 472 -189 450 -100 481 -131 b 153 -339 453 -289 339 -333 "},"Ș":{"ha":833,"x_min":0,"x_max":0,"o":"m 374 -17 b 26 165 204 -17 90 63 l 169 292 b 367 174 219 215 288 174 b 483 247 438 174 483 199 b 382 354 483 293 444 317 l 306 400 b 153 649 222 450 153 528 b 472 919 153 817 294 919 b 785 763 604 919 721 853 l 644 642 b 472 732 603 690 546 732 b 382 664 424 732 382 713 b 460 572 382 626 414 601 l 553 511 b 711 264 642 453 711 390 b 374 -17 711 79 560 -17 m 164 -247 b 310 -192 271 -242 310 -222 b 235 -153 310 -175 294 -153 l 296 -69 b 483 -172 450 -75 483 -118 b 160 -339 483 -286 344 -333 "},"Ṡ":{"ha":833,"x_min":0,"x_max":0,"o":"m 374 -17 b 26 165 204 -17 90 63 l 169 292 b 367 174 219 215 288 174 b 483 247 438 174 483 199 b 382 354 483 293 444 317 l 306 400 b 153 649 222 450 153 528 b 472 919 153 817 294 919 b 785 763 604 919 721 853 l 644 642 b 472 732 603 690 546 732 b 382 664 424 732 382 713 b 460 572 382 626 414 601 l 553 511 b 711 264 642 453 711 390 b 374 -17 711 79 560 -17 m 517 969 b 400 1072 458 969 400 1003 b 533 1197 400 1139 458 1197 b 650 1094 592 1197 650 1161 b 517 969 650 1022 592 969 "},"Ṣ":{"ha":833,"x_min":0,"x_max":0,"o":"m 374 -17 b 26 165 204 -17 90 63 l 169 292 b 367 174 219 215 288 174 b 483 247 438 174 483 199 b 382 354 483 293 444 317 l 306 400 b 153 649 222 450 153 528 b 472 919 153 817 294 919 b 785 763 604 919 721 853 l 644 642 b 472 732 603 690 546 732 b 382 664 424 732 382 713 b 460 572 382 626 414 601 l 553 511 b 711 264 642 453 711 390 b 374 -17 711 79 560 -17 m 311 -356 b 175 -235 242 -356 175 -317 b 331 -89 175 -157 243 -89 b 468 -210 410 -89 468 -131 b 311 -356 468 -293 399 -356 "},"ẞ":{"ha":833,"x_min":0,"x_max":0,"o":"m 478 -17 b 274 69 382 -17 307 31 l 372 208 b 461 164 397 181 425 164 b 547 250 511 164 547 197 b 417 375 547 317 497 353 l 428 500 l 583 699 b 493 744 567 725 533 744 b 336 583 410 744 358 692 l 219 0 l -3 0 l 122 617 b 503 919 161 808 283 919 b 786 676 647 919 761 836 l 628 474 b 767 253 689 440 767 369 b 478 -17 767 92 653 -17 "},"Ť":{"ha":833,"x_min":0,"x_max":0,"o":"m 361 717 l 97 717 l 133 903 l 883 903 l 847 717 l 583 717 l 442 0 l 219 0 m 300 1156 l 408 1217 l 544 1092 l 550 1092 l 742 1217 l 833 1147 l 667 972 l 406 972 "},"Ţ":{"ha":833,"x_min":0,"x_max":0,"o":"m 361 717 l 97 717 l 133 903 l 883 903 l 847 717 l 583 717 l 442 0 l 406 0 l 353 -83 b 444 -189 422 -100 453 -131 b 125 -339 425 -289 311 -333 l 125 -247 b 275 -189 231 -242 267 -228 b 178 -133 278 -164 261 -144 l 269 0 l 219 0 "},"Ț":{"ha":833,"x_min":0,"x_max":0,"o":"m 361 717 l 97 717 l 133 903 l 883 903 l 847 717 l 583 717 l 442 0 l 219 0 m 131 -247 b 276 -192 238 -242 276 -222 b 201 -153 276 -175 261 -153 l 263 -69 b 450 -172 417 -75 450 -118 b 126 -339 450 -286 311 -333 "},"Ṭ":{"ha":833,"x_min":0,"x_max":0,"o":"m 361 717 l 97 717 l 133 903 l 883 903 l 847 717 l 583 717 l 442 0 l 219 0 m 278 -356 b 142 -235 208 -356 142 -317 b 297 -89 142 -157 210 -89 b 435 -210 376 -89 435 -131 b 278 -356 435 -293 365 -356 "},"Ṯ":{"ha":833,"x_min":0,"x_max":0,"o":"m 361 717 l 97 717 l 133 903 l 883 903 l 847 717 l 583 717 l 442 0 l 219 0 m 103 -131 l 511 -131 l 483 -269 l 75 -269 "},"Ŧ":{"ha":833,"x_min":0,"x_max":0,"o":"m 133 486 l 233 494 l 317 494 l 361 717 l 97 717 l 133 903 l 883 903 l 847 717 l 583 717 l 539 494 l 725 494 l 703 389 l 518 389 l 442 0 l 219 0 l 296 389 l 114 389 "},"Ù":{"ha":833,"x_min":0,"x_max":0,"o":"m 343 -17 b 67 272 156 -17 67 103 b 83 428 67 328 72 375 l 178 903 l 400 903 l 300 400 b 283 289 293 363 283 325 b 372 175 283 214 314 175 b 522 383 450 175 489 217 l 625 903 l 842 903 l 736 372 b 343 -17 678 81 556 -17 m 310 1119 l 461 1260 l 678 1039 l 553 931 "},"Ú":{"ha":833,"x_min":0,"x_max":0,"o":"m 343 -17 b 67 272 156 -17 67 103 b 83 428 67 328 72 375 l 178 903 l 400 903 l 300 400 b 283 289 293 363 283 325 b 372 175 283 214 314 175 b 522 383 450 175 489 217 l 625 903 l 842 903 l 736 372 b 343 -17 678 81 556 -17 m 376 1072 l 664 1249 l 761 1086 l 461 944 "},"Û":{"ha":833,"x_min":0,"x_max":0,"o":"m 343 -17 b 67 272 156 -17 67 103 b 83 428 67 328 72 375 l 178 903 l 400 903 l 300 400 b 283 289 293 363 283 325 b 372 175 283 214 314 175 b 522 383 450 175 489 217 l 625 903 l 842 903 l 736 372 b 343 -17 678 81 556 -17 m 258 1014 l 425 1189 l 686 1189 l 792 1006 l 683 944 l 547 1069 l 542 1069 l 350 944 "},"Ũ":{"ha":833,"x_min":0,"x_max":0,"o":"m 343 -17 b 67 272 156 -17 67 103 b 83 428 67 328 72 375 l 178 903 l 400 903 l 300 400 b 283 289 293 363 283 325 b 372 175 283 214 314 175 b 522 383 450 175 489 217 l 625 903 l 842 903 l 736 372 b 343 -17 678 81 556 -17 m 622 953 b 447 1025 525 953 486 1025 b 392 967 425 1025 406 1014 l 242 978 b 467 1189 278 1131 365 1189 b 642 1117 564 1189 603 1117 b 697 1175 664 1117 683 1128 l 847 1164 b 622 953 811 1011 724 953 "},"Ü":{"ha":833,"x_min":0,"x_max":0,"o":"m 343 -17 b 67 272 156 -17 67 103 b 83 428 67 328 72 375 l 178 903 l 400 903 l 300 400 b 283 289 293 363 283 325 b 372 175 283 214 314 175 b 522 383 450 175 489 217 l 625 903 l 842 903 l 736 372 b 343 -17 678 81 556 -17 m 381 967 b 292 1056 331 967 292 1000 b 406 1172 292 1111 339 1172 b 494 1083 453 1172 494 1139 b 381 967 494 1028 447 967 m 686 967 b 597 1056 636 967 597 1000 b 711 1172 597 1111 644 1172 b 800 1083 758 1172 800 1139 b 686 967 800 1028 753 967 "},"Ū":{"ha":833,"x_min":0,"x_max":0,"o":"m 343 -17 b 67 272 156 -17 67 103 b 83 428 67 328 72 375 l 178 903 l 400 903 l 300 400 b 283 289 293 363 283 325 b 372 175 283 214 314 175 b 522 383 450 175 489 217 l 625 903 l 842 903 l 736 372 b 343 -17 678 81 556 -17 m 350 1136 l 767 1136 l 739 994 l 322 994 "},"Ŭ":{"ha":833,"x_min":0,"x_max":0,"o":"m 343 -17 b 67 272 156 -17 67 103 b 83 428 67 328 72 375 l 178 903 l 400 903 l 300 400 b 283 289 293 363 283 325 b 372 175 283 214 314 175 b 522 383 450 175 489 217 l 625 903 l 842 903 l 736 372 b 343 -17 678 81 556 -17 m 522 964 b 314 1172 376 964 306 1029 l 447 1194 b 547 1100 449 1131 489 1100 b 675 1194 606 1100 649 1132 l 797 1172 b 522 964 758 1031 667 964 "},"Ů":{"ha":833,"x_min":0,"x_max":0,"o":"m 343 -17 b 67 272 156 -17 67 103 b 83 428 67 328 72 375 l 178 903 l 400 903 l 300 400 b 283 289 293 363 283 325 b 372 175 283 214 314 175 b 522 383 450 175 489 217 l 625 903 l 842 903 l 736 372 b 343 -17 678 81 556 -17 m 542 967 b 383 1089 457 967 383 1003 b 564 1247 383 1175 465 1247 b 722 1125 646 1247 722 1208 b 542 967 722 1036 642 967 m 544 1050 b 606 1117 576 1050 606 1081 b 561 1164 606 1142 590 1164 b 500 1097 526 1164 500 1131 b 544 1050 500 1072 515 1050 "},"Ű":{"ha":833,"x_min":0,"x_max":0,"o":"m 343 -17 b 67 272 156 -17 67 103 b 83 428 67 328 72 375 l 178 903 l 400 903 l 300 400 b 283 289 293 363 283 325 b 372 175 283 214 314 175 b 522 383 450 175 489 217 l 625 903 l 842 903 l 736 372 b 343 -17 678 81 556 -17 m 322 1028 l 506 1240 l 640 1144 l 428 963 m 597 1028 l 781 1240 l 915 1144 l 703 963 "},"Ǔ":{"ha":833,"x_min":0,"x_max":0,"o":"m 343 -17 b 67 272 156 -17 67 103 b 83 428 67 328 72 375 l 178 903 l 400 903 l 300 400 b 283 289 293 363 283 325 b 372 175 283 214 314 175 b 522 383 450 175 489 217 l 625 903 l 842 903 l 736 372 b 343 -17 678 81 556 -17 m 300 1156 l 408 1217 l 544 1092 l 550 1092 l 742 1217 l 833 1147 l 667 972 l 406 972 "},"Ų":{"ha":833,"x_min":0,"x_max":0,"o":"m 300 -317 b 156 -203 214 -317 156 -275 b 283 -11 156 -119 231 -44 b 67 272 147 8 67 108 b 83 428 67 328 72 375 l 178 903 l 400 903 l 300 400 b 283 289 293 363 283 325 b 372 175 283 214 314 175 b 522 383 450 175 489 217 l 625 903 l 842 903 l 736 372 b 456 -14 694 164 632 57 b 328 -131 374 -47 328 -90 b 383 -175 328 -158 353 -175 b 425 -164 397 -175 408 -172 l 467 -269 b 300 -317 422 -300 353 -317 "},"Ǖ":{"ha":833,"x_min":0,"x_max":0,"o":"m 343 -17 b 67 272 156 -17 67 103 b 83 428 67 328 72 375 l 178 903 l 400 903 l 300 400 b 283 289 293 363 283 325 b 372 175 283 214 314 175 b 522 383 450 175 489 217 l 625 903 l 842 903 l 736 372 b 343 -17 678 81 556 -17 m 367 967 b 289 1044 322 967 289 997 b 389 1147 289 1094 331 1147 b 467 1069 433 1147 467 1117 b 367 967 467 1019 425 967 m 664 967 b 586 1044 619 967 586 997 b 686 1147 586 1094 628 1147 b 764 1069 731 1147 764 1117 b 664 967 764 1019 722 967 m 367 1314 l 786 1314 l 764 1211 l 347 1211 "},"Ǘ":{"ha":833,"x_min":0,"x_max":0,"o":"m 343 -17 b 67 272 156 -17 67 103 b 83 428 67 328 72 375 l 178 903 l 400 903 l 300 400 b 283 289 293 363 283 325 b 372 175 283 214 314 175 b 522 383 450 175 489 217 l 625 903 l 842 903 l 736 372 b 343 -17 678 81 556 -17 m 367 967 b 289 1044 322 967 289 997 b 389 1147 289 1094 331 1147 b 467 1069 433 1147 467 1117 b 367 967 467 1019 425 967 m 664 967 b 586 1044 619 967 586 997 b 686 1147 586 1094 628 1147 b 764 1069 731 1147 764 1117 b 664 967 764 1019 722 967 m 472 1221 l 643 1421 l 774 1321 l 564 1151 "},"Ǚ":{"ha":833,"x_min":0,"x_max":0,"o":"m 343 -17 b 67 272 156 -17 67 103 b 83 428 67 328 72 375 l 178 903 l 400 903 l 300 400 b 283 289 293 363 283 325 b 372 175 283 214 314 175 b 522 383 450 175 489 217 l 625 903 l 842 903 l 736 372 b 343 -17 678 81 556 -17 m 367 967 b 289 1044 322 967 289 997 b 389 1147 289 1094 331 1147 b 467 1069 433 1147 467 1117 b 367 967 467 1019 425 967 m 664 967 b 586 1044 619 967 586 997 b 686 1147 586 1094 628 1147 b 764 1069 731 1147 764 1117 b 664 967 764 1019 722 967 m 350 1339 l 453 1400 l 564 1300 l 569 1300 l 714 1400 l 800 1339 l 653 1194 l 447 1194 "},"Ǜ":{"ha":833,"x_min":0,"x_max":0,"o":"m 343 -17 b 67 272 156 -17 67 103 b 83 428 67 328 72 375 l 178 903 l 400 903 l 300 400 b 283 289 293 363 283 325 b 372 175 283 214 314 175 b 522 383 450 175 489 217 l 625 903 l 842 903 l 736 372 b 343 -17 678 81 556 -17 m 367 967 b 289 1044 322 967 289 997 b 389 1147 289 1094 331 1147 b 467 1069 433 1147 467 1117 b 367 967 467 1019 425 967 m 664 967 b 586 1044 619 967 586 997 b 686 1147 586 1094 628 1147 b 764 1069 731 1147 764 1117 b 664 967 764 1019 722 967 m 369 1344 l 533 1419 l 628 1197 l 514 1146 "},"Ụ":{"ha":833,"x_min":0,"x_max":0,"o":"m 343 -17 b 67 272 156 -17 67 103 b 83 428 67 328 72 375 l 178 903 l 400 903 l 300 400 b 283 289 293 363 283 325 b 372 175 283 214 314 175 b 522 383 450 175 489 217 l 625 903 l 842 903 l 736 372 b 343 -17 678 81 556 -17 m 269 -356 b 133 -235 200 -356 133 -317 b 289 -89 133 -157 201 -89 b 426 -210 368 -89 426 -131 b 269 -356 426 -293 357 -356 "},"Ủ":{"ha":833,"x_min":0,"x_max":0,"o":"m 343 -17 b 67 272 156 -17 67 103 b 83 428 67 328 72 375 l 178 903 l 400 903 l 300 400 b 283 289 293 363 283 325 b 372 175 283 214 314 175 b 522 383 450 175 489 217 l 625 903 l 842 903 l 736 372 b 343 -17 678 81 556 -17 m 435 1047 b 497 1081 467 1051 493 1058 b 396 1122 501 1103 476 1117 l 447 1239 b 671 1106 638 1233 686 1181 b 433 956 651 1006 549 961 "},"Ư":{"ha":833,"x_min":0,"x_max":0,"o":"m 343 -17 b 67 272 156 -17 67 103 b 83 428 67 328 72 375 l 178 903 l 400 903 l 300 400 b 283 289 293 363 283 325 b 372 175 283 214 314 175 b 522 383 450 175 489 217 l 625 903 l 754 903 b 858 1017 824 914 858 953 b 842 1100 858 1039 851 1076 l 1006 1150 b 1031 1033 1022 1113 1031 1069 b 826 825 1031 917 965 851 l 736 372 b 343 -17 678 81 556 -17 "},"Ứ":{"ha":833,"x_min":0,"x_max":0,"o":"m 343 -17 b 67 272 156 -17 67 103 b 83 428 67 328 72 375 l 178 903 l 400 903 l 300 400 b 283 289 293 363 283 325 b 372 175 283 214 314 175 b 522 383 450 175 489 217 l 625 903 l 754 903 b 858 1017 824 914 858 953 b 842 1100 858 1039 851 1076 l 1006 1150 b 1031 1033 1022 1113 1031 1069 b 826 825 1031 917 965 851 l 736 372 b 343 -17 678 81 556 -17 m 376 1072 l 664 1249 l 761 1086 l 461 944 "},"Ừ":{"ha":833,"x_min":0,"x_max":0,"o":"m 343 -17 b 67 272 156 -17 67 103 b 83 428 67 328 72 375 l 178 903 l 400 903 l 300 400 b 283 289 293 363 283 325 b 372 175 283 214 314 175 b 522 383 450 175 489 217 l 625 903 l 754 903 b 858 1017 824 914 858 953 b 842 1100 858 1039 851 1076 l 1006 1150 b 1031 1033 1022 1113 1031 1069 b 826 825 1031 917 965 851 l 736 372 b 343 -17 678 81 556 -17 m 310 1119 l 461 1260 l 678 1039 l 553 931 "},"Ử":{"ha":833,"x_min":0,"x_max":0,"o":"m 343 -17 b 67 272 156 -17 67 103 b 83 428 67 328 72 375 l 178 903 l 400 903 l 300 400 b 283 289 293 363 283 325 b 372 175 283 214 314 175 b 522 383 450 175 489 217 l 625 903 l 754 903 b 858 1017 824 914 858 953 b 842 1100 858 1039 851 1076 l 1006 1150 b 1031 1033 1022 1113 1031 1069 b 826 825 1031 917 965 851 l 736 372 b 343 -17 678 81 556 -17 m 435 1047 b 497 1081 467 1051 493 1058 b 396 1122 501 1103 476 1117 l 447 1239 b 671 1106 638 1233 686 1181 b 433 956 651 1006 549 961 "},"Ữ":{"ha":833,"x_min":0,"x_max":0,"o":"m 343 -17 b 67 272 156 -17 67 103 b 83 428 67 328 72 375 l 178 903 l 400 903 l 300 400 b 283 289 293 363 283 325 b 372 175 283 214 314 175 b 522 383 450 175 489 217 l 625 903 l 754 903 b 858 1017 824 914 858 953 b 842 1100 858 1039 851 1076 l 1006 1150 b 1031 1033 1022 1113 1031 1069 b 826 825 1031 917 965 851 l 736 372 b 343 -17 678 81 556 -17 m 622 953 b 447 1025 525 953 486 1025 b 392 967 425 1025 406 1014 l 242 978 b 467 1189 278 1131 365 1189 b 642 1117 564 1189 603 1117 b 697 1175 664 1117 683 1128 l 847 1164 b 622 953 811 1011 724 953 "},"Ự":{"ha":833,"x_min":0,"x_max":0,"o":"m 343 -17 b 67 272 156 -17 67 103 b 83 428 67 328 72 375 l 178 903 l 400 903 l 300 400 b 283 289 293 363 283 325 b 372 175 283 214 314 175 b 522 383 450 175 489 217 l 625 903 l 754 903 b 858 1017 824 914 858 953 b 842 1100 858 1039 851 1076 l 1006 1150 b 1031 1033 1022 1113 1031 1069 b 826 825 1031 917 965 851 l 736 372 b 343 -17 678 81 556 -17 m 269 -356 b 133 -235 200 -356 133 -317 b 289 -89 133 -157 201 -89 b 426 -210 368 -89 426 -131 b 269 -356 426 -293 357 -356 "},"Ṿ":{"ha":833,"x_min":0,"x_max":0,"o":"m 104 903 l 338 903 l 354 481 b 360 194 357 386 360 290 l 365 194 b 485 481 401 283 456 414 l 668 903 l 913 903 l 449 0 l 179 0 m 269 -356 b 133 -235 200 -356 133 -317 b 289 -89 133 -157 201 -89 b 426 -210 368 -89 426 -131 b 269 -356 426 -293 357 -356 "},"Ẁ":{"ha":833,"x_min":0,"x_max":0,"o":"m 100 904 l 311 904 l 239 438 b 201 206 231 379 214 275 l 208 206 b 294 438 235 282 265 368 l 396 675 l 529 675 l 538 438 b 536 206 539 393 538 285 l 543 206 b 597 439 558 276 579 364 l 710 904 l 921 904 l 646 0 l 404 0 l 413 268 b 421 443 414 326 417 392 l 417 443 b 360 268 401 389 381 326 l 267 0 l 19 0 m 296 1119 l 447 1260 l 664 1039 l 539 931 "},"Ẃ":{"ha":833,"x_min":0,"x_max":0,"o":"m 100 904 l 311 904 l 239 438 b 201 206 231 379 214 275 l 208 206 b 294 438 235 282 265 368 l 396 675 l 529 675 l 538 438 b 536 206 539 393 538 285 l 543 206 b 597 439 558 276 579 364 l 710 904 l 921 904 l 646 0 l 404 0 l 413 268 b 421 443 414 326 417 392 l 417 443 b 360 268 401 389 381 326 l 267 0 l 19 0 m 363 1072 l 650 1249 l 747 1086 l 447 944 "},"Ŵ":{"ha":833,"x_min":0,"x_max":0,"o":"m 100 904 l 311 904 l 239 438 b 201 206 231 379 214 275 l 208 206 b 294 438 235 282 265 368 l 396 675 l 529 675 l 538 438 b 536 206 539 393 538 285 l 543 206 b 597 439 558 276 579 364 l 710 904 l 921 904 l 646 0 l 404 0 l 413 268 b 421 443 414 326 417 392 l 417 443 b 360 268 401 389 381 326 l 267 0 l 19 0 m 244 1014 l 411 1189 l 672 1189 l 778 1006 l 669 944 l 533 1069 l 528 1069 l 336 944 "},"Ẅ":{"ha":833,"x_min":0,"x_max":0,"o":"m 100 904 l 311 904 l 239 438 b 201 206 231 379 214 275 l 208 206 b 294 438 235 282 265 368 l 396 675 l 529 675 l 538 438 b 536 206 539 393 538 285 l 543 206 b 597 439 558 276 579 364 l 710 904 l 921 904 l 646 0 l 404 0 l 413 268 b 421 443 414 326 417 392 l 417 443 b 360 268 401 389 381 326 l 267 0 l 19 0 m 367 967 b 278 1056 317 967 278 1000 b 392 1172 278 1111 325 1172 b 481 1083 439 1172 481 1139 b 367 967 481 1028 433 967 m 672 967 b 583 1056 622 967 583 1000 b 697 1172 583 1111 631 1172 b 786 1083 744 1172 786 1139 b 672 967 786 1028 739 967 "},"Ỳ":{"ha":833,"x_min":0,"x_max":0,"o":"m 274 278 l 111 904 l 342 904 l 382 682 b 421 463 394 613 408 535 l 426 463 b 547 682 467 535 507 611 l 674 904 l 907 904 l 492 256 l 438 0 l 218 0 m 296 1119 l 447 1260 l 664 1039 l 539 931 "},"Ý":{"ha":833,"x_min":0,"x_max":0,"o":"m 274 278 l 111 904 l 342 904 l 382 682 b 421 463 394 613 408 535 l 426 463 b 547 682 467 535 507 611 l 674 904 l 907 904 l 492 256 l 438 0 l 218 0 m 363 1072 l 650 1249 l 747 1086 l 447 944 "},"Ŷ":{"ha":833,"x_min":0,"x_max":0,"o":"m 274 278 l 111 904 l 342 904 l 382 682 b 421 463 394 613 408 535 l 426 463 b 547 682 467 535 507 611 l 674 904 l 907 904 l 492 256 l 438 0 l 218 0 m 244 1014 l 411 1189 l 672 1189 l 778 1006 l 669 944 l 533 1069 l 528 1069 l 336 944 "},"Ÿ":{"ha":833,"x_min":0,"x_max":0,"o":"m 274 278 l 111 904 l 342 904 l 382 682 b 421 463 394 613 408 535 l 426 463 b 547 682 467 535 507 611 l 674 904 l 907 904 l 492 256 l 438 0 l 218 0 m 367 967 b 278 1056 317 967 278 1000 b 392 1172 278 1111 325 1172 b 481 1083 439 1172 481 1139 b 367 967 481 1028 433 967 m 672 967 b 583 1056 622 967 583 1000 b 697 1172 583 1111 631 1172 b 786 1083 744 1172 786 1139 b 672 967 786 1028 739 967 "},"Ẏ":{"ha":833,"x_min":0,"x_max":0,"o":"m 274 278 l 111 904 l 342 904 l 382 682 b 421 463 394 613 408 535 l 426 463 b 547 682 467 535 507 611 l 674 904 l 907 904 l 492 256 l 438 0 l 218 0 m 525 969 b 408 1072 467 969 408 1003 b 542 1197 408 1139 467 1197 b 658 1094 600 1197 658 1161 b 525 969 658 1022 600 969 "},"Ỵ":{"ha":833,"x_min":0,"x_max":0,"o":"m 274 278 l 111 904 l 342 904 l 382 682 b 421 463 394 613 408 535 l 426 463 b 547 682 467 535 507 611 l 674 904 l 907 904 l 492 256 l 438 0 l 218 0 m 275 -356 b 139 -235 206 -356 139 -317 b 294 -89 139 -157 207 -89 b 432 -210 374 -89 432 -131 b 275 -356 432 -293 363 -356 "},"Ỷ":{"ha":833,"x_min":0,"x_max":0,"o":"m 274 278 l 111 904 l 342 904 l 382 682 b 421 463 394 613 408 535 l 426 463 b 547 682 467 535 507 611 l 674 904 l 907 904 l 492 256 l 438 0 l 218 0 m 421 1047 b 483 1081 453 1051 479 1058 b 382 1122 488 1103 463 1117 l 433 1239 b 657 1106 624 1233 672 1181 b 419 956 638 1006 535 961 "},"Ỹ":{"ha":833,"x_min":0,"x_max":0,"o":"m 274 278 l 111 904 l 342 904 l 382 682 b 421 463 394 613 408 535 l 426 463 b 547 682 467 535 507 611 l 674 904 l 907 904 l 492 256 l 438 0 l 218 0 m 608 953 b 433 1025 511 953 472 1025 b 378 967 411 1025 392 1014 l 228 978 b 453 1189 264 1131 351 1189 b 628 1117 550 1189 589 1117 b 683 1175 650 1117 669 1128 l 833 1164 b 608 953 797 1011 710 953 "},"Ź":{"ha":833,"x_min":0,"x_max":0,"o":"m 6 0 l 32 132 l 510 721 l 149 721 l 186 904 l 836 904 l 810 772 l 332 183 l 719 183 l 682 0 m 363 1072 l 650 1249 l 747 1086 l 447 944 "},"Ž":{"ha":833,"x_min":0,"x_max":0,"o":"m 6 0 l 32 132 l 510 721 l 149 721 l 186 904 l 836 904 l 810 772 l 332 183 l 719 183 l 682 0 m 286 1156 l 394 1217 l 531 1092 l 536 1092 l 728 1217 l 819 1147 l 653 972 l 392 972 "},"Ż":{"ha":833,"x_min":0,"x_max":0,"o":"m 6 0 l 32 132 l 510 721 l 149 721 l 186 904 l 836 904 l 810 772 l 332 183 l 719 183 l 682 0 m 525 969 b 408 1072 467 969 408 1003 b 542 1197 408 1139 467 1197 b 658 1094 600 1197 658 1161 b 525 969 658 1022 600 969 "},"Ẑ":{"ha":833,"x_min":0,"x_max":0,"o":"m 6 0 l 32 132 l 510 721 l 149 721 l 186 904 l 836 904 l 810 772 l 332 183 l 719 183 l 682 0 m 244 1014 l 411 1189 l 672 1189 l 778 1006 l 669 944 l 533 1069 l 528 1069 l 336 944 "},"Ẓ":{"ha":833,"x_min":0,"x_max":0,"o":"m 6 0 l 32 132 l 510 721 l 149 721 l 186 904 l 836 904 l 810 772 l 332 183 l 719 183 l 682 0 m 311 -356 b 175 -235 242 -356 175 -317 b 331 -89 175 -157 243 -89 b 468 -210 410 -89 468 -131 b 311 -356 468 -293 399 -356 "},"Ẕ":{"ha":833,"x_min":0,"x_max":0,"o":"m 6 0 l 32 132 l 510 721 l 149 721 l 186 904 l 836 904 l 810 772 l 332 183 l 719 183 l 682 0 m 136 -131 l 544 -131 l 517 -269 l 108 -269 "},"Ð":{"ha":833,"x_min":0,"x_max":0,"o":"m 94 414 l -3 414 l 17 511 l 115 519 l 192 903 l 403 903 b 789 547 642 903 789 792 b 308 0 789 181 578 0 l 11 0 m 303 178 b 561 533 439 178 561 272 b 397 725 561 675 489 725 l 378 725 l 338 519 l 481 519 l 458 414 l 317 414 l 269 178 "},"Þ":{"ha":833,"x_min":0,"x_max":0,"o":"m 192 903 l 414 903 l 386 769 l 494 769 b 789 522 658 769 789 703 b 361 161 789 258 586 161 l 264 161 l 233 0 l 11 0 m 386 336 b 569 489 503 336 569 389 b 450 594 569 561 525 594 l 350 594 l 300 336 "},"Ə":{"ha":833,"x_min":0,"x_max":0,"o":"m 328 -17 b 56 313 158 -17 56 110 b 89 521 56 407 76 481 l 571 521 b 572 560 572 533 572 546 b 449 735 572 674 529 735 b 267 672 374 735 315 703 l 179 824 b 497 921 253 875 364 921 b 790 578 688 921 790 793 b 328 -17 790 225 594 -17 m 361 164 b 546 361 440 164 510 236 l 274 361 b 361 164 254 225 297 164 "},"Ŋ":{"ha":833,"x_min":0,"x_max":0,"o":"m 444 -17 b 299 10 392 -17 326 -8 l 379 186 b 417 175 388 181 401 175 b 564 578 492 175 564 378 b 490 728 564 685 536 728 b 340 635 447 728 397 697 l 217 0 l -6 0 l 175 903 l 386 903 l 369 822 b 581 919 431 886 506 919 b 792 592 706 919 792 828 b 444 -17 792 264 658 -17 "},"Ĳ":{"ha":833,"x_min":0,"x_max":0,"o":"m 181 903 l 403 903 l 222 0 l 0 0 m 386 -253 b 242 -219 336 -253 292 -244 l 308 -61 b 367 -78 328 -72 347 -78 b 444 22 411 -78 428 -50 l 619 903 l 842 903 l 664 11 b 386 -253 633 -133 558 -253 "},"à":{"ha":833,"x_min":0,"x_max":0,"o":"m 263 -17 b 39 253 125 -17 39 81 b 408 711 39 508 217 711 b 592 625 497 711 561 678 l 597 625 l 628 694 l 806 694 l 667 0 l 486 0 l 486 92 l 481 92 b 263 -17 417 22 336 -17 m 347 164 b 497 261 392 164 450 192 l 543 478 b 450 531 524 514 479 531 b 269 281 356 531 269 428 b 347 164 269 199 300 164 m 319 1031 l 508 1172 l 681 896 l 544 790 "},"á":{"ha":833,"x_min":0,"x_max":0,"o":"m 263 -17 b 39 253 125 -17 39 81 b 408 711 39 508 217 711 b 592 625 497 711 561 678 l 597 625 l 628 694 l 806 694 l 667 0 l 486 0 l 486 92 l 481 92 b 263 -17 417 22 336 -17 m 347 164 b 497 261 392 164 450 192 l 543 478 b 450 531 524 514 479 531 b 269 281 356 531 269 428 b 347 164 269 199 300 164 m 379 928 l 644 1167 l 776 997 l 475 803 "},"â":{"ha":833,"x_min":0,"x_max":0,"o":"m 263 -17 b 39 253 125 -17 39 81 b 408 711 39 508 217 711 b 592 625 497 711 561 678 l 597 625 l 628 694 l 806 694 l 667 0 l 486 0 l 486 92 l 481 92 b 263 -17 417 22 336 -17 m 347 164 b 497 261 392 164 450 192 l 543 478 b 450 531 524 514 479 531 b 269 281 356 531 269 428 b 347 164 269 199 300 164 m 233 864 l 411 1036 l 656 1036 l 772 858 l 675 775 l 522 897 l 517 897 l 308 775 "},"ã":{"ha":833,"x_min":0,"x_max":0,"o":"m 263 -17 b 39 253 125 -17 39 81 b 408 711 39 508 217 711 b 592 625 497 711 561 678 l 597 625 l 628 694 l 806 694 l 667 0 l 486 0 l 486 92 l 481 92 b 263 -17 417 22 336 -17 m 347 164 b 497 261 392 164 450 192 l 543 478 b 450 531 524 514 479 531 b 269 281 356 531 269 428 b 347 164 269 199 300 164 m 603 794 b 431 872 513 794 483 872 b 378 808 408 872 386 858 l 233 817 b 442 1036 258 974 338 1036 b 614 958 532 1036 561 958 b 667 1022 636 958 658 972 l 811 1014 b 603 794 786 857 707 794 "},"ä":{"ha":833,"x_min":0,"x_max":0,"o":"m 263 -17 b 39 253 125 -17 39 81 b 408 711 39 508 217 711 b 592 625 497 711 561 678 l 597 625 l 628 694 l 806 694 l 667 0 l 486 0 l 486 92 l 481 92 b 263 -17 417 22 336 -17 m 347 164 b 497 261 392 164 450 192 l 543 478 b 450 531 524 514 479 531 b 269 281 356 531 269 428 b 347 164 269 199 300 164 m 353 786 b 261 878 301 786 261 818 b 378 992 261 938 311 992 b 469 900 429 992 469 957 b 353 786 469 836 419 786 m 658 786 b 567 878 607 786 567 818 b 683 992 567 938 617 992 b 775 900 735 992 775 957 b 658 786 775 836 725 786 "},"ā":{"ha":833,"x_min":0,"x_max":0,"o":"m 263 -17 b 39 253 125 -17 39 81 b 408 711 39 508 217 711 b 592 625 497 711 561 678 l 597 625 l 628 694 l 806 694 l 667 0 l 486 0 l 486 92 l 481 92 b 263 -17 417 22 336 -17 m 347 164 b 497 261 392 164 450 192 l 543 478 b 450 531 524 514 479 531 b 269 281 356 531 269 428 b 347 164 269 199 300 164 m 328 958 l 736 958 l 708 819 l 300 819 "},"ă":{"ha":833,"x_min":0,"x_max":0,"o":"m 263 -17 b 39 253 125 -17 39 81 b 408 711 39 508 217 711 b 592 625 497 711 561 678 l 597 625 l 628 694 l 806 694 l 667 0 l 486 0 l 486 92 l 481 92 b 263 -17 417 22 336 -17 m 347 164 b 497 261 392 164 450 192 l 543 478 b 450 531 524 514 479 531 b 269 281 356 531 269 428 b 347 164 269 199 300 164 m 500 794 b 297 1017 338 794 278 886 l 436 1039 b 528 942 433 983 461 942 b 653 1039 594 942 633 983 l 781 1017 b 500 794 756 886 664 794 "},"å":{"ha":833,"x_min":0,"x_max":0,"o":"m 263 -17 b 39 253 125 -17 39 81 b 408 711 39 508 217 711 b 592 625 497 711 561 678 l 597 625 l 628 694 l 806 694 l 667 0 l 486 0 l 486 92 l 481 92 b 263 -17 417 22 336 -17 m 347 164 b 497 261 392 164 450 192 l 543 478 b 450 531 524 514 479 531 b 269 281 356 531 269 428 b 347 164 269 199 300 164 m 503 792 b 333 919 404 792 333 839 b 547 1081 333 1011 424 1081 b 717 953 647 1081 717 1033 b 503 792 717 861 626 792 m 517 875 b 578 947 550 875 578 908 b 533 997 578 972 564 997 b 472 925 500 997 472 964 b 517 875 472 897 486 875 "},"ǻ":{"ha":833,"x_min":0,"x_max":0,"o":"m 263 -17 b 39 253 125 -17 39 81 b 408 711 39 508 217 711 b 592 625 497 711 561 678 l 597 625 l 628 694 l 806 694 l 667 0 l 486 0 l 486 92 l 481 92 b 263 -17 417 22 336 -17 m 347 164 b 497 261 392 164 450 192 l 543 478 b 450 531 524 514 479 531 b 269 281 356 531 269 428 b 347 164 269 199 300 164 m 503 792 b 333 919 404 792 333 839 b 415 1049 333 974 364 1019 l 633 1244 l 729 1153 l 601 1075 b 717 953 672 1061 717 1018 b 503 792 717 861 626 792 m 517 875 b 578 947 550 875 578 908 b 533 997 578 972 564 997 b 472 925 500 997 472 964 b 517 875 472 897 486 875 "},"ǎ":{"ha":833,"x_min":0,"x_max":0,"o":"m 263 -17 b 39 253 125 -17 39 81 b 408 711 39 508 217 711 b 592 625 497 711 561 678 l 597 625 l 628 694 l 806 694 l 667 0 l 486 0 l 486 92 l 481 92 b 263 -17 417 22 336 -17 m 347 164 b 497 261 392 164 450 192 l 543 478 b 450 531 524 514 479 531 b 269 281 356 531 269 428 b 347 164 269 199 300 164 m 275 983 l 372 1067 l 525 944 l 531 944 l 739 1067 l 814 978 l 636 806 l 392 806 "},"ą":{"ha":833,"x_min":0,"x_max":0,"o":"m 489 -317 b 347 -194 406 -317 347 -275 b 486 3 347 -100 436 -25 l 486 92 l 481 92 b 263 -17 417 22 336 -17 b 39 253 125 -17 39 81 b 408 711 39 508 217 711 b 592 625 497 711 561 678 l 597 625 l 628 694 l 806 694 l 667 0 b 506 -131 542 -33 506 -86 b 569 -186 506 -167 536 -186 b 625 -172 589 -186 603 -183 l 661 -261 b 489 -317 617 -294 556 -317 m 347 164 b 497 261 392 164 450 192 l 543 478 b 450 531 524 514 479 531 b 269 281 356 531 269 428 b 347 164 269 199 300 164 "},"ạ":{"ha":833,"x_min":0,"x_max":0,"o":"m 263 -17 b 39 253 125 -17 39 81 b 408 711 39 508 217 711 b 592 625 497 711 561 678 l 597 625 l 628 694 l 806 694 l 667 0 l 486 0 l 486 92 l 481 92 b 263 -17 417 22 336 -17 m 347 164 b 497 261 392 164 450 192 l 543 478 b 450 531 524 514 479 531 b 269 281 356 531 269 428 b 347 164 269 199 300 164 m 297 -356 b 161 -235 228 -356 161 -317 b 317 -89 161 -157 229 -89 b 454 -210 396 -89 454 -131 b 297 -356 454 -293 385 -356 "},"ả":{"ha":833,"x_min":0,"x_max":0,"o":"m 263 -17 b 39 253 125 -17 39 81 b 408 711 39 508 217 711 b 592 625 497 711 561 678 l 597 625 l 628 694 l 806 694 l 667 0 l 486 0 l 486 92 l 481 92 b 263 -17 417 22 336 -17 m 347 164 b 497 261 392 164 450 192 l 543 478 b 450 531 524 514 479 531 b 269 281 356 531 269 428 b 347 164 269 199 300 164 m 425 878 b 488 919 456 882 482 892 b 390 975 494 950 469 969 l 432 1119 b 664 936 635 1114 683 1039 b 424 786 644 836 538 792 "},"ấ":{"ha":833,"x_min":0,"x_max":0,"o":"m 263 -17 b 39 253 125 -17 39 81 b 408 711 39 508 217 711 b 592 625 497 711 561 678 l 597 625 l 628 694 l 806 694 l 667 0 l 486 0 l 486 92 l 481 92 b 263 -17 417 22 336 -17 m 347 164 b 497 261 392 164 450 192 l 543 478 b 450 531 524 514 479 531 b 269 281 356 531 269 428 b 347 164 269 199 300 164 m 288 872 l 435 994 l 624 994 l 726 861 l 640 783 l 518 875 l 513 875 l 351 783 m 679 967 l 815 1136 l 925 1044 l 754 890 "},"ầ":{"ha":833,"x_min":0,"x_max":0,"o":"m 263 -17 b 39 253 125 -17 39 81 b 408 711 39 508 217 711 b 592 625 497 711 561 678 l 597 625 l 628 694 l 806 694 l 667 0 l 486 0 l 486 92 l 481 92 b 263 -17 417 22 336 -17 m 347 164 b 497 261 392 164 450 192 l 543 478 b 450 531 524 514 479 531 b 269 281 356 531 269 428 b 347 164 269 199 300 164 m 288 872 l 435 994 l 624 994 l 726 861 l 640 783 l 518 875 l 513 875 l 351 783 m 110 1065 l 249 1133 l 322 946 l 221 885 "},"ẩ":{"ha":833,"x_min":0,"x_max":0,"o":"m 263 -17 b 39 253 125 -17 39 81 b 408 711 39 508 217 711 b 592 625 497 711 561 678 l 597 625 l 628 694 l 806 694 l 667 0 l 486 0 l 486 92 l 481 92 b 263 -17 417 22 336 -17 m 347 164 b 497 261 392 164 450 192 l 543 478 b 450 531 524 514 479 531 b 269 281 356 531 269 428 b 347 164 269 199 300 164 m 289 872 l 436 994 l 625 994 l 728 861 l 642 783 l 519 875 l 514 875 l 353 783 m 717 978 b 758 1011 739 982 754 989 b 678 1053 763 1033 747 1047 l 719 1150 b 917 1036 888 1144 929 1100 b 715 900 897 939 814 911 "},"ẫ":{"ha":833,"x_min":0,"x_max":0,"o":"m 263 -17 b 39 253 125 -17 39 81 b 408 711 39 508 217 711 b 592 625 497 711 561 678 l 597 625 l 628 694 l 806 694 l 667 0 l 486 0 l 486 92 l 481 92 b 263 -17 417 22 336 -17 m 347 164 b 497 261 392 164 450 192 l 543 478 b 450 531 524 514 479 531 b 269 281 356 531 269 428 b 347 164 269 199 300 164 m 300 872 l 442 981 l 631 981 l 739 861 l 653 783 l 525 861 l 519 861 l 364 783 m 619 997 b 489 1056 544 997 525 1056 b 436 1006 469 1056 453 1042 l 333 1017 b 497 1183 368 1136 425 1183 b 628 1125 572 1183 592 1125 b 678 1175 647 1125 664 1139 l 781 1164 b 619 997 749 1044 692 997 "},"ậ":{"ha":833,"x_min":0,"x_max":0,"o":"m 263 -17 b 39 253 125 -17 39 81 b 408 711 39 508 217 711 b 592 625 497 711 561 678 l 597 625 l 628 694 l 806 694 l 667 0 l 486 0 l 486 92 l 481 92 b 263 -17 417 22 336 -17 m 347 164 b 497 261 392 164 450 192 l 543 478 b 450 531 524 514 479 531 b 269 281 356 531 269 428 b 347 164 269 199 300 164 m 233 864 l 411 1036 l 656 1036 l 772 858 l 675 775 l 522 897 l 517 897 l 308 775 m 297 -356 b 161 -235 228 -356 161 -317 b 317 -89 161 -157 229 -89 b 454 -210 396 -89 454 -131 b 297 -356 454 -293 385 -356 "},"ắ":{"ha":833,"x_min":0,"x_max":0,"o":"m 263 -17 b 39 253 125 -17 39 81 b 408 711 39 508 217 711 b 592 625 497 711 561 678 l 597 625 l 628 694 l 806 694 l 667 0 l 486 0 l 486 92 l 481 92 b 263 -17 417 22 336 -17 m 347 164 b 497 261 392 164 450 192 l 543 478 b 450 531 524 514 479 531 b 269 281 356 531 269 428 b 347 164 269 199 300 164 m 497 794 b 294 1017 335 794 275 886 l 419 1039 b 522 928 418 975 447 928 b 664 1039 597 928 643 975 l 778 1017 b 497 794 753 886 661 794 m 453 1063 l 622 1254 l 742 1140 l 542 985 "},"ằ":{"ha":833,"x_min":0,"x_max":0,"o":"m 263 -17 b 39 253 125 -17 39 81 b 408 711 39 508 217 711 b 592 625 497 711 561 678 l 597 625 l 628 694 l 806 694 l 667 0 l 486 0 l 486 92 l 481 92 b 263 -17 417 22 336 -17 m 347 164 b 497 261 392 164 450 192 l 543 478 b 450 531 524 514 479 531 b 269 281 356 531 269 428 b 347 164 269 199 300 164 m 497 794 b 294 1017 335 794 275 886 l 419 1039 b 522 928 418 975 447 928 b 664 1039 597 928 643 975 l 778 1017 b 497 794 753 886 661 794 m 379 1164 l 536 1254 l 632 1039 l 517 979 "},"ẳ":{"ha":833,"x_min":0,"x_max":0,"o":"m 263 -17 b 39 253 125 -17 39 81 b 408 711 39 508 217 711 b 592 625 497 711 561 678 l 597 625 l 628 694 l 806 694 l 667 0 l 486 0 l 486 92 l 481 92 b 263 -17 417 22 336 -17 m 347 164 b 497 261 392 164 450 192 l 543 478 b 450 531 524 514 479 531 b 269 281 356 531 269 428 b 347 164 269 199 300 164 m 497 794 b 299 1017 335 794 276 886 l 422 1039 b 522 928 419 975 447 928 b 667 1039 597 928 644 975 l 782 1017 b 497 794 754 886 661 794 m 481 1054 b 524 1088 504 1058 519 1065 b 443 1129 528 1110 513 1124 l 489 1256 b 681 1113 657 1250 696 1193 b 479 976 663 1015 579 988 "},"ẵ":{"ha":833,"x_min":0,"x_max":0,"o":"m 263 -17 b 39 253 125 -17 39 81 b 408 711 39 508 217 711 b 592 625 497 711 561 678 l 597 625 l 628 694 l 806 694 l 667 0 l 486 0 l 486 92 l 481 92 b 263 -17 417 22 336 -17 m 347 164 b 497 261 392 164 450 192 l 543 478 b 450 531 524 514 479 531 b 269 281 356 531 269 428 b 347 164 269 199 300 164 m 497 794 b 306 956 350 794 297 867 l 422 975 b 517 911 426 942 449 911 b 633 975 586 911 619 942 l 744 956 b 497 794 719 867 644 794 m 608 994 b 478 1053 533 994 514 1053 b 428 1003 458 1053 442 1039 l 311 1014 b 486 1181 343 1133 407 1181 b 617 1122 561 1181 581 1122 b 669 1172 636 1122 653 1136 l 786 1161 b 608 994 751 1042 688 994 "},"ặ":{"ha":833,"x_min":0,"x_max":0,"o":"m 263 -17 b 39 253 125 -17 39 81 b 408 711 39 508 217 711 b 592 625 497 711 561 678 l 597 625 l 628 694 l 806 694 l 667 0 l 486 0 l 486 92 l 481 92 b 263 -17 417 22 336 -17 m 347 164 b 497 261 392 164 450 192 l 543 478 b 450 531 524 514 479 531 b 269 281 356 531 269 428 b 347 164 269 199 300 164 m 500 794 b 297 1017 338 794 278 886 l 436 1039 b 528 942 433 983 461 942 b 653 1039 594 942 633 983 l 781 1017 b 500 794 756 886 664 794 m 297 -356 b 161 -235 228 -356 161 -317 b 317 -89 161 -157 229 -89 b 454 -210 396 -89 454 -131 b 297 -356 454 -293 385 -356 "},"æ":{"ha":833,"x_min":0,"x_max":0,"o":"m 147 -17 b -25 150 31 -17 -25 57 b 335 444 -25 315 81 403 b 274 539 344 497 324 539 b 136 492 226 539 186 524 l 64 619 b 331 711 136 675 225 711 b 468 624 396 711 444 676 b 657 711 525 685 590 711 b 826 483 775 711 826 603 b 788 283 826 385 801 315 l 476 283 b 476 256 476 275 476 265 b 567 153 476 188 511 153 b 689 192 608 153 644 161 l 750 56 b 547 -17 692 8 608 -17 b 347 75 456 -17 388 18 b 147 -17 288 15 225 -17 m 219 150 b 304 192 247 150 279 169 b 303 225 303 203 303 214 b 308 310 303 257 304 286 b 175 197 206 288 175 244 b 219 150 175 167 192 150 m 611 542 b 501 422 567 542 526 494 l 651 422 b 657 474 656 440 657 457 b 611 542 657 515 644 542 "},"ǽ":{"ha":833,"x_min":0,"x_max":0,"o":"m 147 -17 b -25 150 31 -17 -25 57 b 335 444 -25 315 81 403 b 274 539 344 497 324 539 b 136 492 226 539 186 524 l 64 619 b 331 711 136 675 225 711 b 468 624 396 711 444 676 b 657 711 525 685 590 711 b 826 483 775 711 826 603 b 788 283 826 385 801 315 l 476 283 b 476 256 476 275 476 265 b 567 153 476 188 511 153 b 689 192 608 153 644 161 l 750 56 b 547 -17 692 8 608 -17 b 347 75 456 -17 388 18 b 147 -17 288 15 225 -17 m 219 150 b 304 192 247 150 279 169 b 303 225 303 203 303 214 b 308 310 303 257 304 286 b 175 197 206 288 175 244 b 219 150 175 167 192 150 m 611 542 b 501 422 567 542 526 494 l 651 422 b 657 474 656 440 657 457 b 611 542 657 515 644 542 m 371 928 l 636 1167 l 768 997 l 467 803 "},"ǣ":{"ha":833,"x_min":0,"x_max":0,"o":"m 147 -17 b -25 150 31 -17 -25 57 b 335 444 -25 315 81 403 b 274 539 344 497 324 539 b 136 492 226 539 186 524 l 64 619 b 331 711 136 675 225 711 b 468 624 396 711 444 676 b 657 711 525 685 590 711 b 826 483 775 711 826 603 b 788 283 826 385 801 315 l 476 283 b 476 256 476 275 476 265 b 567 153 476 188 511 153 b 689 192 608 153 644 161 l 750 56 b 547 -17 692 8 608 -17 b 347 75 456 -17 388 18 b 147 -17 288 15 225 -17 m 219 150 b 304 192 247 150 279 169 b 303 225 303 203 303 214 b 308 310 303 257 304 286 b 175 197 206 288 175 244 b 219 150 175 167 192 150 m 611 542 b 501 422 567 542 526 494 l 651 422 b 657 474 656 440 657 457 b 611 542 657 515 644 542 m 319 958 l 728 958 l 700 819 l 292 819 "},"ƀ":{"ha":833,"x_min":0,"x_max":0,"o":"m 408 -17 b 228 69 333 -17 261 17 l 225 69 l 194 0 l 11 0 l 165 768 l 75 768 l 94 864 l 186 871 l 206 967 l 428 967 l 408 872 l 651 872 l 631 768 l 388 768 l 381 736 l 339 589 l 342 589 b 547 683 401 650 481 683 b 775 428 694 683 775 592 b 408 -17 775 178 597 -17 m 375 164 b 544 400 461 164 544 261 b 458 503 544 472 508 503 b 314 397 414 503 361 475 l 278 217 b 375 164 297 181 336 164 "},"ḇ":{"ha":833,"x_min":0,"x_max":0,"o":"m 408 -17 b 228 69 333 -17 261 17 l 225 69 l 194 0 l 11 0 l 206 967 l 428 967 l 386 764 l 344 617 l 347 617 b 553 711 407 678 486 711 b 778 442 697 711 778 614 b 408 -17 778 186 600 -17 m 375 164 b 547 414 463 164 547 267 b 464 531 547 497 511 531 b 319 425 419 531 367 503 l 278 217 b 375 164 297 181 336 164 m 108 -131 l 517 -131 l 489 -269 l 81 -269 "},"ç":{"ha":833,"x_min":0,"x_max":0,"o":"m 181 -247 b 331 -189 286 -242 322 -228 b 233 -133 333 -164 317 -144 l 321 -7 b 81 286 185 24 81 121 b 506 711 81 542 278 711 b 775 583 631 711 725 647 l 642 461 b 492 531 597 508 544 531 b 306 306 397 531 306 433 b 450 164 306 208 375 164 b 608 236 515 164 558 196 l 685 86 b 451 -15 624 29 547 -8 l 408 -83 b 500 -189 478 -100 508 -131 b 181 -339 481 -289 367 -333 "},"ć":{"ha":833,"x_min":0,"x_max":0,"o":"m 417 -17 b 81 286 236 -17 81 83 b 506 711 81 542 278 711 b 775 583 631 711 725 647 l 642 461 b 492 531 597 508 544 531 b 306 306 397 531 306 433 b 450 164 306 208 375 164 b 608 236 515 164 558 196 l 685 86 b 417 -17 617 22 528 -17 m 426 928 l 692 1167 l 824 997 l 522 803 "},"ĉ":{"ha":833,"x_min":0,"x_max":0,"o":"m 417 -17 b 81 286 236 -17 81 83 b 506 711 81 542 278 711 b 775 583 631 711 725 647 l 642 461 b 492 531 597 508 544 531 b 306 306 397 531 306 433 b 450 164 306 208 375 164 b 608 236 515 164 558 196 l 685 86 b 417 -17 617 22 528 -17 m 281 864 l 458 1036 l 703 1036 l 819 858 l 722 775 l 569 897 l 564 897 l 356 775 "},"č":{"ha":833,"x_min":0,"x_max":0,"o":"m 417 -17 b 81 286 236 -17 81 83 b 506 711 81 542 278 711 b 775 583 631 711 725 647 l 642 461 b 492 531 597 508 544 531 b 306 306 397 531 306 433 b 450 164 306 208 375 164 b 608 236 515 164 558 196 l 685 86 b 417 -17 617 22 528 -17 m 322 983 l 419 1067 l 572 944 l 578 944 l 786 1067 l 861 978 l 683 806 l 439 806 "},"ċ":{"ha":833,"x_min":0,"x_max":0,"o":"m 417 -17 b 81 286 236 -17 81 83 b 506 711 81 542 278 711 b 775 583 631 711 725 647 l 642 461 b 492 531 597 508 544 531 b 306 306 397 531 306 433 b 450 164 306 208 375 164 b 608 236 515 164 558 196 l 685 86 b 417 -17 617 22 528 -17 m 561 792 b 425 913 492 792 425 831 b 581 1058 425 990 493 1058 b 718 938 660 1058 718 1017 b 561 792 718 854 649 792 "},"ď":{"ha":833,"x_min":0,"x_max":0,"o":"m 167 -17 b 0 253 65 -17 0 81 b 344 711 0 508 158 711 b 464 647 393 711 433 689 l 467 647 l 481 778 l 517 967 l 739 967 l 544 0 l 364 0 l 358 64 l 356 64 b 167 -17 297 3 229 -17 m 278 164 b 369 233 306 164 333 175 l 422 492 b 372 531 411 517 394 531 b 231 281 300 531 231 428 b 278 164 231 199 253 164 m 822 1144 l 1028 1144 l 994 1000 l 900 761 l 758 761 "},"ḍ":{"ha":833,"x_min":0,"x_max":0,"o":"m 261 -17 b 39 253 125 -17 39 81 b 408 711 39 508 217 711 b 583 633 497 711 550 681 l 586 633 l 600 764 l 639 967 l 861 967 l 667 0 l 486 0 l 486 92 l 481 92 b 261 -17 417 22 336 -17 m 347 164 b 497 261 392 164 450 192 l 542 478 b 450 531 522 514 479 531 b 269 281 356 531 269 428 b 347 164 269 200 300 164 m 297 -356 b 161 -235 228 -356 161 -317 b 317 -89 161 -157 229 -89 b 454 -210 396 -89 454 -131 b 297 -356 454 -293 385 -356 "},"ḏ":{"ha":833,"x_min":0,"x_max":0,"o":"m 261 -17 b 39 253 125 -17 39 81 b 408 711 39 508 217 711 b 583 633 497 711 550 681 l 586 633 l 600 764 l 639 967 l 861 967 l 667 0 l 486 0 l 486 92 l 481 92 b 261 -17 417 22 336 -17 m 347 164 b 497 261 392 164 450 192 l 542 478 b 450 531 522 514 479 531 b 269 281 356 531 269 428 b 347 164 269 200 300 164 m 122 -131 l 531 -131 l 503 -269 l 94 -269 "},"ḑ":{"ha":833,"x_min":0,"x_max":0,"o":"m 347 164 b 497 261 392 164 450 192 l 542 478 b 450 531 522 514 479 531 b 269 281 356 531 269 428 b 347 164 269 200 300 164 m 83 -247 b 233 -189 189 -242 225 -228 b 136 -133 236 -164 219 -144 l 218 -14 b 39 253 107 6 39 100 b 408 711 39 508 217 711 b 583 633 497 711 550 681 l 586 633 l 600 764 l 639 967 l 861 967 l 667 0 l 486 0 l 486 92 l 481 92 b 371 10 447 56 410 28 l 311 -83 b 403 -189 381 -100 411 -131 b 83 -339 383 -289 269 -333 "},"đ":{"ha":833,"x_min":0,"x_max":0,"o":"m 244 -17 b 22 253 108 -17 22 81 b 386 683 22 492 183 683 b 561 606 475 683 528 653 l 564 606 l 578 736 l 585 769 l 375 769 l 396 872 l 604 872 l 622 967 l 844 967 l 825 872 l 917 872 l 897 778 l 806 771 l 650 0 l 469 0 l 469 92 l 464 92 b 244 -17 400 22 319 -17 m 331 164 b 481 261 375 164 433 192 l 519 450 b 428 503 500 486 457 503 b 253 281 322 503 253 411 b 331 164 253 200 283 164 "},"è":{"ha":833,"x_min":0,"x_max":0,"o":"m 369 -17 b 56 294 192 -17 56 78 b 461 711 56 544 247 711 b 750 436 644 711 750 600 b 725 283 750 375 733 308 l 279 283 b 422 153 286 179 351 153 b 619 219 497 153 556 181 l 692 72 b 369 -17 606 14 494 -17 m 456 542 b 300 422 404 542 335 506 l 546 422 b 547 440 547 428 547 435 b 456 542 547 508 511 542 m 311 1031 l 500 1172 l 672 896 l 536 790 "},"é":{"ha":833,"x_min":0,"x_max":0,"o":"m 369 -17 b 56 294 192 -17 56 78 b 461 711 56 544 247 711 b 750 436 644 711 750 600 b 725 283 750 375 733 308 l 279 283 b 422 153 286 179 351 153 b 619 219 497 153 556 181 l 692 72 b 369 -17 606 14 494 -17 m 456 542 b 300 422 404 542 335 506 l 546 422 b 547 440 547 428 547 435 b 456 542 547 508 511 542 m 371 928 l 636 1167 l 768 997 l 467 803 "},"ê":{"ha":833,"x_min":0,"x_max":0,"o":"m 369 -17 b 56 294 192 -17 56 78 b 461 711 56 544 247 711 b 750 436 644 711 750 600 b 725 283 750 375 733 308 l 279 283 b 422 153 286 179 351 153 b 619 219 497 153 556 181 l 692 72 b 369 -17 606 14 494 -17 m 456 542 b 300 422 404 542 335 506 l 546 422 b 547 440 547 428 547 435 b 456 542 547 508 511 542 m 225 864 l 403 1036 l 647 1036 l 764 858 l 667 775 l 514 897 l 508 897 l 300 775 "},"ě":{"ha":833,"x_min":0,"x_max":0,"o":"m 369 -17 b 56 294 192 -17 56 78 b 461 711 56 544 247 711 b 750 436 644 711 750 600 b 725 283 750 375 733 308 l 279 283 b 422 153 286 179 351 153 b 619 219 497 153 556 181 l 692 72 b 369 -17 606 14 494 -17 m 456 542 b 300 422 404 542 335 506 l 546 422 b 547 440 547 428 547 435 b 456 542 547 508 511 542 m 267 983 l 364 1067 l 517 944 l 522 944 l 731 1067 l 806 978 l 628 806 l 383 806 "},"ë":{"ha":833,"x_min":0,"x_max":0,"o":"m 369 -17 b 56 294 192 -17 56 78 b 461 711 56 544 247 711 b 750 436 644 711 750 600 b 725 283 750 375 733 308 l 279 283 b 422 153 286 179 351 153 b 619 219 497 153 556 181 l 692 72 b 369 -17 606 14 494 -17 m 456 542 b 300 422 404 542 335 506 l 546 422 b 547 440 547 428 547 435 b 456 542 547 508 511 542 m 344 786 b 253 878 293 786 253 818 b 369 992 253 938 303 992 b 461 900 421 992 461 957 b 344 786 461 836 411 786 m 650 786 b 558 878 599 786 558 818 b 675 992 558 938 608 992 b 767 900 726 992 767 957 b 650 786 767 836 717 786 "},"ē":{"ha":833,"x_min":0,"x_max":0,"o":"m 369 -17 b 56 294 192 -17 56 78 b 461 711 56 544 247 711 b 750 436 644 711 750 600 b 725 283 750 375 733 308 l 279 283 b 422 153 286 179 351 153 b 619 219 497 153 556 181 l 692 72 b 369 -17 606 14 494 -17 m 456 542 b 300 422 404 542 335 506 l 546 422 b 547 440 547 428 547 435 b 456 542 547 508 511 542 m 319 958 l 728 958 l 700 819 l 292 819 "},"ĕ":{"ha":833,"x_min":0,"x_max":0,"o":"m 369 -17 b 56 294 192 -17 56 78 b 461 711 56 544 247 711 b 750 436 644 711 750 600 b 725 283 750 375 733 308 l 279 283 b 422 153 286 179 351 153 b 619 219 497 153 556 181 l 692 72 b 369 -17 606 14 494 -17 m 456 542 b 300 422 404 542 335 506 l 546 422 b 547 440 547 428 547 435 b 456 542 547 508 511 542 m 492 794 b 289 1017 329 794 269 886 l 428 1039 b 519 942 425 983 453 942 b 644 1039 586 942 625 983 l 772 1017 b 492 794 747 886 656 794 "},"ę":{"ha":833,"x_min":0,"x_max":0,"o":"m 453 -317 b 311 -194 369 -317 311 -275 b 431 -11 311 -111 378 -50 b 369 -17 414 -14 386 -17 b 56 294 192 -17 56 78 b 461 711 56 544 247 711 b 750 436 644 711 750 600 b 725 283 750 375 733 308 l 279 283 b 422 153 286 179 351 153 b 619 219 497 153 556 181 l 692 72 b 469 -131 544 -11 469 -71 b 533 -186 469 -167 500 -186 b 589 -172 553 -186 567 -183 l 625 -261 b 453 -317 581 -294 519 -317 m 456 542 b 300 422 404 542 335 506 l 546 422 b 547 440 547 428 547 435 b 456 542 547 508 511 542 "},"ė":{"ha":833,"x_min":0,"x_max":0,"o":"m 369 -17 b 56 294 192 -17 56 78 b 461 711 56 544 247 711 b 750 436 644 711 750 600 b 725 283 750 375 733 308 l 279 283 b 422 153 286 179 351 153 b 619 219 497 153 556 181 l 692 72 b 369 -17 606 14 494 -17 m 456 542 b 300 422 404 542 335 506 l 546 422 b 547 440 547 428 547 435 b 456 542 547 508 511 542 m 506 792 b 369 913 436 792 369 831 b 525 1058 369 990 438 1058 b 663 938 604 1058 663 1017 b 506 792 663 854 593 792 "},"ẹ":{"ha":833,"x_min":0,"x_max":0,"o":"m 369 -17 b 56 294 192 -17 56 78 b 461 711 56 544 247 711 b 750 436 644 711 750 600 b 725 283 750 375 733 308 l 279 283 b 422 153 286 179 351 153 b 619 219 497 153 556 181 l 692 72 b 369 -17 606 14 494 -17 m 456 542 b 300 422 404 542 335 506 l 546 422 b 547 440 547 428 547 435 b 456 542 547 508 511 542 m 306 -356 b 169 -235 236 -356 169 -317 b 325 -89 169 -157 238 -89 b 463 -210 404 -89 463 -131 b 306 -356 463 -293 393 -356 "},"ẻ":{"ha":833,"x_min":0,"x_max":0,"o":"m 369 -17 b 56 294 192 -17 56 78 b 461 711 56 544 247 711 b 750 436 644 711 750 600 b 725 283 750 375 733 308 l 279 283 b 422 153 286 179 351 153 b 619 219 497 153 556 181 l 692 72 b 369 -17 606 14 494 -17 m 456 542 b 300 422 404 542 335 506 l 546 422 b 547 440 547 428 547 435 b 456 542 547 508 511 542 m 417 878 b 479 919 447 882 474 892 b 382 975 486 950 461 969 l 424 1119 b 656 936 626 1114 675 1039 b 415 786 636 836 529 792 "},"ẽ":{"ha":833,"x_min":0,"x_max":0,"o":"m 369 -17 b 56 294 192 -17 56 78 b 461 711 56 544 247 711 b 750 436 644 711 750 600 b 725 283 750 375 733 308 l 279 283 b 422 153 286 179 351 153 b 619 219 497 153 556 181 l 692 72 b 369 -17 606 14 494 -17 m 456 542 b 300 422 404 542 335 506 l 546 422 b 547 440 547 428 547 435 b 456 542 547 508 511 542 m 594 794 b 422 872 504 794 475 872 b 369 808 400 872 378 858 l 225 817 b 433 1036 250 974 329 1036 b 606 958 524 1036 553 958 b 658 1022 628 958 650 972 l 803 1014 b 594 794 778 857 699 794 "},"ế":{"ha":833,"x_min":0,"x_max":0,"o":"m 369 -17 b 56 294 192 -17 56 78 b 461 711 56 544 247 711 b 750 436 644 711 750 600 b 725 283 750 375 733 308 l 279 283 b 422 153 286 179 351 153 b 619 219 497 153 556 181 l 692 72 b 369 -17 606 14 494 -17 m 456 542 b 300 422 404 542 335 506 l 546 422 b 547 440 547 428 547 435 b 456 542 547 508 511 542 m 279 872 l 426 994 l 615 994 l 718 861 l 632 783 l 510 875 l 504 875 l 343 783 m 671 967 l 807 1136 l 917 1044 l 746 890 "},"ề":{"ha":833,"x_min":0,"x_max":0,"o":"m 369 -17 b 56 294 192 -17 56 78 b 461 711 56 544 247 711 b 750 436 644 711 750 600 b 725 283 750 375 733 308 l 279 283 b 422 153 286 179 351 153 b 619 219 497 153 556 181 l 692 72 b 369 -17 606 14 494 -17 m 456 542 b 300 422 404 542 335 506 l 546 422 b 547 440 547 428 547 435 b 456 542 547 508 511 542 m 279 872 l 426 994 l 615 994 l 718 861 l 632 783 l 510 875 l 504 875 l 343 783 m 101 1065 l 240 1133 l 314 946 l 213 885 "},"ể":{"ha":833,"x_min":0,"x_max":0,"o":"m 369 -17 b 56 294 192 -17 56 78 b 461 711 56 544 247 711 b 750 436 644 711 750 600 b 725 283 750 375 733 308 l 279 283 b 422 153 286 179 351 153 b 619 219 497 153 556 181 l 692 72 b 369 -17 606 14 494 -17 m 456 542 b 300 422 404 542 335 506 l 546 422 b 547 440 547 428 547 435 b 456 542 547 508 511 542 m 281 872 l 428 994 l 617 994 l 719 861 l 633 783 l 511 875 l 506 875 l 344 783 m 708 978 b 750 1011 731 982 746 989 b 669 1053 754 1033 739 1047 l 711 1150 b 908 1036 879 1144 921 1100 b 707 900 889 939 806 911 "},"ễ":{"ha":833,"x_min":0,"x_max":0,"o":"m 369 -17 b 56 294 192 -17 56 78 b 461 711 56 544 247 711 b 750 436 644 711 750 600 b 725 283 750 375 733 308 l 279 283 b 422 153 286 179 351 153 b 619 219 497 153 556 181 l 692 72 b 369 -17 606 14 494 -17 m 456 542 b 300 422 404 542 335 506 l 546 422 b 547 440 547 428 547 435 b 456 542 547 508 511 542 m 292 872 l 433 981 l 622 981 l 731 861 l 644 783 l 517 861 l 511 861 l 356 783 m 611 997 b 481 1056 536 997 517 1056 b 428 1006 461 1056 444 1042 l 325 1017 b 489 1183 360 1136 417 1183 b 619 1125 564 1183 583 1125 b 669 1175 639 1125 656 1139 l 772 1164 b 611 997 740 1044 683 997 "},"ệ":{"ha":833,"x_min":0,"x_max":0,"o":"m 369 -17 b 56 294 192 -17 56 78 b 461 711 56 544 247 711 b 750 436 644 711 750 600 b 725 283 750 375 733 308 l 279 283 b 422 153 286 179 351 153 b 619 219 497 153 556 181 l 692 72 b 369 -17 606 14 494 -17 m 456 542 b 300 422 404 542 335 506 l 546 422 b 547 440 547 428 547 435 b 456 542 547 508 511 542 m 225 864 l 403 1036 l 647 1036 l 764 858 l 667 775 l 514 897 l 508 897 l 300 775 m 306 -356 b 169 -235 236 -356 169 -317 b 325 -89 169 -157 238 -89 b 463 -210 404 -89 463 -131 b 306 -356 463 -293 393 -356 "},"ḗ":{"ha":833,"x_min":0,"x_max":0,"o":"m 369 -17 b 56 294 192 -17 56 78 b 461 711 56 544 247 711 b 750 436 644 711 750 600 b 725 283 750 375 733 308 l 279 283 b 422 153 286 179 351 153 b 619 219 497 153 556 181 l 692 72 b 369 -17 606 14 494 -17 m 456 542 b 300 422 404 542 335 506 l 546 422 b 547 440 547 428 547 435 b 456 542 547 508 511 542 m 319 958 l 728 958 l 700 819 l 292 819 m 472 1061 l 611 1244 l 721 1153 l 550 999 "},"ǵ":{"ha":833,"x_min":0,"x_max":0,"o":"m 290 -261 b -3 -168 160 -261 68 -222 l 92 -14 b 285 -86 143 -58 215 -86 b 461 19 354 -86 431 -78 l 489 108 l 483 108 b 283 28 433 61 356 28 b 50 286 138 28 50 131 b 408 711 50 536 228 711 b 592 625 497 711 561 678 l 597 625 l 631 694 l 806 694 l 672 31 b 290 -261 626 -196 465 -261 m 364 208 b 500 278 411 208 458 232 l 542 475 b 446 531 517 511 485 531 b 281 319 375 531 281 456 b 364 208 281 242 308 208 m 379 928 l 644 1167 l 776 997 l 475 803 "},"ĝ":{"ha":833,"x_min":0,"x_max":0,"o":"m 290 -261 b -3 -168 160 -261 68 -222 l 92 -14 b 285 -86 143 -58 215 -86 b 461 19 354 -86 431 -78 l 489 108 l 483 108 b 283 28 433 61 356 28 b 50 286 138 28 50 131 b 408 711 50 536 228 711 b 592 625 497 711 561 678 l 597 625 l 631 694 l 806 694 l 672 31 b 290 -261 626 -196 465 -261 m 364 208 b 500 278 411 208 458 232 l 542 475 b 446 531 517 511 485 531 b 281 319 375 531 281 456 b 364 208 281 242 308 208 m 233 864 l 411 1036 l 656 1036 l 772 858 l 675 775 l 522 897 l 517 897 l 308 775 "},"ğ":{"ha":833,"x_min":0,"x_max":0,"o":"m 290 -261 b -3 -168 160 -261 68 -222 l 92 -14 b 285 -86 143 -58 215 -86 b 461 19 354 -86 431 -78 l 489 108 l 483 108 b 283 28 433 61 356 28 b 50 286 138 28 50 131 b 408 711 50 536 228 711 b 592 625 497 711 561 678 l 597 625 l 631 694 l 806 694 l 672 31 b 290 -261 626 -196 465 -261 m 364 208 b 500 278 411 208 458 232 l 542 475 b 446 531 517 511 485 531 b 281 319 375 531 281 456 b 364 208 281 242 308 208 m 500 794 b 297 1017 338 794 278 886 l 436 1039 b 528 942 433 983 461 942 b 653 1039 594 942 633 983 l 781 1017 b 500 794 756 886 664 794 "},"ġ":{"ha":833,"x_min":0,"x_max":0,"o":"m 290 -261 b -3 -168 160 -261 68 -222 l 92 -14 b 285 -86 143 -58 215 -86 b 461 19 354 -86 431 -78 l 489 108 l 483 108 b 283 28 433 61 356 28 b 50 286 138 28 50 131 b 408 711 50 536 228 711 b 592 625 497 711 561 678 l 597 625 l 631 694 l 806 694 l 672 31 b 290 -261 626 -196 465 -261 m 364 208 b 500 278 411 208 458 232 l 542 475 b 446 531 517 511 485 531 b 281 319 375 531 281 456 b 364 208 281 242 308 208 m 514 792 b 378 913 444 792 378 831 b 533 1058 378 990 446 1058 b 671 938 613 1058 671 1017 b 514 792 671 854 601 792 "},"ģ":{"ha":833,"x_min":0,"x_max":0,"o":"m 290 -261 b -3 -168 160 -261 68 -222 l 92 -14 b 285 -86 143 -58 215 -86 b 461 19 354 -86 431 -78 l 489 108 l 483 108 b 283 28 433 61 356 28 b 50 286 138 28 50 131 b 408 711 50 536 228 711 b 592 625 497 711 561 678 l 597 625 l 631 694 l 806 694 l 672 31 b 290 -261 626 -196 465 -261 m 364 208 b 500 278 411 208 458 232 l 542 475 b 446 531 517 511 485 531 b 281 319 375 531 281 456 b 364 208 281 242 308 208 m 542 758 b 393 854 440 768 393 799 b 679 1022 393 967 510 1017 l 678 936 b 554 879 607 929 554 917 b 599 838 554 860 565 847 l 542 758 "},"ǧ":{"ha":833,"x_min":0,"x_max":0,"o":"m 290 -261 b -3 -168 160 -261 68 -222 l 92 -14 b 285 -86 143 -58 215 -86 b 461 19 354 -86 431 -78 l 489 108 l 483 108 b 283 28 433 61 356 28 b 50 286 138 28 50 131 b 408 711 50 536 228 711 b 592 625 497 711 561 678 l 597 625 l 631 694 l 806 694 l 672 31 b 290 -261 626 -196 465 -261 m 364 208 b 500 278 411 208 458 232 l 542 475 b 446 531 517 511 485 531 b 281 319 375 531 281 456 b 364 208 281 242 308 208 m 275 983 l 372 1067 l 525 944 l 531 944 l 739 1067 l 814 978 l 636 806 l 392 806 "},"ḡ":{"ha":833,"x_min":0,"x_max":0,"o":"m 290 -261 b -3 -168 160 -261 68 -222 l 92 -14 b 285 -86 143 -58 215 -86 b 461 19 354 -86 431 -78 l 489 108 l 483 108 b 283 28 433 61 356 28 b 50 286 138 28 50 131 b 408 711 50 536 228 711 b 592 625 497 711 561 678 l 597 625 l 631 694 l 806 694 l 672 31 b 290 -261 626 -196 465 -261 m 364 208 b 500 278 411 208 458 232 l 542 475 b 446 531 517 511 485 531 b 281 319 375 531 281 456 b 364 208 281 242 308 208 m 328 958 l 736 958 l 708 819 l 300 819 "},"ĥ":{"ha":833,"x_min":0,"x_max":0,"o":"m 206 967 l 428 967 l 375 711 l 339 589 l 344 589 b 583 711 408 658 499 711 b 764 531 697 711 764 650 b 753 431 764 500 760 464 l 667 0 l 444 0 l 525 403 b 535 465 531 428 535 449 b 478 522 535 504 514 522 b 314 414 432 522 368 486 l 233 0 l 11 0 m 64 1097 l 231 1272 l 492 1272 l 597 1089 l 489 1028 l 353 1153 l 347 1153 l 156 1028 "},"ḧ":{"ha":833,"x_min":0,"x_max":0,"o":"m 206 967 l 428 967 l 375 711 l 339 589 l 344 589 b 583 711 408 658 499 711 b 764 531 697 711 764 650 b 753 431 764 500 760 464 l 667 0 l 444 0 l 525 403 b 535 465 531 428 535 449 b 478 522 535 504 514 522 b 314 414 432 522 368 486 l 233 0 l 11 0 m 186 1050 b 97 1139 136 1050 97 1083 b 211 1256 97 1194 144 1256 b 300 1167 258 1256 300 1222 b 186 1050 300 1111 253 1050 m 492 1050 b 403 1139 442 1050 403 1083 b 517 1256 403 1194 450 1256 b 606 1167 564 1256 606 1222 b 492 1050 606 1111 558 1050 "},"ḥ":{"ha":833,"x_min":0,"x_max":0,"o":"m 206 967 l 428 967 l 375 711 l 339 589 l 344 589 b 583 711 408 658 499 711 b 764 531 697 711 764 650 b 753 431 764 500 760 464 l 667 0 l 444 0 l 525 403 b 535 465 531 428 535 449 b 478 522 535 504 514 522 b 314 414 432 522 368 486 l 233 0 l 11 0 m 297 -356 b 161 -235 228 -356 161 -317 b 317 -89 161 -157 229 -89 b 454 -210 396 -89 454 -131 b 297 -356 454 -293 385 -356 "},"ẖ":{"ha":833,"x_min":0,"x_max":0,"o":"m 206 967 l 428 967 l 375 711 l 339 589 l 344 589 b 583 711 408 658 499 711 b 764 531 697 711 764 650 b 753 431 764 500 760 464 l 667 0 l 444 0 l 525 403 b 535 465 531 428 535 449 b 478 522 535 504 514 522 b 314 414 432 522 368 486 l 233 0 l 11 0 m 122 -131 l 531 -131 l 503 -269 l 94 -269 "},"ḩ":{"ha":833,"x_min":0,"x_max":0,"o":"m 206 967 l 428 967 l 375 711 l 339 589 l 344 589 b 583 711 408 658 499 711 b 764 531 697 711 764 650 b 753 431 764 500 760 464 l 667 0 l 444 0 l 525 403 b 535 465 531 428 535 449 b 478 522 535 504 514 522 b 314 414 432 522 368 486 l 233 0 l 197 0 l 144 -83 b 236 -189 214 -100 244 -131 b -83 -339 217 -289 103 -333 l -83 -247 b 67 -189 22 -242 58 -228 b -31 -133 69 -164 53 -144 l 61 0 l 11 0 "},"ḫ":{"ha":833,"x_min":0,"x_max":0,"o":"m 206 967 l 428 967 l 375 711 l 339 589 l 344 589 b 583 711 408 658 499 711 b 764 531 697 711 764 650 b 753 431 764 500 760 464 l 667 0 l 444 0 l 525 403 b 535 465 531 428 535 449 b 478 522 535 504 514 522 b 314 414 432 522 368 486 l 233 0 l 11 0 m 289 -325 b 86 -103 126 -325 67 -233 l 225 -81 b 317 -178 222 -136 250 -178 b 442 -81 383 -178 422 -136 l 569 -103 b 289 -325 544 -233 453 -325 "},"ħ":{"ha":833,"x_min":0,"x_max":0,"o":"m 168 769 l 75 769 l 94 864 l 189 871 l 208 967 l 431 967 l 411 872 l 653 872 l 633 769 l 390 769 l 372 681 l 336 558 l 342 558 b 581 681 406 628 496 681 b 761 500 694 681 761 619 b 750 400 761 469 757 433 l 669 0 l 447 0 l 522 372 b 532 435 528 397 532 418 b 475 492 532 474 511 492 b 311 383 429 492 365 456 l 236 0 l 14 0 "},"ì":{"ha":833,"x_min":0,"x_max":0,"o":"m 472 -17 b 239 192 331 -17 239 64 b 253 278 239 219 244 247 l 317 522 l 97 522 l 133 694 l 575 694 l 472 269 b 467 236 469 258 467 247 b 542 164 467 185 497 164 b 642 189 572 164 600 172 l 686 22 b 472 -17 625 -3 561 -17 m 283 1031 l 472 1172 l 644 896 l 508 790 "},"í":{"ha":833,"x_min":0,"x_max":0,"o":"m 472 -17 b 239 192 331 -17 239 64 b 253 278 239 219 244 247 l 317 522 l 97 522 l 133 694 l 575 694 l 472 269 b 467 236 469 258 467 247 b 542 164 467 185 497 164 b 642 189 572 164 600 172 l 686 22 b 472 -17 625 -3 561 -17 m 343 928 l 608 1167 l 740 997 l 439 803 "},"î":{"ha":833,"x_min":0,"x_max":0,"o":"m 472 -17 b 239 192 331 -17 239 64 b 253 278 239 219 244 247 l 317 522 l 97 522 l 133 694 l 575 694 l 472 269 b 467 236 469 258 467 247 b 542 164 467 185 497 164 b 642 189 572 164 600 172 l 686 22 b 472 -17 625 -3 561 -17 m 197 864 l 375 1036 l 619 1036 l 736 858 l 639 775 l 486 897 l 481 897 l 272 775 "},"ĩ":{"ha":833,"x_min":0,"x_max":0,"o":"m 472 -17 b 239 192 331 -17 239 64 b 253 278 239 219 244 247 l 317 522 l 97 522 l 133 694 l 575 694 l 472 269 b 467 236 469 258 467 247 b 542 164 467 185 497 164 b 642 189 572 164 600 172 l 686 22 b 472 -17 625 -3 561 -17 m 567 794 b 394 872 476 794 447 872 b 342 808 372 872 350 858 l 197 817 b 406 1036 222 974 301 1036 b 578 958 496 1036 525 958 b 631 1022 600 958 622 972 l 775 1014 b 567 794 750 857 671 794 "},"ï":{"ha":833,"x_min":0,"x_max":0,"o":"m 472 -17 b 239 192 331 -17 239 64 b 253 278 239 219 244 247 l 317 522 l 97 522 l 133 694 l 575 694 l 472 269 b 467 236 469 258 467 247 b 542 164 467 185 497 164 b 642 189 572 164 600 172 l 686 22 b 472 -17 625 -3 561 -17 m 317 786 b 225 878 265 786 225 818 b 342 992 225 938 275 992 b 433 900 393 992 433 957 b 317 786 433 836 383 786 m 622 786 b 531 878 571 786 531 818 b 647 992 531 938 581 992 b 739 900 699 992 739 957 b 622 786 739 836 689 786 "},"ī":{"ha":833,"x_min":0,"x_max":0,"o":"m 472 -17 b 239 192 331 -17 239 64 b 253 278 239 219 244 247 l 317 522 l 97 522 l 133 694 l 575 694 l 472 269 b 467 236 469 258 467 247 b 542 164 467 185 497 164 b 642 189 572 164 600 172 l 686 22 b 472 -17 625 -3 561 -17 m 292 958 l 700 958 l 672 819 l 264 819 "},"ǐ":{"ha":833,"x_min":0,"x_max":0,"o":"m 472 -17 b 239 192 331 -17 239 64 b 253 278 239 219 244 247 l 317 522 l 97 522 l 133 694 l 575 694 l 472 269 b 467 236 469 258 467 247 b 542 164 467 185 497 164 b 642 189 572 164 600 172 l 686 22 b 472 -17 625 -3 561 -17 m 239 983 l 336 1067 l 489 944 l 494 944 l 703 1067 l 778 978 l 600 806 l 356 806 "},"į":{"ha":833,"x_min":0,"x_max":0,"o":"m 475 -317 b 333 -194 392 -317 333 -275 b 464 -17 333 -114 392 -61 l 458 -17 b 239 192 333 -17 239 64 b 253 278 239 219 244 247 l 317 522 l 97 522 l 133 694 l 575 694 l 472 269 b 467 236 469 258 467 247 b 542 164 467 185 497 164 b 642 189 572 164 600 172 l 686 22 b 492 -131 544 -36 492 -81 b 556 -186 492 -167 522 -186 b 611 -172 575 -186 589 -183 l 647 -261 b 475 -317 603 -294 542 -317 m 478 792 b 342 913 408 792 342 831 b 497 1058 342 990 410 1058 b 635 938 576 1058 635 1017 b 478 792 635 854 565 792 "},"ỉ":{"ha":833,"x_min":0,"x_max":0,"o":"m 472 -17 b 239 192 331 -17 239 64 b 253 278 239 219 244 247 l 317 522 l 97 522 l 133 694 l 575 694 l 472 269 b 467 236 469 258 467 247 b 542 164 467 185 497 164 b 642 189 572 164 600 172 l 686 22 b 472 -17 625 -3 561 -17 m 389 878 b 451 919 419 882 446 892 b 354 975 458 950 433 969 l 396 1119 b 628 936 599 1114 647 1039 b 388 786 608 836 501 792 "},"ị":{"ha":833,"x_min":0,"x_max":0,"o":"m 472 -17 b 239 192 331 -17 239 64 b 253 278 239 219 244 247 l 317 522 l 97 522 l 133 694 l 575 694 l 472 269 b 467 236 469 258 467 247 b 542 164 467 185 497 164 b 642 189 572 164 600 172 l 686 22 b 472 -17 625 -3 561 -17 m 478 792 b 342 913 408 792 342 831 b 497 1058 342 990 410 1058 b 635 938 576 1058 635 1017 b 478 792 635 854 565 792 m 372 -356 b 236 -235 303 -356 236 -317 b 392 -89 236 -157 304 -89 b 529 -210 471 -89 529 -131 b 372 -356 529 -293 460 -356 "},"ĭ":{"ha":833,"x_min":0,"x_max":0,"o":"m 472 -17 b 239 192 331 -17 239 64 b 253 278 239 219 244 247 l 317 522 l 97 522 l 133 694 l 575 694 l 472 269 b 467 236 469 258 467 247 b 542 164 467 185 497 164 b 642 189 572 164 600 172 l 686 22 b 472 -17 625 -3 561 -17 m 464 794 b 261 1017 301 794 242 886 l 400 1039 b 492 942 397 983 425 942 b 617 1039 558 942 597 983 l 744 1017 b 464 794 719 886 628 794 "},"ı":{"ha":833,"x_min":0,"x_max":0,"o":"m 472 -17 b 239 192 331 -17 239 64 b 253 278 239 219 244 247 l 317 522 l 97 522 l 133 694 l 575 694 l 472 269 b 467 236 469 258 467 247 b 542 164 467 185 497 164 b 642 189 572 164 600 172 l 686 22 b 472 -17 625 -3 561 -17 "},"ĵ":{"ha":833,"x_min":0,"x_max":0,"o":"m 201 -261 b -36 -194 92 -261 14 -228 l 53 -39 b 186 -86 93 -67 133 -86 b 336 78 267 -86 311 -44 l 425 522 l 153 522 l 189 694 l 681 694 l 553 58 b 201 -261 511 -147 403 -261 m 306 864 l 483 1036 l 728 1036 l 844 858 l 747 775 l 594 897 l 589 897 l 381 775 "},"ķ":{"ha":833,"x_min":0,"x_max":0,"o":"m 208 967 l 431 967 l 322 439 l 328 439 l 603 694 l 858 694 l 549 406 l 736 0 l 511 0 l 397 271 l 267 158 l 236 0 l 14 0 m 178 -247 b 324 -192 285 -242 324 -222 b 249 -153 324 -175 308 -153 l 310 -69 b 497 -172 464 -75 497 -118 b 174 -339 497 -286 358 -333 "},"ḳ":{"ha":833,"x_min":0,"x_max":0,"o":"m 208 967 l 431 967 l 322 439 l 328 439 l 603 694 l 858 694 l 549 406 l 736 0 l 511 0 l 397 271 l 267 158 l 236 0 l 14 0 m 325 -356 b 189 -235 256 -356 189 -317 b 344 -89 189 -157 257 -89 b 482 -210 424 -89 482 -131 b 325 -356 482 -293 413 -356 "},"ḵ":{"ha":833,"x_min":0,"x_max":0,"o":"m 208 967 l 431 967 l 322 439 l 328 439 l 603 694 l 858 694 l 549 406 l 736 0 l 511 0 l 397 271 l 267 158 l 236 0 l 14 0 m 150 -131 l 558 -131 l 531 -269 l 122 -269 "},"ĸ":{"ha":833,"x_min":0,"x_max":0,"o":"m 150 694 l 372 694 l 322 439 l 328 439 l 603 694 l 858 694 l 549 406 l 736 0 l 514 0 l 399 272 l 267 158 l 236 0 l 14 0 "},"ĺ":{"ha":833,"x_min":0,"x_max":0,"o":"m 453 -17 b 231 214 322 -17 231 69 b 242 306 231 242 233 272 l 356 794 l 169 794 l 206 967 l 611 967 l 456 275 b 450 228 453 264 450 250 b 522 164 450 183 483 164 b 631 192 563 164 586 172 l 675 28 b 453 -17 600 -6 533 -17 m 363 1156 l 650 1332 l 747 1169 l 447 1028 "},"ľ":{"ha":833,"x_min":0,"x_max":0,"o":"m 453 -17 b 231 214 322 -17 231 69 b 242 306 231 242 233 272 l 356 794 l 169 794 l 206 967 l 611 967 l 456 275 b 450 228 453 264 450 250 b 522 164 450 183 483 164 b 631 192 563 164 586 172 l 675 28 b 453 -17 600 -6 533 -17 m 719 1144 l 925 1144 l 892 1000 l 797 761 l 656 761 "},"ļ":{"ha":833,"x_min":0,"x_max":0,"o":"m 453 -17 b 231 214 322 -17 231 69 b 242 306 231 242 233 272 l 356 794 l 169 794 l 206 967 l 611 967 l 456 275 b 450 228 453 264 450 250 b 522 164 450 183 483 164 b 631 192 563 164 586 172 l 675 28 b 453 -17 600 -6 533 -17 m 233 -247 b 379 -192 340 -242 379 -222 b 304 -153 379 -175 364 -153 l 365 -69 b 553 -172 519 -75 553 -118 b 229 -339 553 -286 414 -333 "},"ḷ":{"ha":833,"x_min":0,"x_max":0,"o":"m 453 -17 b 231 214 322 -17 231 69 b 242 306 231 242 233 272 l 356 794 l 169 794 l 206 967 l 611 967 l 456 275 b 450 228 453 264 450 250 b 522 164 450 183 483 164 b 631 192 563 164 586 172 l 675 28 b 453 -17 600 -6 533 -17 m 381 -356 b 244 -235 311 -356 244 -317 b 400 -89 244 -157 313 -89 b 538 -210 479 -89 538 -131 b 381 -356 538 -293 468 -356 "},"ḹ":{"ha":833,"x_min":0,"x_max":0,"o":"m 453 -17 b 231 214 322 -17 231 69 b 242 306 231 242 233 272 l 356 794 l 169 794 l 206 967 l 611 967 l 456 275 b 450 228 453 264 450 250 b 522 164 450 183 483 164 b 631 192 563 164 586 172 l 675 28 b 453 -17 600 -6 533 -17 m 336 1219 l 753 1219 l 725 1078 l 308 1078 m 381 -356 b 244 -235 311 -356 244 -317 b 400 -89 244 -157 313 -89 b 538 -210 479 -89 538 -131 b 381 -356 538 -293 468 -356 "},"ḻ":{"ha":833,"x_min":0,"x_max":0,"o":"m 453 -17 b 231 214 322 -17 231 69 b 242 306 231 242 233 272 l 356 794 l 169 794 l 206 967 l 611 967 l 456 275 b 450 228 453 264 450 250 b 522 164 450 183 483 164 b 631 192 563 164 586 172 l 675 28 b 453 -17 600 -6 533 -17 m 206 -131 l 614 -131 l 586 -269 l 178 -269 "},"ł":{"ha":833,"x_min":0,"x_max":0,"o":"m 453 -17 b 231 214 322 -17 231 69 b 242 306 231 242 233 272 l 256 365 l 142 308 l 92 439 l 296 539 l 356 794 l 169 794 l 206 967 l 611 967 l 539 644 l 725 739 l 778 608 l 500 471 l 456 275 b 450 228 453 264 450 250 b 522 164 450 183 483 164 b 631 192 563 164 586 172 l 675 28 b 453 -17 600 -6 533 -17 "},"ŀ":{"ha":833,"x_min":0,"x_max":0,"o":"m 381 -17 b 158 214 250 -17 158 69 b 169 306 158 242 161 272 l 283 794 l 97 794 l 133 967 l 539 967 l 383 275 b 378 228 381 264 378 250 b 450 164 378 183 411 164 b 558 192 490 164 514 172 l 603 28 b 381 -17 528 -6 461 -17 m 756 367 b 619 488 686 367 619 406 b 775 633 619 565 688 633 b 913 513 854 633 913 592 b 756 367 913 429 843 367 "},"ḿ":{"ha":833,"x_min":0,"x_max":0,"o":"m 97 694 l 256 694 l 256 606 l 261 606 b 444 711 299 660 361 711 b 539 617 500 711 531 681 b 717 711 583 678 644 711 b 825 586 783 711 825 667 b 817 517 825 561 822 543 l 711 0 l 508 0 l 606 472 b 608 497 608 486 608 492 b 586 522 608 517 600 522 b 519 465 561 522 542 506 l 424 0 l 251 0 l 350 472 b 353 497 353 486 353 492 b 328 522 353 517 343 522 b 256 464 303 522 279 507 l 167 0 l -39 0 m 385 928 l 650 1167 l 782 997 l 481 803 "},"ṁ":{"ha":833,"x_min":0,"x_max":0,"o":"m 97 694 l 256 694 l 256 606 l 261 606 b 444 711 299 660 361 711 b 539 617 500 711 531 681 b 717 711 583 678 644 711 b 825 586 783 711 825 667 b 817 517 825 561 822 543 l 711 0 l 508 0 l 606 472 b 608 497 608 486 608 492 b 586 522 608 517 600 522 b 519 465 561 522 542 506 l 424 0 l 251 0 l 350 472 b 353 497 353 486 353 492 b 328 522 353 517 343 522 b 256 464 303 522 279 507 l 167 0 l -39 0 m 519 792 b 383 913 450 792 383 831 b 539 1058 383 990 451 1058 b 676 938 618 1058 676 1017 b 519 792 676 854 607 792 "},"ṃ":{"ha":833,"x_min":0,"x_max":0,"o":"m 97 694 l 256 694 l 256 606 l 261 606 b 444 711 299 660 361 711 b 539 617 500 711 531 681 b 717 711 583 678 644 711 b 825 586 783 711 825 667 b 817 517 825 561 822 543 l 711 0 l 508 0 l 606 472 b 608 497 608 486 608 492 b 586 522 608 517 600 522 b 519 465 561 522 542 506 l 424 0 l 251 0 l 350 472 b 353 497 353 486 353 492 b 328 522 353 517 343 522 b 256 464 303 522 279 507 l 167 0 l -39 0 m 297 -356 b 161 -235 228 -356 161 -317 b 317 -89 161 -157 229 -89 b 454 -210 396 -89 454 -131 b 297 -356 454 -293 385 -356 "},"ń":{"ha":833,"x_min":0,"x_max":0,"o":"m 147 694 l 326 694 l 322 583 l 328 583 b 583 711 392 647 494 711 b 764 531 697 711 764 650 b 753 431 764 500 760 464 l 667 0 l 444 0 l 525 403 b 535 465 531 428 535 449 b 478 522 535 504 514 522 b 314 414 432 522 368 486 l 233 0 l 11 0 m 390 928 l 656 1167 l 788 997 l 486 803 "},"ǹ":{"ha":833,"x_min":0,"x_max":0,"o":"m 147 694 l 326 694 l 322 583 l 328 583 b 583 711 392 647 494 711 b 764 531 697 711 764 650 b 753 431 764 500 760 464 l 667 0 l 444 0 l 525 403 b 535 465 531 428 535 449 b 478 522 535 504 514 522 b 314 414 432 522 368 486 l 233 0 l 11 0 m 331 1031 l 519 1172 l 692 896 l 556 790 "},"ň":{"ha":833,"x_min":0,"x_max":0,"o":"m 147 694 l 326 694 l 322 583 l 328 583 b 583 711 392 647 494 711 b 764 531 697 711 764 650 b 753 431 764 500 760 464 l 667 0 l 444 0 l 525 403 b 535 465 531 428 535 449 b 478 522 535 504 514 522 b 314 414 432 522 368 486 l 233 0 l 11 0 m 286 983 l 383 1067 l 536 944 l 542 944 l 750 1067 l 825 978 l 647 806 l 403 806 "},"ñ":{"ha":833,"x_min":0,"x_max":0,"o":"m 147 694 l 326 694 l 322 583 l 328 583 b 583 711 392 647 494 711 b 764 531 697 711 764 650 b 753 431 764 500 760 464 l 667 0 l 444 0 l 525 403 b 535 465 531 428 535 449 b 478 522 535 504 514 522 b 314 414 432 522 368 486 l 233 0 l 11 0 m 614 794 b 442 872 524 794 494 872 b 389 808 419 872 397 858 l 244 817 b 453 1036 269 974 349 1036 b 625 958 543 1036 572 958 b 678 1022 647 958 669 972 l 822 1014 b 614 794 797 857 718 794 "},"ņ":{"ha":833,"x_min":0,"x_max":0,"o":"m 147 694 l 326 694 l 322 583 l 328 583 b 583 711 392 647 494 711 b 764 531 697 711 764 650 b 753 431 764 500 760 464 l 667 0 l 444 0 l 525 403 b 535 465 531 428 535 449 b 478 522 535 504 514 522 b 314 414 432 522 368 486 l 233 0 l 11 0 m 150 -247 b 296 -192 257 -242 296 -222 b 221 -153 296 -175 281 -153 l 282 -69 b 469 -172 436 -75 469 -118 b 146 -339 469 -286 331 -333 "},"ṅ":{"ha":833,"x_min":0,"x_max":0,"o":"m 147 694 l 326 694 l 322 583 l 328 583 b 583 711 392 647 494 711 b 764 531 697 711 764 650 b 753 431 764 500 760 464 l 667 0 l 444 0 l 525 403 b 535 465 531 428 535 449 b 478 522 535 504 514 522 b 314 414 432 522 368 486 l 233 0 l 11 0 m 525 792 b 389 913 456 792 389 831 b 544 1058 389 990 457 1058 b 682 938 624 1058 682 1017 b 525 792 682 854 613 792 "},"ṇ":{"ha":833,"x_min":0,"x_max":0,"o":"m 147 694 l 326 694 l 322 583 l 328 583 b 583 711 392 647 494 711 b 764 531 697 711 764 650 b 753 431 764 500 760 464 l 667 0 l 444 0 l 525 403 b 535 465 531 428 535 449 b 478 522 535 504 514 522 b 314 414 432 522 368 486 l 233 0 l 11 0 m 297 -356 b 161 -235 228 -356 161 -317 b 317 -89 161 -157 229 -89 b 454 -210 396 -89 454 -131 b 297 -356 454 -293 385 -356 "},"ṉ":{"ha":833,"x_min":0,"x_max":0,"o":"m 147 694 l 326 694 l 322 583 l 328 583 b 583 711 392 647 494 711 b 764 531 697 711 764 650 b 753 431 764 500 760 464 l 667 0 l 444 0 l 525 403 b 535 465 531 428 535 449 b 478 522 535 504 514 522 b 314 414 432 522 368 486 l 233 0 l 11 0 m 122 -131 l 531 -131 l 503 -269 l 94 -269 "},"ŉ":{"ha":833,"x_min":0,"x_max":0,"o":"m 378 694 l 558 694 l 558 606 l 564 606 b 786 711 625 661 700 711 b 942 531 894 711 942 650 b 931 431 942 500 938 464 l 844 0 l 622 0 l 703 403 b 714 464 708 428 714 447 b 664 522 714 503 694 522 b 550 444 631 522 594 496 l 464 0 l 242 0 m -67 522 b 143 676 50 547 122 617 b 111 672 132 674 121 672 b 8 794 56 672 8 714 b 172 967 8 892 81 967 b 325 792 267 967 325 903 b -42 411 325 600 172 456 "},"ò":{"ha":833,"x_min":0,"x_max":0,"o":"m 356 -17 b 42 294 161 -17 42 106 b 447 711 42 547 239 711 b 761 400 642 711 761 589 b 356 -17 761 147 564 -17 m 372 164 b 536 394 456 164 536 256 b 431 531 536 483 494 531 b 267 300 347 531 267 439 b 372 164 267 211 308 164 m 311 1031 l 500 1172 l 672 896 l 536 790 "},"ó":{"ha":833,"x_min":0,"x_max":0,"o":"m 356 -17 b 42 294 161 -17 42 106 b 447 711 42 547 239 711 b 761 400 642 711 761 589 b 356 -17 761 147 564 -17 m 372 164 b 536 394 456 164 536 256 b 431 531 536 483 494 531 b 267 300 347 531 267 439 b 372 164 267 211 308 164 m 371 928 l 636 1167 l 768 997 l 467 803 "},"ô":{"ha":833,"x_min":0,"x_max":0,"o":"m 356 -17 b 42 294 161 -17 42 106 b 447 711 42 547 239 711 b 761 400 642 711 761 589 b 356 -17 761 147 564 -17 m 372 164 b 536 394 456 164 536 256 b 431 531 536 483 494 531 b 267 300 347 531 267 439 b 372 164 267 211 308 164 m 225 864 l 403 1036 l 647 1036 l 764 858 l 667 775 l 514 897 l 508 897 l 300 775 "},"õ":{"ha":833,"x_min":0,"x_max":0,"o":"m 356 -17 b 42 294 161 -17 42 106 b 447 711 42 547 239 711 b 761 400 642 711 761 589 b 356 -17 761 147 564 -17 m 372 164 b 536 394 456 164 536 256 b 431 531 536 483 494 531 b 267 300 347 531 267 439 b 372 164 267 211 308 164 m 594 794 b 422 872 504 794 475 872 b 369 808 400 872 378 858 l 225 817 b 433 1036 250 974 329 1036 b 606 958 524 1036 553 958 b 658 1022 628 958 650 972 l 803 1014 b 594 794 778 857 699 794 "},"ö":{"ha":833,"x_min":0,"x_max":0,"o":"m 356 -17 b 42 294 161 -17 42 106 b 447 711 42 547 239 711 b 761 400 642 711 761 589 b 356 -17 761 147 564 -17 m 372 164 b 536 394 456 164 536 256 b 431 531 536 483 494 531 b 267 300 347 531 267 439 b 372 164 267 211 308 164 m 344 786 b 253 878 293 786 253 818 b 369 992 253 938 303 992 b 461 900 421 992 461 957 b 344 786 461 836 411 786 m 650 786 b 558 878 599 786 558 818 b 675 992 558 938 608 992 b 767 900 726 992 767 957 b 650 786 767 836 717 786 "},"ō":{"ha":833,"x_min":0,"x_max":0,"o":"m 356 -17 b 42 294 161 -17 42 106 b 447 711 42 547 239 711 b 761 400 642 711 761 589 b 356 -17 761 147 564 -17 m 372 164 b 536 394 456 164 536 256 b 431 531 536 483 494 531 b 267 300 347 531 267 439 b 372 164 267 211 308 164 m 319 958 l 728 958 l 700 819 l 292 819 "},"ő":{"ha":833,"x_min":0,"x_max":0,"o":"m 356 -17 b 42 294 161 -17 42 106 b 447 711 42 547 239 711 b 761 400 642 711 761 589 b 356 -17 761 147 564 -17 m 372 164 b 536 394 456 164 536 256 b 431 531 536 483 494 531 b 267 300 347 531 267 439 b 372 164 267 211 308 164 m 314 853 l 481 1094 l 625 1011 l 428 786 m 578 853 l 744 1094 l 889 1011 l 692 786 "},"ǒ":{"ha":833,"x_min":0,"x_max":0,"o":"m 356 -17 b 42 294 161 -17 42 106 b 447 711 42 547 239 711 b 761 400 642 711 761 589 b 356 -17 761 147 564 -17 m 372 164 b 536 394 456 164 536 256 b 431 531 536 483 494 531 b 267 300 347 531 267 439 b 372 164 267 211 308 164 m 267 983 l 364 1067 l 517 944 l 522 944 l 731 1067 l 806 978 l 628 806 l 383 806 "},"ǫ":{"ha":833,"x_min":0,"x_max":0,"o":"m 300 -317 b 158 -194 217 -317 158 -275 b 275 -8 158 -111 226 -43 b 42 294 133 17 42 131 b 447 711 42 547 239 711 b 761 400 642 711 761 589 b 456 -8 761 178 619 42 b 317 -131 347 -42 317 -93 b 381 -186 317 -167 347 -186 b 436 -172 400 -186 414 -183 l 472 -261 b 300 -317 428 -294 367 -317 m 372 158 b 536 394 456 158 536 253 b 431 531 536 483 494 531 b 267 300 347 531 267 439 b 372 158 267 206 308 158 "},"ọ":{"ha":833,"x_min":0,"x_max":0,"o":"m 356 -17 b 42 294 161 -17 42 106 b 447 711 42 547 239 711 b 761 400 642 711 761 589 b 356 -17 761 147 564 -17 m 372 164 b 536 394 456 164 536 256 b 431 531 536 483 494 531 b 267 300 347 531 267 439 b 372 164 267 211 308 164 m 275 -356 b 139 -235 206 -356 139 -317 b 294 -89 139 -157 207 -89 b 432 -210 374 -89 432 -131 b 275 -356 432 -293 363 -356 "},"ỏ":{"ha":833,"x_min":0,"x_max":0,"o":"m 356 -17 b 42 294 161 -17 42 106 b 447 711 42 547 239 711 b 761 400 642 711 761 589 b 356 -17 761 147 564 -17 m 372 164 b 536 394 456 164 536 256 b 431 531 536 483 494 531 b 267 300 347 531 267 439 b 372 164 267 211 308 164 m 417 878 b 479 919 447 882 474 892 b 382 975 486 950 461 969 l 424 1119 b 656 936 626 1114 675 1039 b 415 786 636 836 529 792 "},"ố":{"ha":833,"x_min":0,"x_max":0,"o":"m 356 -17 b 42 294 161 -17 42 106 b 447 711 42 547 239 711 b 761 400 642 711 761 589 b 356 -17 761 147 564 -17 m 372 164 b 536 394 456 164 536 256 b 431 531 536 483 494 531 b 267 300 347 531 267 439 b 372 164 267 211 308 164 m 279 872 l 426 994 l 615 994 l 718 861 l 632 783 l 510 875 l 504 875 l 343 783 m 671 967 l 807 1136 l 917 1044 l 746 890 "},"ồ":{"ha":833,"x_min":0,"x_max":0,"o":"m 356 -17 b 42 294 161 -17 42 106 b 447 711 42 547 239 711 b 761 400 642 711 761 589 b 356 -17 761 147 564 -17 m 372 164 b 536 394 456 164 536 256 b 431 531 536 483 494 531 b 267 300 347 531 267 439 b 372 164 267 211 308 164 m 279 872 l 426 994 l 615 994 l 718 861 l 632 783 l 510 875 l 504 875 l 343 783 m 101 1065 l 240 1133 l 314 946 l 213 885 "},"ổ":{"ha":833,"x_min":0,"x_max":0,"o":"m 356 -17 b 42 294 161 -17 42 106 b 447 711 42 547 239 711 b 761 400 642 711 761 589 b 356 -17 761 147 564 -17 m 372 164 b 536 394 456 164 536 256 b 431 531 536 483 494 531 b 267 300 347 531 267 439 b 372 164 267 211 308 164 m 281 872 l 428 994 l 617 994 l 719 861 l 633 783 l 511 875 l 506 875 l 344 783 m 708 978 b 750 1011 731 982 746 989 b 669 1053 754 1033 739 1047 l 711 1150 b 908 1036 879 1144 921 1100 b 707 900 889 939 806 911 "},"ỗ":{"ha":833,"x_min":0,"x_max":0,"o":"m 356 -17 b 42 294 161 -17 42 106 b 447 711 42 547 239 711 b 761 400 642 711 761 589 b 356 -17 761 147 564 -17 m 372 164 b 536 394 456 164 536 256 b 431 531 536 483 494 531 b 267 300 347 531 267 439 b 372 164 267 211 308 164 m 292 872 l 433 981 l 622 981 l 731 861 l 644 783 l 517 861 l 511 861 l 356 783 m 611 997 b 481 1056 536 997 517 1056 b 428 1006 461 1056 444 1042 l 325 1017 b 489 1183 360 1136 417 1183 b 619 1125 564 1183 583 1125 b 669 1175 639 1125 656 1139 l 772 1164 b 611 997 740 1044 683 997 "},"ộ":{"ha":833,"x_min":0,"x_max":0,"o":"m 356 -17 b 42 294 161 -17 42 106 b 447 711 42 547 239 711 b 761 400 642 711 761 589 b 356 -17 761 147 564 -17 m 372 164 b 536 394 456 164 536 256 b 431 531 536 483 494 531 b 267 300 347 531 267 439 b 372 164 267 211 308 164 m 225 864 l 403 1036 l 647 1036 l 764 858 l 667 775 l 514 897 l 508 897 l 300 775 m 275 -356 b 139 -235 206 -356 139 -317 b 294 -89 139 -157 207 -89 b 432 -210 374 -89 432 -131 b 275 -356 432 -293 363 -356 "},"ŏ":{"ha":833,"x_min":0,"x_max":0,"o":"m 356 -17 b 42 294 161 -17 42 106 b 447 711 42 547 239 711 b 761 400 642 711 761 589 b 356 -17 761 147 564 -17 m 372 164 b 536 394 456 164 536 256 b 431 531 536 483 494 531 b 267 300 347 531 267 439 b 372 164 267 211 308 164 m 492 794 b 289 1017 329 794 269 886 l 428 1039 b 519 942 425 983 453 942 b 644 1039 586 942 625 983 l 772 1017 b 492 794 747 886 656 794 "},"ṓ":{"ha":833,"x_min":0,"x_max":0,"o":"m 356 -17 b 42 294 161 -17 42 106 b 447 711 42 547 239 711 b 761 400 642 711 761 589 b 356 -17 761 147 564 -17 m 372 164 b 536 394 456 164 536 256 b 431 531 536 483 494 531 b 267 300 347 531 267 439 b 372 164 267 211 308 164 m 319 958 l 728 958 l 700 819 l 292 819 m 472 1061 l 611 1244 l 721 1153 l 550 999 "},"ơ":{"ha":833,"x_min":0,"x_max":0,"o":"m 356 -17 b 42 294 161 -17 42 106 b 447 711 42 547 239 711 b 599 681 504 711 556 700 b 725 847 678 692 725 747 b 711 928 725 875 719 900 l 875 978 b 897 858 892 931 897 903 b 696 606 897 715 835 643 b 761 400 739 553 761 482 b 356 -17 761 147 564 -17 m 372 164 b 536 394 456 164 536 256 b 431 531 536 483 494 531 b 267 300 347 531 267 439 b 372 164 267 211 308 164 "},"ớ":{"ha":833,"x_min":0,"x_max":0,"o":"m 356 -17 b 42 294 161 -17 42 106 b 447 711 42 547 239 711 b 599 681 504 711 556 700 b 725 847 678 692 725 747 b 711 928 725 875 719 900 l 875 978 b 897 858 892 931 897 903 b 696 606 897 715 835 643 b 761 400 739 553 761 482 b 356 -17 761 147 564 -17 m 372 164 b 536 394 456 164 536 256 b 431 531 536 483 494 531 b 267 300 347 531 267 439 b 372 164 267 211 308 164 m 371 928 l 636 1167 l 768 997 l 467 803 "},"ờ":{"ha":833,"x_min":0,"x_max":0,"o":"m 356 -17 b 42 294 161 -17 42 106 b 447 711 42 547 239 711 b 599 681 504 711 556 700 b 725 847 678 692 725 747 b 711 928 725 875 719 900 l 875 978 b 897 858 892 931 897 903 b 696 606 897 715 835 643 b 761 400 739 553 761 482 b 356 -17 761 147 564 -17 m 372 164 b 536 394 456 164 536 256 b 431 531 536 483 494 531 b 267 300 347 531 267 439 b 372 164 267 211 308 164 m 311 1031 l 500 1172 l 672 896 l 536 790 "},"ở":{"ha":833,"x_min":0,"x_max":0,"o":"m 356 -17 b 42 294 161 -17 42 106 b 447 711 42 547 239 711 b 599 681 504 711 556 700 b 725 847 678 692 725 747 b 711 928 725 875 719 900 l 875 978 b 897 858 892 931 897 903 b 696 606 897 715 835 643 b 761 400 739 553 761 482 b 356 -17 761 147 564 -17 m 372 164 b 536 394 456 164 536 256 b 431 531 536 483 494 531 b 267 300 347 531 267 439 b 372 164 267 211 308 164 m 417 878 b 479 919 447 882 474 892 b 382 975 486 950 461 969 l 424 1119 b 656 936 626 1114 675 1039 b 415 786 636 836 529 792 "},"ỡ":{"ha":833,"x_min":0,"x_max":0,"o":"m 356 -17 b 42 294 161 -17 42 106 b 447 711 42 547 239 711 b 599 681 504 711 556 700 b 725 847 678 692 725 747 b 711 928 725 875 719 900 l 875 978 b 897 858 892 931 897 903 b 696 606 897 715 835 643 b 761 400 739 553 761 482 b 356 -17 761 147 564 -17 m 372 164 b 536 394 456 164 536 256 b 431 531 536 483 494 531 b 267 300 347 531 267 439 b 372 164 267 211 308 164 m 511 794 b 339 872 421 794 392 872 b 286 808 317 872 294 858 l 142 817 b 350 1036 167 974 246 1036 b 522 958 440 1036 469 958 b 575 1022 544 958 567 972 l 719 1014 b 511 794 694 857 615 794 "},"ợ":{"ha":833,"x_min":0,"x_max":0,"o":"m 356 -17 b 42 294 161 -17 42 106 b 447 711 42 547 239 711 b 599 681 504 711 556 700 b 725 847 678 692 725 747 b 711 928 725 875 719 900 l 875 978 b 897 858 892 931 897 903 b 696 606 897 715 835 643 b 761 400 739 553 761 482 b 356 -17 761 147 564 -17 m 372 164 b 536 394 456 164 536 256 b 431 531 536 483 494 531 b 267 300 347 531 267 439 b 372 164 267 211 308 164 m 275 -356 b 139 -235 206 -356 139 -317 b 294 -89 139 -157 207 -89 b 432 -210 374 -89 432 -131 b 275 -356 432 -293 363 -356 "},"ø":{"ha":833,"x_min":0,"x_max":0,"o":"m 356 -17 b 151 46 272 -17 204 6 l 67 -36 l 3 28 l 90 113 b 42 294 58 161 42 224 b 447 711 42 547 239 711 b 651 649 531 711 599 689 l 736 731 l 800 667 l 713 582 b 761 400 744 533 761 471 b 356 -17 761 147 564 -17 m 256 289 b 257 271 256 283 256 276 l 510 514 b 442 539 493 529 469 539 b 256 289 325 539 256 431 m 361 156 b 547 406 478 156 547 264 b 546 424 547 411 547 418 l 293 181 b 361 156 310 165 333 156 "},"ǿ":{"ha":833,"x_min":0,"x_max":0,"o":"m 356 -17 b 151 46 272 -17 204 6 l 67 -36 l 3 28 l 90 113 b 42 294 58 161 42 224 b 447 711 42 547 239 711 b 651 649 531 711 599 689 l 736 731 l 800 667 l 713 582 b 761 400 744 533 761 471 b 356 -17 761 147 564 -17 m 256 289 b 257 271 256 283 256 276 l 510 514 b 442 539 493 529 469 539 b 256 289 325 539 256 431 m 361 156 b 547 406 478 156 547 264 b 546 424 547 411 547 418 l 293 181 b 361 156 310 165 333 156 m 371 928 l 636 1167 l 768 997 l 467 803 "},"œ":{"ha":833,"x_min":0,"x_max":0,"o":"m 185 -17 b -11 251 69 -17 -11 83 b 328 711 -11 529 149 711 b 467 617 400 711 446 679 b 646 711 513 686 589 711 b 826 472 769 711 826 614 b 789 283 826 389 800 314 l 478 283 b 478 261 478 276 478 268 b 572 153 478 178 522 153 b 700 201 625 153 658 176 l 761 61 b 538 -17 700 11 622 -17 b 375 63 476 -17 407 10 b 185 -17 325 6 267 -17 m 607 542 b 503 422 563 542 525 492 l 653 422 b 657 471 656 440 657 457 b 607 542 657 514 647 542 m 186 263 b 233 160 186 200 200 160 b 353 431 308 160 353 307 b 306 532 353 492 340 532 b 186 263 228 532 186 353 "},"ŕ":{"ha":833,"x_min":0,"x_max":0,"o":"m 225 696 l 406 694 l 389 514 l 394 514 b 672 711 467 639 572 711 b 808 683 733 711 783 700 l 731 492 b 628 514 700 507 667 514 b 369 286 542 514 444 428 l 311 0 l 89 0 m 426 928 l 692 1167 l 824 997 l 522 803 "},"ŗ":{"ha":833,"x_min":0,"x_max":0,"o":"m 225 696 l 406 694 l 389 514 l 394 514 b 672 711 467 639 572 711 b 808 683 733 711 783 700 l 731 492 b 628 514 700 507 667 514 b 369 286 542 514 444 428 l 311 0 l 89 0 m 11 -247 b 157 -192 118 -242 157 -222 b 82 -153 157 -175 142 -153 l 143 -69 b 331 -172 297 -75 331 -118 b 7 -339 331 -286 192 -333 "},"ř":{"ha":833,"x_min":0,"x_max":0,"o":"m 225 696 l 406 694 l 389 514 l 394 514 b 672 711 467 639 572 711 b 808 683 733 711 783 700 l 731 492 b 628 514 700 507 667 514 b 369 286 542 514 444 428 l 311 0 l 89 0 m 322 983 l 419 1067 l 572 944 l 578 944 l 786 1067 l 861 978 l 683 806 l 439 806 "},"ṙ":{"ha":833,"x_min":0,"x_max":0,"o":"m 225 696 l 406 694 l 389 514 l 394 514 b 672 711 467 639 572 711 b 808 683 733 711 783 700 l 731 492 b 628 514 700 507 667 514 b 369 286 542 514 444 428 l 311 0 l 89 0 m 561 792 b 425 913 492 792 425 831 b 581 1058 425 990 493 1058 b 718 938 660 1058 718 1017 b 561 792 718 854 649 792 "},"ṛ":{"ha":833,"x_min":0,"x_max":0,"o":"m 225 696 l 406 694 l 389 514 l 394 514 b 672 711 467 639 572 711 b 808 683 733 711 783 700 l 731 492 b 628 514 700 507 667 514 b 369 286 542 514 444 428 l 311 0 l 89 0 m 158 -356 b 22 -235 89 -356 22 -317 b 178 -89 22 -157 90 -89 b 315 -210 257 -89 315 -131 b 158 -356 315 -293 246 -356 "},"ṝ":{"ha":833,"x_min":0,"x_max":0,"o":"m 225 696 l 406 694 l 389 514 l 394 514 b 672 711 467 639 572 711 b 808 683 733 711 783 700 l 731 492 b 628 514 700 507 667 514 b 369 286 542 514 444 428 l 311 0 l 89 0 m 375 958 l 783 958 l 756 819 l 347 819 m 158 -356 b 22 -235 89 -356 22 -317 b 178 -89 22 -157 90 -89 b 315 -210 257 -89 315 -131 b 158 -356 315 -293 246 -356 "},"ṟ":{"ha":833,"x_min":0,"x_max":0,"o":"m 225 696 l 406 694 l 389 514 l 394 514 b 672 711 467 639 572 711 b 808 683 733 711 783 700 l 731 492 b 628 514 700 507 667 514 b 369 286 542 514 444 428 l 311 0 l 89 0 m -17 -131 l 392 -131 l 364 -269 l -44 -269 "},"ś":{"ha":833,"x_min":0,"x_max":0,"o":"m 367 -17 b 44 111 233 -17 122 33 l 165 250 b 403 147 239 178 322 147 b 483 186 456 147 483 161 b 364 261 483 217 461 231 b 144 478 225 306 144 369 b 450 711 144 631 289 711 b 744 597 586 711 678 663 l 624 468 b 425 547 568 513 494 547 b 353 506 382 547 353 535 b 489 428 353 478 383 464 b 692 217 611 386 692 331 b 367 -17 692 57 550 -17 m 385 928 l 650 1167 l 782 997 l 481 803 "},"ŝ":{"ha":833,"x_min":0,"x_max":0,"o":"m 367 -17 b 44 111 233 -17 122 33 l 165 250 b 403 147 239 178 322 147 b 483 186 456 147 483 161 b 364 261 483 217 461 231 b 144 478 225 306 144 369 b 450 711 144 631 289 711 b 744 597 586 711 678 663 l 624 468 b 425 547 568 513 494 547 b 353 506 382 547 353 535 b 489 428 353 478 383 464 b 692 217 611 386 692 331 b 367 -17 692 57 550 -17 m 239 864 l 417 1036 l 661 1036 l 778 858 l 681 775 l 528 897 l 522 897 l 314 775 "},"š":{"ha":833,"x_min":0,"x_max":0,"o":"m 367 -17 b 44 111 233 -17 122 33 l 165 250 b 403 147 239 178 322 147 b 483 186 456 147 483 161 b 364 261 483 217 461 231 b 144 478 225 306 144 369 b 450 711 144 631 289 711 b 744 597 586 711 678 663 l 624 468 b 425 547 568 513 494 547 b 353 506 382 547 353 535 b 489 428 353 478 383 464 b 692 217 611 386 692 331 b 367 -17 692 57 550 -17 m 281 983 l 378 1067 l 531 944 l 536 944 l 744 1067 l 819 978 l 642 806 l 397 806 "},"ş":{"ha":833,"x_min":0,"x_max":0,"o":"m 161 -247 b 311 -189 267 -242 303 -228 b 214 -133 314 -164 297 -144 l 297 -12 b 44 111 194 3 108 47 l 165 250 b 403 147 239 178 322 147 b 483 186 456 147 483 161 b 364 261 483 217 461 231 b 144 478 225 306 144 369 b 450 711 144 631 289 711 b 744 597 586 711 678 663 l 624 468 b 425 547 568 513 494 547 b 353 506 382 547 353 535 b 489 428 353 478 383 464 b 692 217 611 386 692 331 b 433 -12 692 76 583 3 l 389 -83 b 481 -189 458 -100 489 -131 b 161 -339 461 -289 347 -333 "},"ș":{"ha":833,"x_min":0,"x_max":0,"o":"m 367 -17 b 44 111 233 -17 122 33 l 165 250 b 403 147 239 178 322 147 b 483 186 456 147 483 161 b 364 261 483 217 461 231 b 144 478 225 306 144 369 b 450 711 144 631 289 711 b 744 597 586 711 678 663 l 624 468 b 425 547 568 513 494 547 b 353 506 382 547 353 535 b 489 428 353 478 383 464 b 692 217 611 386 692 331 b 367 -17 692 57 550 -17 m 172 -247 b 318 -192 279 -242 318 -222 b 243 -153 318 -175 303 -153 l 304 -69 b 492 -172 458 -75 492 -118 b 168 -339 492 -286 353 -333 "},"ṡ":{"ha":833,"x_min":0,"x_max":0,"o":"m 367 -17 b 44 111 233 -17 122 33 l 165 250 b 403 147 239 178 322 147 b 483 186 456 147 483 161 b 364 261 483 217 461 231 b 144 478 225 306 144 369 b 450 711 144 631 289 711 b 744 597 586 711 678 663 l 624 468 b 425 547 568 513 494 547 b 353 506 382 547 353 535 b 489 428 353 478 383 464 b 692 217 611 386 692 331 b 367 -17 692 57 550 -17 m 519 792 b 383 913 450 792 383 831 b 539 1058 383 990 451 1058 b 676 938 618 1058 676 1017 b 519 792 676 854 607 792 "},"ṣ":{"ha":833,"x_min":0,"x_max":0,"o":"m 367 -17 b 44 111 233 -17 122 33 l 165 250 b 403 147 239 178 322 147 b 483 186 456 147 483 161 b 364 261 483 217 461 231 b 144 478 225 306 144 369 b 450 711 144 631 289 711 b 744 597 586 711 678 663 l 624 468 b 425 547 568 513 494 547 b 353 506 382 547 353 535 b 489 428 353 478 383 464 b 692 217 611 386 692 331 b 367 -17 692 57 550 -17 m 319 -356 b 183 -235 250 -356 183 -317 b 339 -89 183 -157 251 -89 b 476 -210 418 -89 476 -131 b 319 -356 476 -293 407 -356 "},"ß":{"ha":833,"x_min":0,"x_max":0,"o":"m 492 -17 b 283 49 419 -17 346 0 l 372 197 b 485 147 407 168 436 147 b 556 214 526 147 556 172 b 394 465 556 292 394 328 b 525 736 394 586 525 625 b 467 808 525 783 508 808 b 344 650 403 808 364 750 l 217 0 l -6 0 l 133 692 b 475 983 165 858 283 983 b 739 767 614 983 739 919 b 611 508 739 617 611 581 b 761 236 611 439 761 394 b 492 -17 761 94 658 -17 "},"ſ":{"ha":833,"x_min":0,"x_max":0,"o":"m 290 522 l 108 522 l 142 686 l 325 694 l 328 706 b 664 983 364 886 475 983 b 894 911 775 983 850 944 l 797 772 b 675 808 760 797 728 808 b 547 706 610 808 563 781 l 408 0 l 186 0 "},"ť":{"ha":833,"x_min":0,"x_max":0,"o":"m 431 -17 b 186 197 258 -17 186 67 b 197 289 186 225 189 250 l 244 522 l 69 522 l 103 686 l 289 694 l 364 903 l 544 903 l 500 694 l 778 694 l 744 522 l 464 522 l 417 300 b 411 250 411 275 411 264 b 500 164 411 186 449 164 b 644 214 553 164 606 189 l 711 60 b 431 -17 649 17 542 -17 m 664 1144 l 869 1144 l 836 1000 l 742 761 l 600 761 "},"ţ":{"ha":833,"x_min":0,"x_max":0,"o":"m 214 -247 b 364 -189 319 -242 356 -228 b 267 -133 367 -164 350 -144 l 351 -10 b 186 197 236 13 186 89 b 197 289 186 225 189 250 l 244 522 l 69 522 l 103 686 l 289 694 l 364 903 l 544 903 l 500 694 l 778 694 l 744 522 l 464 522 l 417 300 b 411 250 411 275 411 264 b 500 164 411 186 449 164 b 644 214 553 164 606 189 l 711 60 b 486 -14 660 24 576 -6 l 442 -83 b 533 -189 511 -100 542 -131 b 214 -339 514 -289 400 -333 "},"ț":{"ha":833,"x_min":0,"x_max":0,"o":"m 431 -17 b 186 197 258 -17 186 67 b 197 289 186 225 189 250 l 244 522 l 69 522 l 103 686 l 289 694 l 364 903 l 544 903 l 500 694 l 778 694 l 744 522 l 464 522 l 417 300 b 411 250 411 275 411 264 b 500 164 411 186 449 164 b 644 214 553 164 606 189 l 711 60 b 431 -17 649 17 542 -17 m 225 -247 b 371 -192 332 -242 371 -222 b 296 -153 371 -175 356 -153 l 357 -69 b 544 -172 511 -75 544 -118 b 221 -339 544 -286 406 -333 "},"ṭ":{"ha":833,"x_min":0,"x_max":0,"o":"m 431 -17 b 186 197 258 -17 186 67 b 197 289 186 225 189 250 l 244 522 l 69 522 l 103 686 l 289 694 l 364 903 l 544 903 l 500 694 l 778 694 l 744 522 l 464 522 l 417 300 b 411 250 411 275 411 264 b 500 164 411 186 449 164 b 644 214 553 164 606 189 l 711 60 b 431 -17 649 17 542 -17 m 372 -356 b 236 -235 303 -356 236 -317 b 392 -89 236 -157 304 -89 b 529 -210 471 -89 529 -131 b 372 -356 529 -293 460 -356 "},"ṯ":{"ha":833,"x_min":0,"x_max":0,"o":"m 431 -17 b 186 197 258 -17 186 67 b 197 289 186 225 189 250 l 244 522 l 69 522 l 103 686 l 289 694 l 364 903 l 544 903 l 500 694 l 778 694 l 744 522 l 464 522 l 417 300 b 411 250 411 275 411 264 b 500 164 411 186 449 164 b 644 214 553 164 606 189 l 711 60 b 431 -17 649 17 542 -17 m 197 -131 l 606 -131 l 578 -269 l 169 -269 "},"ẗ":{"ha":833,"x_min":0,"x_max":0,"o":"m 431 -17 b 186 197 258 -17 186 67 b 197 289 186 225 189 250 l 244 522 l 69 522 l 103 686 l 289 694 l 364 903 l 544 903 l 500 694 l 778 694 l 744 522 l 464 522 l 417 300 b 411 250 411 275 411 264 b 500 164 411 186 449 164 b 644 214 553 164 606 189 l 711 60 b 431 -17 649 17 542 -17 m 325 958 b 233 1050 274 958 233 990 b 350 1164 233 1110 283 1164 b 442 1072 401 1164 442 1129 b 325 958 442 1008 392 958 m 631 958 b 539 1050 579 958 539 990 b 656 1164 539 1110 589 1164 b 747 1072 707 1164 747 1129 b 631 958 747 1008 697 958 "},"ŧ":{"ha":833,"x_min":0,"x_max":0,"o":"m 58 400 l 221 408 l 244 522 l 69 522 l 103 686 l 289 694 l 364 903 l 544 903 l 500 694 l 778 694 l 744 522 l 464 522 l 440 408 l 722 408 l 700 303 l 417 303 l 417 300 b 411 250 411 275 411 264 b 500 164 411 186 449 164 b 644 214 553 164 606 189 l 711 60 b 431 -17 649 17 542 -17 b 186 197 258 -17 186 67 b 197 289 186 225 189 250 l 200 303 l 39 303 "},"ù":{"ha":833,"x_min":0,"x_max":0,"o":"m 225 -17 b 44 164 111 -17 44 44 b 56 264 44 194 49 231 l 142 694 l 364 694 l 283 292 b 272 231 278 267 272 247 b 331 172 272 192 294 172 b 489 281 376 172 435 208 l 569 694 l 792 694 l 656 0 l 475 0 l 481 111 l 475 111 b 225 -17 411 47 314 -17 m 303 1031 l 492 1172 l 664 896 l 528 790 "},"ú":{"ha":833,"x_min":0,"x_max":0,"o":"m 225 -17 b 44 164 111 -17 44 44 b 56 264 44 194 49 231 l 142 694 l 364 694 l 283 292 b 272 231 278 267 272 247 b 331 172 272 192 294 172 b 489 281 376 172 435 208 l 569 694 l 792 694 l 656 0 l 475 0 l 481 111 l 475 111 b 225 -17 411 47 314 -17 m 363 928 l 628 1167 l 760 997 l 458 803 "},"û":{"ha":833,"x_min":0,"x_max":0,"o":"m 225 -17 b 44 164 111 -17 44 44 b 56 264 44 194 49 231 l 142 694 l 364 694 l 283 292 b 272 231 278 267 272 247 b 331 172 272 192 294 172 b 489 281 376 172 435 208 l 569 694 l 792 694 l 656 0 l 475 0 l 481 111 l 475 111 b 225 -17 411 47 314 -17 m 217 864 l 394 1036 l 639 1036 l 756 858 l 658 775 l 506 897 l 500 897 l 292 775 "},"ũ":{"ha":833,"x_min":0,"x_max":0,"o":"m 225 -17 b 44 164 111 -17 44 44 b 56 264 44 194 49 231 l 142 694 l 364 694 l 283 292 b 272 231 278 267 272 247 b 331 172 272 192 294 172 b 489 281 376 172 435 208 l 569 694 l 792 694 l 656 0 l 475 0 l 481 111 l 475 111 b 225 -17 411 47 314 -17 m 586 794 b 414 872 496 794 467 872 b 361 808 392 872 369 858 l 217 817 b 425 1036 242 974 321 1036 b 597 958 515 1036 544 958 b 650 1022 619 958 642 972 l 794 1014 b 586 794 769 857 690 794 "},"ü":{"ha":833,"x_min":0,"x_max":0,"o":"m 225 -17 b 44 164 111 -17 44 44 b 56 264 44 194 49 231 l 142 694 l 364 694 l 283 292 b 272 231 278 267 272 247 b 331 172 272 192 294 172 b 489 281 376 172 435 208 l 569 694 l 792 694 l 656 0 l 475 0 l 481 111 l 475 111 b 225 -17 411 47 314 -17 m 336 786 b 244 878 285 786 244 818 b 361 992 244 938 294 992 b 453 900 413 992 453 957 b 336 786 453 836 403 786 m 642 786 b 550 878 590 786 550 818 b 667 992 550 938 600 992 b 758 900 718 992 758 957 b 642 786 758 836 708 786 "},"ū":{"ha":833,"x_min":0,"x_max":0,"o":"m 225 -17 b 44 164 111 -17 44 44 b 56 264 44 194 49 231 l 142 694 l 364 694 l 283 292 b 272 231 278 267 272 247 b 331 172 272 192 294 172 b 489 281 376 172 435 208 l 569 694 l 792 694 l 656 0 l 475 0 l 481 111 l 475 111 b 225 -17 411 47 314 -17 m 311 958 l 719 958 l 692 819 l 283 819 "},"ŭ":{"ha":833,"x_min":0,"x_max":0,"o":"m 225 -17 b 44 164 111 -17 44 44 b 56 264 44 194 49 231 l 142 694 l 364 694 l 283 292 b 272 231 278 267 272 247 b 331 172 272 192 294 172 b 489 281 376 172 435 208 l 569 694 l 792 694 l 656 0 l 475 0 l 481 111 l 475 111 b 225 -17 411 47 314 -17 m 483 794 b 281 1017 321 794 261 886 l 419 1039 b 511 942 417 983 444 942 b 636 1039 578 942 617 983 l 764 1017 b 483 794 739 886 647 794 "},"ů":{"ha":833,"x_min":0,"x_max":0,"o":"m 225 -17 b 44 164 111 -17 44 44 b 56 264 44 194 49 231 l 142 694 l 364 694 l 283 292 b 272 231 278 267 272 247 b 331 172 272 192 294 172 b 489 281 376 172 435 208 l 569 694 l 792 694 l 656 0 l 475 0 l 481 111 l 475 111 b 225 -17 411 47 314 -17 m 486 792 b 317 919 388 792 317 839 b 531 1081 317 1011 407 1081 b 700 953 631 1081 700 1033 b 486 792 700 861 610 792 m 500 875 b 561 947 533 875 561 908 b 517 997 561 972 547 997 b 456 925 483 997 456 964 b 500 875 456 897 469 875 "},"ű":{"ha":833,"x_min":0,"x_max":0,"o":"m 225 -17 b 44 164 111 -17 44 44 b 56 264 44 194 49 231 l 142 694 l 364 694 l 283 292 b 272 231 278 267 272 247 b 331 172 272 192 294 172 b 489 281 376 172 435 208 l 569 694 l 792 694 l 656 0 l 475 0 l 481 111 l 475 111 b 225 -17 411 47 314 -17 m 306 853 l 472 1094 l 617 1011 l 419 786 m 569 853 l 736 1094 l 881 1011 l 683 786 "},"ǔ":{"ha":833,"x_min":0,"x_max":0,"o":"m 225 -17 b 44 164 111 -17 44 44 b 56 264 44 194 49 231 l 142 694 l 364 694 l 283 292 b 272 231 278 267 272 247 b 331 172 272 192 294 172 b 489 281 376 172 435 208 l 569 694 l 792 694 l 656 0 l 475 0 l 481 111 l 475 111 b 225 -17 411 47 314 -17 m 258 983 l 356 1067 l 508 944 l 514 944 l 722 1067 l 797 978 l 619 806 l 375 806 "},"ų":{"ha":833,"x_min":0,"x_max":0,"o":"m 478 -317 b 336 -194 394 -317 336 -275 b 475 3 336 -100 425 -25 l 481 111 l 475 111 b 225 -17 411 47 314 -17 b 44 164 111 -17 44 44 b 56 264 44 194 49 231 l 142 694 l 364 694 l 283 292 b 272 231 278 267 272 247 b 331 172 272 192 294 172 b 489 281 376 172 435 208 l 569 694 l 792 694 l 656 0 b 494 -131 531 -33 494 -86 b 558 -186 494 -167 525 -186 b 614 -172 578 -186 592 -183 l 650 -261 b 478 -317 606 -294 544 -317 "},"ǖ":{"ha":833,"x_min":0,"x_max":0,"o":"m 225 -17 b 44 164 111 -17 44 44 b 56 264 44 194 49 231 l 142 694 l 364 694 l 283 292 b 272 231 278 267 272 247 b 331 172 272 192 294 172 b 489 281 376 172 435 208 l 569 694 l 792 694 l 656 0 l 475 0 l 481 111 l 475 111 b 225 -17 411 47 314 -17 m 333 786 b 258 861 289 786 258 819 b 361 967 258 919 303 967 b 439 894 408 967 439 936 b 333 786 439 836 394 786 m 636 786 b 561 861 592 786 561 819 b 664 967 561 919 606 967 b 739 894 708 967 739 936 b 636 786 739 836 694 786 m 353 1153 l 761 1153 l 739 1050 l 331 1050 "},"ǘ":{"ha":833,"x_min":0,"x_max":0,"o":"m 225 -17 b 44 164 111 -17 44 44 b 56 264 44 194 49 231 l 142 694 l 364 694 l 283 292 b 272 231 278 267 272 247 b 331 172 272 192 294 172 b 489 281 376 172 435 208 l 569 694 l 792 694 l 656 0 l 475 0 l 481 111 l 475 111 b 225 -17 411 47 314 -17 m 333 786 b 258 861 289 786 258 819 b 361 967 258 919 303 967 b 439 894 408 967 439 936 b 333 786 439 836 394 786 m 636 786 b 561 861 592 786 561 819 b 664 967 561 919 606 967 b 739 894 708 967 739 936 b 636 786 739 836 694 786 m 472 1061 l 611 1244 l 721 1153 l 550 999 "},"ǚ":{"ha":833,"x_min":0,"x_max":0,"o":"m 225 -17 b 44 164 111 -17 44 44 b 56 264 44 194 49 231 l 142 694 l 364 694 l 283 292 b 272 231 278 267 272 247 b 331 172 272 192 294 172 b 489 281 376 172 435 208 l 569 694 l 792 694 l 656 0 l 475 0 l 481 111 l 475 111 b 225 -17 411 47 314 -17 m 333 786 b 258 861 289 786 258 819 b 361 967 258 919 303 967 b 439 894 408 967 439 936 b 333 786 439 836 394 786 m 636 786 b 561 861 592 786 561 819 b 664 967 561 919 606 967 b 739 894 708 967 739 936 b 636 786 739 836 694 786 m 333 1161 l 419 1231 l 547 1144 l 553 1144 l 708 1231 l 772 1161 l 625 1033 l 436 1033 "},"ǜ":{"ha":833,"x_min":0,"x_max":0,"o":"m 225 -17 b 44 164 111 -17 44 44 b 56 264 44 194 49 231 l 142 694 l 364 694 l 283 292 b 272 231 278 267 272 247 b 331 172 272 192 294 172 b 489 281 376 172 435 208 l 569 694 l 792 694 l 656 0 l 475 0 l 481 111 l 475 111 b 225 -17 411 47 314 -17 m 333 786 b 258 861 289 786 258 819 b 361 967 258 919 303 967 b 439 894 408 967 439 936 b 333 786 439 836 394 786 m 636 786 b 561 861 592 786 561 819 b 664 967 561 919 606 967 b 739 894 708 967 739 936 b 636 786 739 836 694 786 m 394 1174 l 533 1242 l 604 1040 l 506 993 "},"ụ":{"ha":833,"x_min":0,"x_max":0,"o":"m 225 -17 b 44 164 111 -17 44 44 b 56 264 44 194 49 231 l 142 694 l 364 694 l 283 292 b 272 231 278 267 272 247 b 331 172 272 192 294 172 b 489 281 376 172 435 208 l 569 694 l 792 694 l 656 0 l 475 0 l 481 111 l 475 111 b 225 -17 411 47 314 -17 m 292 -356 b 156 -235 222 -356 156 -317 b 311 -89 156 -157 224 -89 b 449 -210 390 -89 449 -131 b 292 -356 449 -293 379 -356 "},"ủ":{"ha":833,"x_min":0,"x_max":0,"o":"m 225 -17 b 44 164 111 -17 44 44 b 56 264 44 194 49 231 l 142 694 l 364 694 l 283 292 b 272 231 278 267 272 247 b 331 172 272 192 294 172 b 489 281 376 172 435 208 l 569 694 l 792 694 l 656 0 l 475 0 l 481 111 l 475 111 b 225 -17 411 47 314 -17 m 408 878 b 471 919 439 882 465 892 b 374 975 478 950 453 969 l 415 1119 b 647 936 618 1114 667 1039 b 407 786 628 836 521 792 "},"ư":{"ha":833,"x_min":0,"x_max":0,"o":"m 225 -17 b 44 164 111 -17 44 44 b 56 264 44 194 49 231 l 142 694 l 364 694 l 283 292 b 272 231 278 267 272 247 b 331 172 272 192 294 172 b 489 281 376 172 435 208 l 569 694 l 675 694 b 775 847 736 703 775 767 b 761 928 775 875 769 900 l 925 978 b 947 858 942 931 947 903 b 778 621 947 750 892 658 l 656 0 l 475 0 l 481 111 l 475 111 b 225 -17 411 47 314 -17 "},"ứ":{"ha":833,"x_min":0,"x_max":0,"o":"m 225 -17 b 44 164 111 -17 44 44 b 56 264 44 194 49 231 l 142 694 l 364 694 l 283 292 b 272 231 278 267 272 247 b 331 172 272 192 294 172 b 489 281 376 172 435 208 l 569 694 l 675 694 b 775 847 736 703 775 767 b 761 928 775 875 769 900 l 925 978 b 947 858 942 931 947 903 b 778 621 947 750 892 658 l 656 0 l 475 0 l 481 111 l 475 111 b 225 -17 411 47 314 -17 m 363 928 l 628 1167 l 760 997 l 458 803 "},"ừ":{"ha":833,"x_min":0,"x_max":0,"o":"m 225 -17 b 44 164 111 -17 44 44 b 56 264 44 194 49 231 l 142 694 l 364 694 l 283 292 b 272 231 278 267 272 247 b 331 172 272 192 294 172 b 489 281 376 172 435 208 l 569 694 l 675 694 b 775 847 736 703 775 767 b 761 928 775 875 769 900 l 925 978 b 947 858 942 931 947 903 b 778 621 947 750 892 658 l 656 0 l 475 0 l 481 111 l 475 111 b 225 -17 411 47 314 -17 m 303 1031 l 492 1172 l 664 896 l 528 790 "},"ử":{"ha":833,"x_min":0,"x_max":0,"o":"m 225 -17 b 44 164 111 -17 44 44 b 56 264 44 194 49 231 l 142 694 l 364 694 l 283 292 b 272 231 278 267 272 247 b 331 172 272 192 294 172 b 489 281 376 172 435 208 l 569 694 l 675 694 b 775 847 736 703 775 767 b 761 928 775 875 769 900 l 925 978 b 947 858 942 931 947 903 b 778 621 947 750 892 658 l 656 0 l 475 0 l 481 111 l 475 111 b 225 -17 411 47 314 -17 m 408 878 b 471 919 439 882 465 892 b 374 975 478 950 453 969 l 415 1119 b 647 936 618 1114 667 1039 b 407 786 628 836 521 792 "},"ữ":{"ha":833,"x_min":0,"x_max":0,"o":"m 225 -17 b 44 164 111 -17 44 44 b 56 264 44 194 49 231 l 142 694 l 364 694 l 283 292 b 272 231 278 267 272 247 b 331 172 272 192 294 172 b 489 281 376 172 435 208 l 569 694 l 675 694 b 775 847 736 703 775 767 b 761 928 775 875 769 900 l 925 978 b 947 858 942 931 947 903 b 778 621 947 750 892 658 l 656 0 l 475 0 l 481 111 l 475 111 b 225 -17 411 47 314 -17 m 558 794 b 386 872 468 794 439 872 b 333 808 364 872 342 858 l 189 817 b 397 1036 214 974 293 1036 b 569 958 488 1036 517 958 b 622 1022 592 958 614 972 l 767 1014 b 558 794 742 857 663 794 "},"ự":{"ha":833,"x_min":0,"x_max":0,"o":"m 225 -17 b 44 164 111 -17 44 44 b 56 264 44 194 49 231 l 142 694 l 364 694 l 283 292 b 272 231 278 267 272 247 b 331 172 272 192 294 172 b 489 281 376 172 435 208 l 569 694 l 675 694 b 775 847 736 703 775 767 b 761 928 775 875 769 900 l 925 978 b 947 858 942 931 947 903 b 778 621 947 750 892 658 l 656 0 l 475 0 l 481 111 l 475 111 b 225 -17 411 47 314 -17 m 292 -356 b 156 -235 222 -356 156 -317 b 311 -89 156 -157 224 -89 b 449 -210 390 -89 449 -131 b 292 -356 449 -293 379 -356 "},"ṿ":{"ha":833,"x_min":0,"x_max":0,"o":"m 89 694 l 308 694 l 344 375 b 363 161 353 306 357 235 l 368 161 b 469 375 399 232 435 306 l 628 694 l 847 694 l 464 0 l 206 0 m 283 -356 b 147 -235 214 -356 147 -317 b 303 -89 147 -157 215 -89 b 440 -210 382 -89 440 -131 b 283 -356 440 -293 371 -356 "},"ẁ":{"ha":833,"x_min":0,"x_max":0,"o":"m 67 694 l 278 694 l 243 385 b 221 175 235 315 226 246 l 226 175 b 299 385 247 246 271 318 l 376 592 l 526 592 l 525 385 b 518 175 524 315 522 246 l 524 175 b 582 385 546 246 563 315 l 667 694 l 869 694 l 636 0 l 390 0 l 400 214 b 418 415 403 278 411 339 l 413 415 b 354 211 393 340 382 296 l 285 0 l 29 0 m 297 1035 l 486 1176 l 658 900 l 522 794 "},"ẃ":{"ha":833,"x_min":0,"x_max":0,"o":"m 67 694 l 278 694 l 243 385 b 221 175 235 315 226 246 l 226 175 b 299 385 247 246 271 318 l 376 592 l 526 592 l 525 385 b 518 175 524 315 522 246 l 524 175 b 582 385 546 246 563 315 l 667 694 l 869 694 l 636 0 l 390 0 l 400 214 b 418 415 403 278 411 339 l 413 415 b 354 211 393 340 382 296 l 285 0 l 29 0 m 357 932 l 622 1171 l 754 1001 l 453 807 "},"ŵ":{"ha":833,"x_min":0,"x_max":0,"o":"m 67 694 l 278 694 l 243 385 b 221 175 235 315 226 246 l 226 175 b 299 385 247 246 271 318 l 376 592 l 526 592 l 525 385 b 518 175 524 315 522 246 l 524 175 b 582 385 546 246 563 315 l 667 694 l 869 694 l 636 0 l 390 0 l 400 214 b 418 415 403 278 411 339 l 413 415 b 354 211 393 340 382 296 l 285 0 l 29 0 m 211 868 l 389 1040 l 633 1040 l 750 863 l 653 779 l 500 901 l 494 901 l 286 779 "},"ẅ":{"ha":833,"x_min":0,"x_max":0,"o":"m 67 694 l 278 694 l 243 385 b 221 175 235 315 226 246 l 226 175 b 299 385 247 246 271 318 l 376 592 l 526 592 l 525 385 b 518 175 524 315 522 246 l 524 175 b 582 385 546 246 563 315 l 667 694 l 869 694 l 636 0 l 390 0 l 400 214 b 418 415 403 278 411 339 l 413 415 b 354 211 393 340 382 296 l 285 0 l 29 0 m 331 790 b 239 882 279 790 239 822 b 356 996 239 942 289 996 b 447 904 407 996 447 961 b 331 790 447 840 397 790 m 636 790 b 544 882 585 790 544 822 b 661 996 544 942 594 996 b 753 904 713 996 753 961 b 636 790 753 840 703 790 "},"ỳ":{"ha":833,"x_min":0,"x_max":0,"o":"m 67 -261 b -69 -225 14 -261 -42 -244 l -8 -75 b 81 -97 14 -86 53 -97 b 222 -25 150 -97 194 -72 l 240 6 l 89 694 l 303 694 l 347 425 b 375 203 358 356 369 261 l 381 203 b 486 425 406 261 450 356 l 625 694 l 850 694 l 456 0 b 67 -261 353 -181 236 -261 m 297 1031 l 486 1172 l 658 896 l 522 790 "},"ý":{"ha":833,"x_min":0,"x_max":0,"o":"m 67 -261 b -69 -225 14 -261 -42 -244 l -8 -75 b 81 -97 14 -86 53 -97 b 222 -25 150 -97 194 -72 l 240 6 l 89 694 l 303 694 l 347 425 b 375 203 358 356 369 261 l 381 203 b 486 425 406 261 450 356 l 625 694 l 850 694 l 456 0 b 67 -261 353 -181 236 -261 m 357 928 l 622 1167 l 754 997 l 453 803 "},"ŷ":{"ha":833,"x_min":0,"x_max":0,"o":"m 67 -261 b -69 -225 14 -261 -42 -244 l -8 -75 b 81 -97 14 -86 53 -97 b 222 -25 150 -97 194 -72 l 240 6 l 89 694 l 303 694 l 347 425 b 375 203 358 356 369 261 l 381 203 b 486 425 406 261 450 356 l 625 694 l 850 694 l 456 0 b 67 -261 353 -181 236 -261 m 211 864 l 389 1036 l 633 1036 l 750 858 l 653 775 l 500 897 l 494 897 l 286 775 "},"ÿ":{"ha":833,"x_min":0,"x_max":0,"o":"m 67 -261 b -69 -225 14 -261 -42 -244 l -8 -75 b 81 -97 14 -86 53 -97 b 222 -25 150 -97 194 -72 l 240 6 l 89 694 l 303 694 l 347 425 b 375 203 358 356 369 261 l 381 203 b 486 425 406 261 450 356 l 625 694 l 850 694 l 456 0 b 67 -261 353 -181 236 -261 m 331 786 b 239 878 279 786 239 818 b 356 992 239 938 289 992 b 447 900 407 992 447 957 b 331 786 447 836 397 786 m 636 786 b 544 878 585 786 544 818 b 661 992 544 938 594 992 b 753 900 713 992 753 957 b 636 786 753 836 703 786 "},"ẏ":{"ha":833,"x_min":0,"x_max":0,"o":"m 67 -261 b -69 -225 14 -261 -42 -244 l -8 -75 b 81 -97 14 -86 53 -97 b 222 -25 150 -97 194 -72 l 240 6 l 89 694 l 303 694 l 347 425 b 375 203 358 356 369 261 l 381 203 b 486 425 406 261 450 356 l 625 694 l 850 694 l 456 0 b 67 -261 353 -181 236 -261 m 492 792 b 356 913 422 792 356 831 b 511 1058 356 990 424 1058 b 649 938 590 1058 649 1017 b 492 792 649 854 579 792 "},"ỵ":{"ha":833,"x_min":0,"x_max":0,"o":"m 67 -261 b -69 -225 14 -261 -42 -244 l -8 -75 b 81 -97 14 -86 53 -97 b 222 -25 150 -97 194 -72 l 240 6 l 89 694 l 303 694 l 347 425 b 375 203 358 356 369 261 l 381 203 b 486 425 406 261 450 356 l 625 694 l 850 694 l 456 0 b 67 -261 353 -181 236 -261 m 549 -342 b 413 -221 479 -342 413 -303 b 568 -75 413 -143 481 -75 b 706 -196 647 -75 706 -117 b 549 -342 706 -279 636 -342 "},"ỷ":{"ha":833,"x_min":0,"x_max":0,"o":"m 67 -261 b -69 -225 14 -261 -42 -244 l -8 -75 b 81 -97 14 -86 53 -97 b 222 -25 150 -97 194 -72 l 240 6 l 89 694 l 303 694 l 347 425 b 375 203 358 356 369 261 l 381 203 b 486 425 406 261 450 356 l 625 694 l 850 694 l 456 0 b 67 -261 353 -181 236 -261 m 403 878 b 465 919 433 882 460 892 b 368 975 472 950 447 969 l 410 1119 b 642 936 613 1114 661 1039 b 401 786 622 836 515 792 "},"ỹ":{"ha":833,"x_min":0,"x_max":0,"o":"m 67 -261 b -69 -225 14 -261 -42 -244 l -8 -75 b 81 -97 14 -86 53 -97 b 222 -25 150 -97 194 -72 l 240 6 l 89 694 l 303 694 l 347 425 b 375 203 358 356 369 261 l 381 203 b 486 425 406 261 450 356 l 625 694 l 850 694 l 456 0 b 67 -261 353 -181 236 -261 m 581 794 b 408 872 490 794 461 872 b 356 808 386 872 364 858 l 211 817 b 419 1036 236 974 315 1036 b 592 958 510 1036 539 958 b 644 1022 614 958 636 972 l 789 1014 b 581 794 764 857 685 794 "},"ź":{"ha":833,"x_min":0,"x_max":0,"o":"m 50 131 l 458 525 l 131 525 l 167 694 l 778 694 l 753 564 l 347 172 l 689 172 l 656 0 l 25 0 m 371 928 l 636 1167 l 768 997 l 467 803 "},"ž":{"ha":833,"x_min":0,"x_max":0,"o":"m 50 131 l 458 525 l 131 525 l 167 694 l 778 694 l 753 564 l 347 172 l 689 172 l 656 0 l 25 0 m 267 983 l 364 1067 l 517 944 l 522 944 l 731 1067 l 806 978 l 628 806 l 383 806 "},"ż":{"ha":833,"x_min":0,"x_max":0,"o":"m 50 131 l 458 525 l 131 525 l 167 694 l 778 694 l 753 564 l 347 172 l 689 172 l 656 0 l 25 0 m 506 792 b 369 913 436 792 369 831 b 525 1058 369 990 438 1058 b 663 938 604 1058 663 1017 b 506 792 663 854 593 792 "},"ẑ":{"ha":833,"x_min":0,"x_max":0,"o":"m 50 131 l 458 525 l 131 525 l 167 694 l 778 694 l 753 564 l 347 172 l 689 172 l 656 0 l 25 0 m 225 864 l 403 1036 l 647 1036 l 764 858 l 667 775 l 514 897 l 508 897 l 300 775 "},"ẓ":{"ha":833,"x_min":0,"x_max":0,"o":"m 50 131 l 458 525 l 131 525 l 167 694 l 778 694 l 753 564 l 347 172 l 689 172 l 656 0 l 25 0 m 311 -356 b 175 -235 242 -356 175 -317 b 331 -89 175 -157 243 -89 b 468 -210 410 -89 468 -131 b 311 -356 468 -293 399 -356 "},"ẕ":{"ha":833,"x_min":0,"x_max":0,"o":"m 50 131 l 458 525 l 131 525 l 167 694 l 778 694 l 753 564 l 347 172 l 689 172 l 656 0 l 25 0 m 136 -131 l 544 -131 l 517 -269 l 108 -269 "},"ð":{"ha":833,"x_min":0,"x_max":0,"o":"m 336 -17 b 29 275 165 -17 29 81 b 372 632 29 499 199 632 b 560 556 468 632 526 599 b 474 754 550 635 521 699 l 288 668 l 250 764 l 390 829 b 285 894 360 853 325 874 l 379 1049 b 583 919 456 1017 525 974 l 785 1014 l 822 917 l 657 840 b 778 471 733 740 778 615 b 336 -17 778 154 592 -17 m 357 161 b 561 407 454 161 543 233 b 417 472 526 451 482 472 b 243 288 311 472 243 390 b 357 161 243 203 283 161 "},"þ":{"ha":833,"x_min":0,"x_max":0,"o":"m 206 967 l 428 967 l 386 764 l 344 617 l 347 617 b 553 711 407 678 486 711 b 778 442 697 711 778 614 b 408 -17 778 186 631 -17 b 236 58 339 -17 272 11 l 233 58 l 217 -72 l 183 -244 l -39 -244 m 383 164 b 547 414 471 164 547 267 b 464 531 547 496 511 531 b 322 425 419 531 369 503 l 278 217 b 383 164 297 181 344 164 "},"ŋ":{"ha":833,"x_min":0,"x_max":0,"o":"m 389 -261 b 244 -228 339 -261 294 -253 l 311 -69 b 369 -86 331 -81 350 -86 b 447 11 414 -86 431 -61 l 525 403 b 535 465 531 428 535 449 b 478 522 535 504 514 522 b 314 414 432 522 368 486 l 233 0 l 11 0 l 147 694 l 326 694 l 322 583 l 328 583 b 583 711 392 647 494 711 b 764 531 697 711 764 650 b 753 431 764 500 760 464 l 667 0 b 389 -261 636 -144 561 -261 "},"ȷ":{"ha":833,"x_min":0,"x_max":0,"o":"m 201 -261 b -36 -194 92 -261 14 -228 l 53 -39 b 186 -86 93 -67 133 -86 b 336 78 267 -86 311 -44 l 425 522 l 153 522 l 189 694 l 681 694 l 553 58 b 201 -261 511 -147 403 -261 "},"ĳ":{"ha":833,"x_min":0,"x_max":0,"o":"m 144 694 l 367 694 l 228 0 l 6 0 m 293 783 b 157 904 224 783 157 822 b 313 1050 157 982 225 1050 b 450 929 392 1050 450 1008 b 293 783 450 846 381 783 m 378 -261 b 233 -228 328 -261 283 -253 l 300 -69 b 358 -86 319 -81 339 -86 b 436 14 403 -86 419 -58 l 572 694 l 794 694 l 656 3 b 378 -261 625 -142 550 -261 m 718 783 b 582 904 649 783 582 822 b 738 1050 582 982 650 1050 b 875 929 817 1050 875 1008 b 718 783 875 846 806 783 "},"ɐ":{"ha":833,"x_min":0,"x_max":0,"o":"m 583 711 b 775 539 694 711 775 642 b 283 250 775 367 631 261 b 281 228 281 236 281 231 b 385 156 281 183 308 156 b 608 214 451 156 508 172 l 672 61 b 326 -17 561 11 453 -17 b 64 211 175 -17 64 56 b 75 311 64 242 67 269 l 150 694 l 331 694 l 331 608 l 336 608 b 583 711 406 675 489 711 m 494 542 b 319 458 444 542 367 514 l 306 372 b 558 492 492 383 558 439 b 494 542 558 525 538 542 "},"ɒ":{"ha":833,"x_min":0,"x_max":0,"o":"m 408 -17 b 222 69 333 -17 256 17 l 219 69 l 189 0 l 11 0 l 150 694 l 331 694 l 331 603 l 333 603 b 554 711 400 672 481 711 b 778 442 690 711 778 614 b 408 -17 778 186 600 -17 m 367 164 b 547 414 461 164 547 267 b 469 531 547 496 517 531 b 319 433 425 531 367 503 l 275 217 b 367 164 294 181 338 164 "},"ɓ":{"ha":833,"x_min":0,"x_max":0,"o":"m 408 -17 b 228 69 333 -17 261 17 l 225 69 l 194 0 l 11 0 l 147 675 b 513 983 181 842 281 983 b 675 953 586 983 636 969 l 600 778 b 511 797 569 792 542 797 b 369 683 439 797 394 772 l 339 589 l 342 589 b 547 683 401 650 481 683 b 775 428 694 683 775 592 b 408 -17 775 178 597 -17 m 375 164 b 544 400 461 164 544 261 b 458 503 544 472 508 503 b 314 397 414 503 361 475 l 278 217 b 375 164 297 181 336 164 "},"ɔ":{"ha":833,"x_min":0,"x_max":0,"o":"m 308 -17 b 39 111 183 -17 89 47 l 172 233 b 322 164 217 186 269 164 b 508 389 422 164 508 261 b 364 531 508 486 439 531 b 206 458 299 531 256 499 l 129 608 b 397 711 197 672 286 711 b 733 408 578 711 733 611 b 308 -17 733 153 542 -17 "},"ɕ":{"ha":833,"x_min":0,"x_max":0,"o":"m 475 153 b 589 225 544 153 589 192 b 539 256 589 242 575 256 b 376 174 486 256 432 228 b 475 153 406 160 439 153 m 14 -50 b 129 129 51 18 89 78 b 81 286 99 172 81 225 b 506 711 81 542 278 711 b 775 583 631 711 725 647 l 647 469 b 494 542 603 517 547 542 b 294 306 397 542 294 436 b 294 303 294 304 294 304 b 575 411 388 376 482 411 b 761 253 694 411 761 350 b 439 -17 761 106 639 -17 b 258 22 376 -17 314 -3 b 175 -131 231 -22 203 -74 "},"ɖ":{"ha":833,"x_min":0,"x_max":0,"o":"m 589 -261 b 431 -108 475 -261 431 -203 b 464 72 431 -58 444 -3 l 458 72 b 261 -17 400 14 328 -17 b 39 253 125 -17 39 81 b 408 711 39 508 217 711 b 583 633 497 711 550 681 l 586 633 l 600 764 l 639 967 l 861 967 l 661 -22 b 658 -49 658 -36 658 -42 b 694 -83 658 -75 675 -83 b 725 -78 706 -83 714 -81 l 717 -242 b 589 -261 692 -250 653 -261 m 347 164 b 497 261 392 164 450 192 l 542 478 b 450 531 522 514 479 531 b 269 281 356 531 269 428 b 347 164 269 200 300 164 "},"ɗ":{"ha":833,"x_min":0,"x_max":0,"o":"m 261 -17 b 39 253 125 -17 39 81 b 408 711 39 508 217 711 b 583 633 497 711 550 681 l 586 633 l 603 764 b 892 983 625 875 718 983 b 989 969 939 983 967 978 l 914 794 b 892 797 903 797 900 797 b 808 708 844 797 822 775 l 667 0 l 486 0 l 486 92 l 481 92 b 261 -17 417 22 336 -17 m 347 164 b 497 261 392 164 450 192 l 542 478 b 450 531 522 514 479 531 b 269 281 356 531 269 428 b 347 164 269 200 300 164 "},"ɘ":{"ha":833,"x_min":0,"x_max":0,"o":"m 422 542 b 279 422 356 542 300 494 l 533 422 b 422 542 526 513 472 542 m 322 -17 b 50 83 224 -17 111 19 l 161 219 b 338 153 214 178 267 153 b 514 283 410 153 482 192 l 81 283 b 75 357 78 300 75 319 b 458 711 75 478 164 711 b 756 408 618 711 756 610 b 322 -17 756 131 567 -17 "},"ɑ":{"ha":833,"x_min":0,"x_max":0,"o":"m 263 -17 b 39 253 125 -17 39 81 b 408 711 39 508 217 711 b 592 625 497 711 561 678 l 597 625 l 628 694 l 806 694 l 667 0 l 486 0 l 486 92 l 481 92 b 263 -17 417 22 336 -17 m 347 164 b 497 261 392 164 450 192 l 543 478 b 450 531 524 514 479 531 b 269 281 356 531 269 428 b 347 164 269 199 300 164 "},"ʙ":{"ha":833,"x_min":0,"x_max":0,"o":"m 169 694 l 519 694 b 764 550 654 694 764 660 b 617 367 764 467 717 394 l 617 361 b 728 239 689 342 728 306 b 403 0 728 97 603 0 l 33 0 m 419 156 b 508 231 483 156 508 194 b 444 283 508 261 486 283 l 311 283 l 286 156 m 453 422 b 539 497 511 422 539 458 b 475 539 539 522 519 539 l 361 539 l 336 422 "},"ə":{"ha":833,"x_min":0,"x_max":0,"o":"m 358 -17 b 56 258 167 -17 56 94 b 81 411 56 319 72 386 l 528 411 b 397 542 521 514 463 542 b 214 475 328 542 275 514 l 142 622 b 450 711 225 681 331 711 b 750 400 622 711 750 617 b 358 -17 750 150 567 -17 m 364 153 b 508 272 414 153 476 189 l 260 272 b 258 254 258 267 258 260 b 364 153 258 186 300 153 "},"ɚ":{"ha":833,"x_min":0,"x_max":0,"o":"m 196 -17 b -43 311 -15 -17 -68 142 l 357 478 b 253 531 340 514 307 531 b 110 489 211 531 161 517 l 67 642 b 322 711 154 694 253 711 b 564 563 449 711 529 654 l 707 622 l 806 581 b 838 444 785 478 794 444 b 894 458 860 444 879 451 l 917 347 b 803 311 883 328 844 311 b 657 447 736 311 665 333 l 583 415 b 572 332 582 389 578 361 b 196 -17 533 139 378 -17 m 224 161 b 357 310 282 161 339 219 b 360 321 358 314 358 318 l 144 231 b 224 161 146 186 178 161 "},"ɛ":{"ha":833,"x_min":0,"x_max":0,"o":"m 358 -17 b 61 178 204 -17 61 47 b 261 364 61 269 133 342 l 263 369 b 150 497 181 394 150 446 b 506 711 150 631 319 711 b 797 628 615 711 710 688 l 681 475 b 492 542 617 513 564 542 b 381 469 425 542 381 508 b 458 422 381 439 399 422 l 583 422 l 557 283 l 411 283 b 292 219 338 283 292 264 b 419 153 292 178 338 153 b 628 214 472 153 547 174 l 689 64 b 358 -17 567 -6 467 -17 "},"ɜ":{"ha":833,"x_min":0,"x_max":0,"o":"m 339 -17 b 19 67 218 -17 113 3 l 136 219 b 350 156 207 178 267 156 b 464 222 417 156 464 183 b 358 283 464 264 439 283 l 233 283 l 263 422 l 408 422 b 497 486 464 422 497 442 b 372 542 497 522 454 542 b 189 481 326 542 261 517 l 128 631 b 431 711 242 696 332 711 b 728 531 585 711 728 651 b 583 369 728 451 676 386 l 582 364 b 694 211 665 339 694 272 b 339 -17 694 69 525 -17 "},"ɞ":{"ha":833,"x_min":0,"x_max":0,"o":"m 372 -17 b 42 294 168 -17 42 106 b 464 711 42 547 244 711 b 761 531 617 711 761 650 b 617 369 761 450 710 386 l 615 364 b 728 211 699 339 728 272 b 372 -17 728 69 558 -17 m 403 156 b 497 225 463 156 497 190 b 392 283 497 264 472 283 l 378 283 l 404 422 l 439 422 b 531 481 494 422 531 440 b 456 542 531 514 503 542 b 267 300 353 542 267 439 b 403 156 267 211 322 156 "},"ɟ":{"ha":833,"x_min":0,"x_max":0,"o":"m 201 -261 b -36 -194 92 -261 14 -228 l 53 -39 b 186 -86 93 -67 133 -86 b 336 78 267 -86 311 -44 l 372 256 l 128 256 l 147 353 l 393 361 l 425 522 l 153 522 l 189 694 l 681 694 l 614 361 l 758 361 l 736 256 l 593 256 l 553 58 b 201 -261 511 -147 403 -261 "},"ɠ":{"ha":833,"x_min":0,"x_max":0,"o":"m 290 -261 b -3 -168 160 -261 68 -222 l 92 -14 b 285 -86 143 -58 215 -86 b 461 19 354 -86 431 -78 l 489 108 l 483 108 b 283 28 433 61 356 28 b 50 286 138 28 50 131 b 408 711 50 536 228 711 b 583 633 497 711 550 681 l 586 633 l 592 700 b 881 919 614 811 707 919 b 978 906 928 919 956 914 l 903 731 b 881 733 892 733 889 733 b 797 644 833 733 811 711 l 672 31 b 290 -261 628 -196 465 -261 m 364 208 b 500 278 411 208 458 232 l 542 475 b 446 531 517 511 485 531 b 281 319 375 531 281 456 b 364 208 281 242 308 208 "},"ɡ":{"ha":833,"x_min":0,"x_max":0,"o":"m 290 -261 b -3 -168 160 -261 68 -222 l 92 -14 b 285 -86 143 -58 215 -86 b 461 19 354 -86 431 -78 l 489 108 l 483 108 b 283 28 433 61 356 28 b 50 286 138 28 50 131 b 408 711 50 536 228 711 b 592 625 497 711 561 678 l 597 625 l 631 694 l 806 694 l 672 31 b 290 -261 626 -196 465 -261 m 364 208 b 500 278 411 208 458 232 l 542 475 b 446 531 517 511 485 531 b 281 319 375 531 281 456 b 364 208 281 242 308 208 "},"ɢ":{"ha":833,"x_min":0,"x_max":0,"o":"m 406 -17 b 64 286 239 -17 63 86 b 504 711 64 504 222 711 b 761 611 625 711 710 665 l 638 475 b 483 542 601 510 546 542 b 289 306 369 542 289 421 b 431 153 289 186 364 153 b 501 167 456 153 483 158 l 521 283 l 422 283 l 450 422 l 744 422 l 672 64 b 406 -17 611 17 519 -17 "},"ɣ":{"ha":833,"x_min":0,"x_max":0,"o":"m 282 -286 b 94 -119 164 -286 94 -222 b 215 139 94 -36 131 28 l 89 694 l 308 694 l 347 433 b 379 250 356 381 364 325 l 385 250 b 489 433 431 325 461 381 l 628 694 l 847 694 l 517 142 b 557 -19 540 75 557 29 b 282 -286 557 -162 444 -286 m 311 -139 b 367 -51 343 -139 367 -106 b 349 42 367 -26 361 3 l 342 42 b 278 -101 299 -26 278 -71 b 311 -139 278 -125 292 -139 "},"ɤ":{"ha":833,"x_min":0,"x_max":0,"o":"m 331 -17 b 100 186 189 -17 100 51 b 275 475 100 281 160 381 b 189 533 251 517 221 533 b 124 514 165 533 140 525 l 94 672 b 258 711 132 697 203 711 b 453 606 332 711 406 683 b 692 711 533 683 619 711 b 842 672 747 711 814 697 l 743 514 b 685 533 731 525 708 533 b 583 475 651 533 622 514 b 661 283 632 415 661 347 b 331 -17 661 122 526 -17 m 365 164 b 447 269 414 164 447 208 b 407 369 447 303 433 339 b 314 225 347 325 314 269 b 365 164 314 186 333 164 "},"ɥ":{"ha":833,"x_min":0,"x_max":0,"o":"m 433 -17 l 469 106 l 464 106 b 225 -17 400 36 310 -17 b 44 164 111 -17 44 44 b 56 264 44 194 49 231 l 142 694 l 364 694 l 283 292 b 274 229 278 267 274 246 b 331 172 274 190 294 172 b 494 281 376 172 440 208 l 575 694 l 797 694 l 608 -244 l 386 -244 "},"ɦ":{"ha":833,"x_min":0,"x_max":0,"o":"m 147 675 b 513 983 181 842 281 983 b 675 953 586 983 636 969 l 600 778 b 511 797 569 792 542 797 b 369 683 439 797 394 772 l 333 561 l 339 561 b 578 683 403 631 493 683 b 758 503 692 683 758 622 b 747 403 758 472 754 436 l 667 0 l 444 0 l 519 375 b 529 438 525 400 529 421 b 472 494 529 476 508 494 b 308 386 426 494 363 458 l 233 0 l 11 0 "},"ɧ":{"ha":833,"x_min":0,"x_max":0,"o":"m 389 -261 b 244 -228 339 -261 294 -253 l 311 -69 b 369 -86 331 -81 350 -86 b 447 11 414 -86 433 -61 l 519 375 b 529 438 524 400 529 421 b 472 494 529 476 508 494 b 308 386 426 494 363 458 l 233 0 l 11 0 l 147 675 b 513 983 181 842 281 983 b 675 953 586 983 636 969 l 600 778 b 511 797 569 792 542 797 b 369 683 439 797 394 772 l 333 561 l 339 561 b 578 683 403 631 493 683 b 758 503 692 683 758 622 b 747 403 758 472 754 436 l 667 0 b 389 -261 638 -144 561 -261 "},"ʜ":{"ha":833,"x_min":0,"x_max":0,"o":"m 150 696 l 372 696 l 325 449 l 517 449 l 564 696 l 786 696 l 650 1 l 428 1 l 479 257 l 286 257 l 236 1 l 14 1 "},"ɨ":{"ha":833,"x_min":0,"x_max":0,"o":"m 97 397 l 286 406 l 317 522 l 97 522 l 133 694 l 575 694 l 506 406 l 672 406 l 650 300 l 479 300 l 472 269 b 467 236 469 258 467 247 b 542 164 467 185 497 164 b 642 189 572 164 600 172 l 686 22 b 472 -17 625 -3 561 -17 b 239 192 331 -17 239 64 b 253 278 239 219 244 247 l 258 300 l 78 300 m 478 792 b 342 913 408 792 342 831 b 497 1058 342 990 410 1058 b 635 938 576 1058 635 1017 b 478 792 635 854 565 792 "},"ɪ":{"ha":833,"x_min":0,"x_max":0,"o":"m 67 186 l 256 186 l 319 508 l 131 508 l 167 694 l 778 694 l 742 508 l 550 508 l 486 186 l 678 186 l 642 0 l 31 0 "},"ʝ":{"ha":833,"x_min":0,"x_max":0,"o":"m 467 -306 b 432 -176 458 -257 447 -214 b 231 -261 378 -229 310 -261 b 8 -69 103 -261 8 -183 b 256 167 8 72 100 167 b 350 149 283 167 317 161 l 425 522 l 153 522 l 189 694 l 681 694 l 553 58 b 542 15 550 44 546 29 b 658 -225 596 -46 639 -125 l 467 -306 m 236 -86 b 317 -14 272 -86 303 -61 b 242 11 292 3 267 11 b 181 -44 203 11 181 -11 b 236 -86 181 -69 197 -86 m 586 792 b 450 913 517 792 450 831 b 606 1058 450 990 518 1058 b 743 938 685 1058 743 1017 b 586 792 743 854 674 792 "},"ʞ":{"ha":833,"x_min":0,"x_max":0,"o":"m 483 256 l 478 256 l 203 0 l -53 0 l 257 289 l 69 694 l 294 694 l 408 424 l 539 536 l 569 694 l 792 694 l 603 -244 l 381 -244 "},"ɫ":{"ha":833,"x_min":0,"x_max":0,"o":"m 453 -17 b 231 214 322 -17 231 69 b 242 306 231 242 233 272 l 276 456 b 264 456 272 456 268 456 b 211 392 242 456 219 442 l 67 400 b 261 619 92 556 164 619 b 314 615 281 619 297 618 l 356 794 l 169 794 l 206 967 l 611 967 l 515 543 b 531 542 521 542 525 542 b 583 606 553 542 575 556 l 728 597 b 533 378 703 442 631 378 b 479 383 514 378 496 379 l 456 275 b 450 228 453 264 450 250 b 522 164 450 183 483 164 b 631 192 563 164 586 172 l 675 28 b 453 -17 600 -6 533 -17 "},"ɬ":{"ha":833,"x_min":0,"x_max":0,"o":"m 244 364 b 58 517 122 364 58 431 b 203 664 58 603 122 664 b 313 613 254 664 290 644 l 356 796 l 169 796 l 206 968 l 611 968 l 500 475 l 681 475 l 658 364 l 475 364 l 456 276 b 450 229 453 265 450 251 b 522 165 450 185 483 165 b 631 193 563 165 586 174 l 675 29 b 453 -15 600 -4 533 -15 b 231 215 322 -15 231 71 b 242 307 231 243 233 274 l 256 364 l 244 364 m 281 475 b 217 556 289 511 272 556 b 175 517 189 556 175 539 b 242 475 175 494 194 475 l 281 475 "},"ɭ":{"ha":833,"x_min":0,"x_max":0,"o":"m 400 -261 b 178 -31 269 -261 178 -175 b 189 61 178 -3 182 28 l 356 794 l 169 794 l 206 967 l 611 967 l 403 31 b 397 -17 400 19 397 6 b 469 -81 397 -61 431 -81 b 578 -53 510 -81 533 -72 l 622 -217 b 400 -261 547 -250 481 -261 "},"ɮ":{"ha":833,"x_min":0,"x_max":0,"o":"m 392 -261 b 122 -144 264 -261 172 -208 l 236 -17 b 400 -86 275 -58 325 -86 b 539 81 481 -86 539 -22 b 439 178 539 147 492 178 b 361 164 404 178 393 175 l 311 275 l 556 522 l 283 522 l 178 0 l -44 0 l 150 967 l 372 967 l 318 694 l 850 694 l 825 567 l 592 325 b 764 125 692 306 764 231 b 392 -261 764 -78 608 -261 "},"ʟ":{"ha":833,"x_min":0,"x_max":0,"o":"m 228 694 l 450 694 l 347 172 l 706 172 l 669 0 l 92 0 "},"ɯ":{"ha":833,"x_min":0,"x_max":0,"o":"m 708 0 l 550 0 l 550 89 l 544 89 b 361 -17 507 35 444 -17 b 267 78 306 -17 275 14 b 89 -17 222 17 161 -17 b -19 108 22 -17 -19 28 b -11 178 -19 133 -17 151 l 94 694 l 297 694 l 200 222 b 197 197 197 208 197 203 b 219 172 197 178 206 172 b 286 229 244 172 264 189 l 382 694 l 554 694 l 456 222 b 453 197 453 208 453 203 b 478 172 453 178 463 172 b 550 231 503 172 526 188 l 639 694 l 844 694 "},"ɰ":{"ha":833,"x_min":0,"x_max":0,"o":"m 492 -67 b 550 89 499 -36 519 15 l 544 89 b 361 -17 507 35 444 -17 b 267 78 306 -17 275 14 b 89 -17 222 17 161 -17 b -19 108 22 -17 -19 28 b -11 178 -19 133 -17 151 l 94 694 l 297 694 l 200 222 b 197 197 197 208 197 203 b 219 172 197 178 206 172 b 286 229 244 172 264 189 l 382 694 l 554 694 l 456 222 b 453 197 453 208 453 203 b 478 172 453 178 463 172 b 550 231 503 172 526 188 l 639 694 l 844 694 l 656 -244 l 453 -244 "},"ɱ":{"ha":833,"x_min":0,"x_max":0,"o":"m 468 -261 b 336 -233 422 -261 381 -256 l 403 -75 b 443 -86 417 -83 431 -86 b 514 25 483 -86 497 -56 l 606 472 b 608 497 608 486 608 492 b 586 522 608 517 600 522 b 519 465 561 522 542 506 l 424 0 l 251 0 l 350 472 b 353 497 353 486 353 492 b 328 522 353 517 343 522 b 256 464 303 522 279 507 l 167 0 l -39 0 l 97 694 l 256 694 l 256 606 l 261 606 b 444 711 299 660 361 711 b 539 617 500 711 531 681 b 717 711 583 678 644 711 b 825 586 783 711 825 667 b 817 517 825 561 822 543 l 713 6 b 468 -261 681 -153 619 -261 "},"ɲ":{"ha":833,"x_min":0,"x_max":0,"o":"m -44 -261 b -154 -242 -101 -261 -131 -253 l -78 -67 b -46 -75 -65 -72 -57 -75 b 8 -14 -14 -75 0 -56 l 147 694 l 326 694 l 322 583 l 328 583 b 583 711 392 647 494 711 b 764 531 697 711 764 650 b 753 431 764 500 760 464 l 667 0 l 444 0 l 525 403 b 535 465 531 428 535 449 b 478 522 535 504 514 522 b 314 414 432 522 368 486 l 233 -6 b -44 -261 206 -147 133 -261 "},"ɳ":{"ha":833,"x_min":0,"x_max":0,"o":"m 589 -261 b 431 -108 475 -261 431 -203 b 442 -14 431 -81 433 -53 l 525 403 b 535 465 531 428 535 449 b 478 522 535 504 514 522 b 314 414 432 522 368 486 l 233 0 l 11 0 l 147 694 l 326 694 l 322 583 l 328 583 b 583 711 392 647 494 711 b 764 531 697 711 764 650 b 753 431 764 500 760 464 l 661 -22 b 658 -49 658 -36 658 -42 b 694 -83 658 -75 675 -83 b 725 -78 706 -83 714 -81 l 717 -242 b 589 -261 692 -250 653 -261 "},"ɴ":{"ha":833,"x_min":0,"x_max":0,"o":"m 158 694 l 369 694 l 458 439 b 503 294 471 400 492 336 l 508 294 b 536 536 514 381 522 467 l 567 694 l 778 694 l 642 0 l 431 0 l 342 256 b 297 400 328 294 308 358 l 292 400 b 264 158 286 314 278 228 l 233 0 l 22 0 "},"ɵ":{"ha":833,"x_min":0,"x_max":0,"o":"m 356 -17 b 42 294 161 -17 42 106 b 447 711 42 547 238 711 b 761 400 642 711 761 589 b 356 -17 761 147 565 -17 m 431 542 b 276 425 365 542 307 499 l 549 425 b 431 542 540 503 500 542 m 372 153 b 531 281 442 153 501 200 l 253 281 b 372 153 258 196 299 153 "},"ɶ":{"ha":833,"x_min":0,"x_max":0,"o":"m 264 -17 b 0 261 131 -17 0 69 b 375 711 0 522 178 711 b 531 694 428 711 475 706 l 858 694 l 826 539 l 622 539 l 600 422 l 764 422 l 739 283 l 572 283 l 547 156 l 764 156 l 733 0 l 392 0 b 264 -17 347 -11 311 -17 m 303 164 b 342 172 317 164 328 167 l 411 525 b 371 531 400 528 388 531 b 225 275 294 531 225 408 b 303 164 225 186 261 164 "},"ɸ":{"ha":833,"x_min":0,"x_max":0,"o":"m 218 300 b 264 164 218 231 235 185 l 349 539 b 218 300 279 531 218 422 m 592 392 b 546 526 592 461 575 506 l 461 153 b 592 392 531 163 592 271 m 226 -4 b 6 283 103 22 6 111 b 385 703 6 546 190 694 l 444 967 l 644 967 l 583 694 b 803 408 706 669 803 579 b 425 -11 803 147 619 -3 l 372 -244 l 172 -244 "},"ɹ":{"ha":833,"x_min":0,"x_max":0,"o":"m 600 -1 l 419 0 l 436 181 l 431 181 b 153 -17 358 56 253 -17 b 17 11 92 -17 42 -6 l 94 203 b 197 181 125 188 158 181 b 456 408 283 181 381 267 l 514 694 l 736 694 "},"ɺ":{"ha":833,"x_min":0,"x_max":0,"o":"m 151 -17 b 17 11 90 -17 42 -6 l 94 203 b 211 183 128 186 167 179 b 456 411 289 190 382 271 l 594 967 l 817 967 l 600 0 l 419 0 l 436 179 l 431 179 b 151 -17 358 54 253 -17 "},"ɻ":{"ha":833,"x_min":0,"x_max":0,"o":"m 500 -261 b 322 -92 367 -261 322 -186 b 331 -14 322 -67 325 -40 l 357 119 l 351 119 b 136 -17 283 25 228 -17 b 17 11 97 -17 61 -8 l 94 203 b 203 181 135 183 172 181 b 368 308 251 181 317 200 l 444 694 l 667 694 l 531 14 b 525 -33 528 0 525 -15 b 586 -83 525 -69 553 -83 b 622 -75 600 -83 608 -81 l 614 -242 b 500 -261 585 -253 554 -261 "},"ɽ":{"ha":833,"x_min":0,"x_max":0,"o":"m 331 -261 b 86 -47 158 -261 86 -178 b 97 44 86 -19 89 6 l 225 696 l 406 694 l 389 514 l 394 514 b 672 711 467 639 572 711 b 808 683 733 711 783 700 l 731 492 b 628 514 700 507 667 514 b 369 286 542 514 444 428 l 322 56 b 317 6 317 31 317 19 b 400 -81 317 -58 349 -81 b 544 -31 453 -81 506 -56 l 611 -185 b 331 -261 549 -228 442 -261 "},"ɾ":{"ha":833,"x_min":0,"x_max":0,"o":"m 172 417 b 581 711 206 581 333 711 b 808 683 683 711 761 700 l 733 483 b 575 508 669 503 644 508 b 389 364 506 508 408 467 l 318 0 l 89 0 "},"ʀ":{"ha":833,"x_min":0,"x_max":0,"o":"m 183 694 l 503 694 b 744 500 639 694 744 636 b 582 251 744 389 679 300 l 686 0 l 461 0 l 393 208 l 311 208 l 269 0 l 47 0 m 411 367 b 514 456 475 367 514 411 b 442 525 514 503 492 526 l 372 525 l 342 367 "},"ʁ":{"ha":833,"x_min":0,"x_max":0,"o":"m 622 0 l 303 0 b 61 194 167 0 61 58 b 224 443 61 306 126 394 l 119 694 l 344 694 l 413 486 l 494 486 l 536 694 l 758 694 m 394 328 b 292 239 331 328 292 283 b 364 169 292 192 314 168 l 433 169 l 464 328 "},"ʂ":{"ha":833,"x_min":0,"x_max":0,"o":"m 217 -261 b 17 -69 65 -261 17 -168 b 44 111 17 -18 28 36 l 165 250 b 403 147 239 178 322 147 b 483 186 456 147 483 161 b 364 261 483 217 461 231 b 144 478 225 306 144 369 b 450 711 144 631 289 711 b 744 597 586 711 678 663 l 624 468 b 425 547 568 513 494 547 b 353 506 382 547 353 535 b 489 428 353 478 383 464 b 692 217 611 386 692 331 b 367 -17 692 57 550 -17 b 225 4 317 -17 268 -10 b 222 -31 222 -12 222 -24 b 275 -81 222 -67 242 -81 b 325 -72 294 -81 308 -78 l 333 -242 b 217 -261 304 -253 272 -261 "},"ʃ":{"ha":833,"x_min":0,"x_max":0,"o":"m 139 -261 b -36 -194 58 -261 3 -233 l 53 -50 b 139 -86 86 -78 111 -86 b 226 28 186 -86 210 -56 l 360 686 b 675 983 392 842 479 983 b 894 911 764 983 842 950 l 797 772 b 692 808 756 797 724 808 b 581 694 631 808 597 778 l 453 36 b 139 -261 422 -119 336 -261 "},"ʄ":{"ha":833,"x_min":0,"x_max":0,"o":"m 139 -261 b -36 -194 58 -261 3 -233 l 53 -50 b 139 -86 86 -78 111 -86 b 226 28 186 -86 210 -56 l 283 311 l 103 311 l 122 408 l 306 417 l 360 686 b 675 983 392 842 479 983 b 894 911 764 983 842 950 l 797 772 b 692 808 756 797 724 808 b 581 694 631 808 597 778 l 526 417 l 731 417 l 708 311 l 506 311 l 453 36 b 139 -261 422 -119 336 -261 "},"ʇ":{"ha":833,"x_min":0,"x_max":0,"o":"m 375 711 b 619 497 547 711 619 628 b 608 406 619 469 617 444 l 561 172 l 736 172 l 703 8 l 517 0 l 442 -208 l 261 -208 l 306 0 l 28 0 l 61 172 l 342 172 l 389 394 b 394 444 394 419 394 431 b 306 531 394 508 357 531 b 161 481 253 531 200 506 l 94 635 b 375 711 157 678 264 711 "},"ʈ":{"ha":833,"x_min":0,"x_max":0,"o":"m 381 -261 b 136 -47 208 -261 136 -178 b 147 44 136 -19 139 6 l 244 522 l 69 522 l 103 686 l 289 694 l 364 903 l 544 903 l 500 694 l 778 694 l 744 522 l 464 522 l 367 56 b 361 6 361 31 361 19 b 450 -81 361 -58 399 -81 b 594 -31 503 -81 556 -56 l 661 -185 b 381 -261 599 -228 492 -261 "},"ʉ":{"ha":833,"x_min":0,"x_max":0,"o":"m 350 172 b 464 250 386 172 419 197 l 488 375 l 319 375 l 303 292 b 292 231 297 267 292 247 b 350 172 292 192 314 172 m 228 -17 b 64 164 114 -17 64 44 b 75 264 64 194 68 231 l 97 375 l 3 375 l 22 472 l 118 481 l 161 694 l 383 694 l 340 481 l 508 481 l 550 694 l 772 694 l 731 481 l 822 481 l 800 375 l 710 375 l 636 0 l 456 0 l 456 89 l 450 89 b 228 -17 392 33 311 -17 "},"ʊ":{"ha":833,"x_min":0,"x_max":0,"o":"m 331 -17 b 56 222 147 -17 56 97 b 208 521 56 347 139 458 l 210 525 l 94 525 l 128 694 l 422 694 l 394 542 b 283 267 329 463 283 367 b 368 164 283 206 308 164 b 517 406 453 164 517 267 b 486 542 517 453 508 496 l 517 694 l 811 694 l 778 525 l 663 525 l 661 521 b 722 342 693 478 722 418 b 331 -17 722 158 558 -17 "},"ʋ":{"ha":833,"x_min":0,"x_max":0,"o":"m 356 -17 b 53 217 164 -17 53 56 b 67 322 53 244 60 289 l 142 694 l 364 694 l 289 325 b 283 261 283 294 283 278 b 372 164 283 194 308 164 b 536 456 472 164 536 325 b 475 528 536 506 517 528 b 453 525 468 528 465 528 l 464 700 b 564 711 492 708 519 711 b 761 494 678 711 761 646 b 356 -17 761 222 603 -17 "},"ʌ":{"ha":833,"x_min":0,"x_max":0,"o":"m 717 0 l 497 0 l 461 319 b 443 533 453 389 449 460 l 438 533 b 336 319 407 463 371 389 l 178 0 l -42 0 l 342 694 l 600 694 "},"ʍ":{"ha":833,"x_min":0,"x_max":0,"o":"m 739 0 l 528 0 l 563 310 b 585 519 571 379 579 449 l 579 519 b 507 310 558 449 535 376 l 429 103 l 279 103 l 281 310 b 288 519 282 379 283 449 l 282 519 b 224 310 260 449 243 379 l 139 0 l -64 0 l 169 694 l 415 694 l 406 481 b 388 279 403 417 394 356 l 393 279 b 451 483 413 354 424 399 l 521 694 l 776 694 "},"ʎ":{"ha":833,"x_min":0,"x_max":0,"o":"m 369 722 b 744 983 472 903 581 983 b 881 947 797 983 853 967 l 819 797 b 731 819 797 808 758 819 b 603 750 667 819 632 797 l 565 689 l 717 0 l 503 0 l 458 269 b 431 492 447 339 436 433 l 425 492 b 319 269 400 433 356 339 l 181 0 l -44 0 "},"ʏ":{"ha":833,"x_min":0,"x_max":0,"o":"m 260 200 l 93 694 l 333 694 l 367 561 b 411 394 371 504 406 454 l 417 394 b 531 561 446 454 501 504 l 614 694 l 851 694 l 490 200 l 450 0 l 221 0 "},"ʐ":{"ha":833,"x_min":0,"x_max":0,"o":"m 619 -261 b 419 -69 468 -261 419 -168 b 428 0 419 -44 422 -28 l 25 0 l 50 131 l 458 525 l 131 525 l 167 694 l 778 694 l 753 564 l 347 172 l 689 172 b 653 -31 664 53 653 -8 b 694 -75 653 -62 667 -75 b 731 -67 707 -75 717 -72 l 736 -242 b 619 -261 707 -253 675 -261 "},"ʑ":{"ha":833,"x_min":0,"x_max":0,"o":"m 292 -133 b 347 0 310 -86 328 -42 l 25 0 l 50 131 l 431 525 l 131 525 l 167 694 l 742 694 l 717 564 l 331 169 b 431 160 365 165 397 163 b 672 358 508 286 590 358 b 792 247 753 358 792 322 b 497 0 792 125 700 0 l 456 0 b 392 -156 436 -44 414 -96 m 593 156 b 672 211 644 156 672 186 b 642 236 672 228 661 236 b 543 156 618 236 585 214 b 593 156 560 156 576 156 "},"ʒ":{"ha":833,"x_min":0,"x_max":0,"o":"m 269 -261 b -22 -131 133 -261 33 -203 l 92 -3 b 278 -86 136 -53 197 -86 b 450 64 381 -86 450 -22 b 322 178 450 142 390 178 b 231 164 282 178 268 176 l 181 275 l 453 522 l 150 522 l 183 694 l 761 694 l 736 567 l 475 325 b 675 100 603 303 675 214 b 269 -261 675 -89 508 -261 "}}}
